%TF.GenerationSoftware,KiCad,Pcbnew,6.0.4-6f826c9f35~116~ubuntu18.04.1*%
%TF.CreationDate,2022-05-09T12:51:31-04:00*%
%TF.ProjectId,Instrumentation_ampl_with_batteries,496e7374-7275-46d6-956e-746174696f6e,rev?*%
%TF.SameCoordinates,Original*%
%TF.FileFunction,Copper,L2,Bot*%
%TF.FilePolarity,Positive*%
%FSLAX46Y46*%
G04 Gerber Fmt 4.6, Leading zero omitted, Abs format (unit mm)*
G04 Created by KiCad (PCBNEW 6.0.4-6f826c9f35~116~ubuntu18.04.1) date 2022-05-09 12:51:31*
%MOMM*%
%LPD*%
G01*
G04 APERTURE LIST*
G04 Aperture macros list*
%AMRoundRect*
0 Rectangle with rounded corners*
0 $1 Rounding radius*
0 $2 $3 $4 $5 $6 $7 $8 $9 X,Y pos of 4 corners*
0 Add a 4 corners polygon primitive as box body*
4,1,4,$2,$3,$4,$5,$6,$7,$8,$9,$2,$3,0*
0 Add four circle primitives for the rounded corners*
1,1,$1+$1,$2,$3*
1,1,$1+$1,$4,$5*
1,1,$1+$1,$6,$7*
1,1,$1+$1,$8,$9*
0 Add four rect primitives between the rounded corners*
20,1,$1+$1,$2,$3,$4,$5,0*
20,1,$1+$1,$4,$5,$6,$7,0*
20,1,$1+$1,$6,$7,$8,$9,0*
20,1,$1+$1,$8,$9,$2,$3,0*%
G04 Aperture macros list end*
%TA.AperFunction,ComponentPad*%
%ADD10R,2.400000X2.400000*%
%TD*%
%TA.AperFunction,ComponentPad*%
%ADD11C,2.400000*%
%TD*%
%TA.AperFunction,ComponentPad*%
%ADD12R,1.700000X1.700000*%
%TD*%
%TA.AperFunction,ComponentPad*%
%ADD13O,1.700000X1.700000*%
%TD*%
%TA.AperFunction,ComponentPad*%
%ADD14C,3.000000*%
%TD*%
%TA.AperFunction,ComponentPad*%
%ADD15RoundRect,0.550000X-0.550000X-1.050000X0.550000X-1.050000X0.550000X1.050000X-0.550000X1.050000X0*%
%TD*%
%TA.AperFunction,ComponentPad*%
%ADD16RoundRect,0.550000X0.550000X1.050000X-0.550000X1.050000X-0.550000X-1.050000X0.550000X-1.050000X0*%
%TD*%
%TA.AperFunction,ViaPad*%
%ADD17C,3.175000*%
%TD*%
%TA.AperFunction,ViaPad*%
%ADD18C,1.270000*%
%TD*%
%TA.AperFunction,Conductor*%
%ADD19C,0.508000*%
%TD*%
G04 APERTURE END LIST*
D10*
%TO.P,J3,1,Pin_1*%
%TO.N,Net-(C1-Pad1)*%
X67564000Y-107696000D03*
D11*
%TO.P,J3,2,Pin_2*%
%TO.N,GND*%
X67564000Y-111196000D03*
%TO.P,J3,3,Pin_3*%
%TO.N,Net-(J3-Pad3)*%
X67564000Y-114696000D03*
%TD*%
D12*
%TO.P,J1,1,Pin_1*%
%TO.N,+12V*%
X76200000Y-93726000D03*
D13*
%TO.P,J1,2,Pin_2*%
%TO.N,Net-(BT1-Pad1)*%
X73660000Y-93726000D03*
%TD*%
D14*
%TO.P,J4,1,In*%
%TO.N,Net-(J4-Pad1)*%
X93472000Y-110820000D03*
%TO.P,J4,2,Ext*%
%TO.N,GND*%
X98472000Y-115820000D03*
X98472000Y-105820000D03*
X88472000Y-115820000D03*
X88472000Y-105820000D03*
%TD*%
D12*
%TO.P,J2,1,Pin_1*%
%TO.N,Net-(BT2-Pad2)*%
X73401000Y-128270000D03*
D13*
%TO.P,J2,2,Pin_2*%
%TO.N,-12V*%
X75941000Y-128270000D03*
%TD*%
D15*
%TO.P,BT1,1,+*%
%TO.N,Net-(BT1-Pad1)*%
X67044000Y-102362000D03*
%TO.P,BT1,2,-*%
%TO.N,GND*%
X98044000Y-102362000D03*
%TD*%
D16*
%TO.P,BT2,2,-*%
%TO.N,Net-(BT2-Pad2)*%
X67044000Y-119634000D03*
%TO.P,BT2,1,+*%
%TO.N,GND*%
X98044000Y-119634000D03*
%TD*%
D17*
%TO.N,*%
X97790000Y-128270000D03*
X67310000Y-128270000D03*
X67310000Y-93980000D03*
X97790000Y-93980000D03*
D18*
%TO.N,GND*%
X76708000Y-105156000D03*
X65024000Y-111252000D03*
X82042000Y-104394000D03*
X81788000Y-111506000D03*
X77724000Y-116713000D03*
%TO.N,Net-(J4-Pad1)*%
X85852000Y-112776000D03*
%TD*%
D19*
%TO.N,Net-(J4-Pad1)*%
X93472000Y-110820000D02*
X86792000Y-110820000D01*
X86792000Y-110820000D02*
X85852000Y-111760000D01*
X85852000Y-111760000D02*
X85852000Y-112776000D01*
%TD*%
%TA.AperFunction,Conductor*%
%TO.N,GND*%
G36*
X66110423Y-92043502D02*
G01*
X66156916Y-92097158D01*
X66167020Y-92167432D01*
X66137526Y-92232012D01*
X66114356Y-92252834D01*
X66110989Y-92254849D01*
X65887953Y-92433535D01*
X65885009Y-92436637D01*
X65885005Y-92436641D01*
X65709002Y-92622109D01*
X65691230Y-92640837D01*
X65524462Y-92872920D01*
X65390734Y-93125488D01*
X65292521Y-93393868D01*
X65231640Y-93673094D01*
X65209217Y-93958000D01*
X65225668Y-94243312D01*
X65226493Y-94247517D01*
X65226494Y-94247525D01*
X65237648Y-94304377D01*
X65280688Y-94523752D01*
X65282075Y-94527802D01*
X65282076Y-94527807D01*
X65371871Y-94790075D01*
X65373260Y-94794131D01*
X65398966Y-94845242D01*
X65494939Y-95036062D01*
X65501669Y-95049444D01*
X65663540Y-95284968D01*
X65855878Y-95496345D01*
X65859166Y-95499094D01*
X66071831Y-95676910D01*
X66071836Y-95676914D01*
X66075123Y-95679662D01*
X66196171Y-95755596D01*
X66313579Y-95829246D01*
X66313583Y-95829248D01*
X66317219Y-95831529D01*
X66577686Y-95949134D01*
X66581805Y-95950354D01*
X66847590Y-96029084D01*
X66847595Y-96029085D01*
X66851703Y-96030302D01*
X66855937Y-96030950D01*
X66855942Y-96030951D01*
X67129959Y-96072881D01*
X67129961Y-96072881D01*
X67134201Y-96073530D01*
X67279688Y-96075816D01*
X67415662Y-96077952D01*
X67415668Y-96077952D01*
X67419953Y-96078019D01*
X67703669Y-96043685D01*
X67980101Y-95971165D01*
X67984061Y-95969525D01*
X67984066Y-95969523D01*
X68126048Y-95910712D01*
X68244133Y-95861799D01*
X68490880Y-95717612D01*
X68715775Y-95541271D01*
X68914658Y-95336041D01*
X69083847Y-95105717D01*
X69220212Y-94854563D01*
X69308576Y-94620717D01*
X69319713Y-94591244D01*
X69319714Y-94591240D01*
X69321231Y-94587226D01*
X69385032Y-94308653D01*
X69410437Y-94023998D01*
X69410898Y-93980000D01*
X69406860Y-93920767D01*
X69391752Y-93699152D01*
X69391751Y-93699146D01*
X69391460Y-93694875D01*
X69391009Y-93692695D01*
X72297251Y-93692695D01*
X72310110Y-93915715D01*
X72311247Y-93920761D01*
X72311248Y-93920767D01*
X72324597Y-93980000D01*
X72359222Y-94133639D01*
X72443266Y-94340616D01*
X72445965Y-94345020D01*
X72555492Y-94523752D01*
X72559987Y-94531088D01*
X72706250Y-94699938D01*
X72878126Y-94842632D01*
X73071000Y-94955338D01*
X73279692Y-95035030D01*
X73284760Y-95036061D01*
X73284763Y-95036062D01*
X73392017Y-95057883D01*
X73498597Y-95079567D01*
X73503772Y-95079757D01*
X73503774Y-95079757D01*
X73716673Y-95087564D01*
X73716677Y-95087564D01*
X73721837Y-95087753D01*
X73726957Y-95087097D01*
X73726959Y-95087097D01*
X73938288Y-95060025D01*
X73938289Y-95060025D01*
X73943416Y-95059368D01*
X73948366Y-95057883D01*
X74152429Y-94996661D01*
X74152434Y-94996659D01*
X74157384Y-94995174D01*
X74357994Y-94896896D01*
X74539860Y-94767173D01*
X74648091Y-94659319D01*
X74710462Y-94625404D01*
X74781268Y-94630592D01*
X74838030Y-94673238D01*
X74855012Y-94704341D01*
X74899385Y-94822705D01*
X74986739Y-94939261D01*
X75103295Y-95026615D01*
X75239684Y-95077745D01*
X75301866Y-95084500D01*
X77098134Y-95084500D01*
X77160316Y-95077745D01*
X77296705Y-95026615D01*
X77413261Y-94939261D01*
X77500615Y-94822705D01*
X77551745Y-94686316D01*
X77558500Y-94624134D01*
X77558500Y-92827866D01*
X77551745Y-92765684D01*
X77500615Y-92629295D01*
X77413261Y-92512739D01*
X77296705Y-92425385D01*
X77160316Y-92374255D01*
X77098134Y-92367500D01*
X75301866Y-92367500D01*
X75239684Y-92374255D01*
X75103295Y-92425385D01*
X74986739Y-92512739D01*
X74899385Y-92629295D01*
X74893537Y-92644894D01*
X74854919Y-92747907D01*
X74812277Y-92804671D01*
X74745716Y-92829371D01*
X74676367Y-92814163D01*
X74643743Y-92788476D01*
X74593151Y-92732875D01*
X74593142Y-92732866D01*
X74589670Y-92729051D01*
X74585619Y-92725852D01*
X74585615Y-92725848D01*
X74418414Y-92593800D01*
X74418410Y-92593798D01*
X74414359Y-92590598D01*
X74218789Y-92482638D01*
X74213920Y-92480914D01*
X74213916Y-92480912D01*
X74013087Y-92409795D01*
X74013083Y-92409794D01*
X74008212Y-92408069D01*
X74003119Y-92407162D01*
X74003116Y-92407161D01*
X73793373Y-92369800D01*
X73793367Y-92369799D01*
X73788284Y-92368894D01*
X73714452Y-92367992D01*
X73570081Y-92366228D01*
X73570079Y-92366228D01*
X73564911Y-92366165D01*
X73344091Y-92399955D01*
X73131756Y-92469357D01*
X72933607Y-92572507D01*
X72929474Y-92575610D01*
X72929471Y-92575612D01*
X72759100Y-92703530D01*
X72754965Y-92706635D01*
X72715525Y-92747907D01*
X72661280Y-92804671D01*
X72600629Y-92868138D01*
X72474743Y-93052680D01*
X72380688Y-93255305D01*
X72320989Y-93470570D01*
X72297251Y-93692695D01*
X69391009Y-93692695D01*
X69386083Y-93668908D01*
X69334375Y-93419224D01*
X69333506Y-93415027D01*
X69238109Y-93145633D01*
X69107033Y-92891678D01*
X69087863Y-92864401D01*
X68945171Y-92661372D01*
X68945170Y-92661371D01*
X68942704Y-92657862D01*
X68748164Y-92448511D01*
X68719910Y-92425385D01*
X68530329Y-92270216D01*
X68527011Y-92267500D01*
X68523351Y-92265257D01*
X68509768Y-92256933D01*
X68462136Y-92204286D01*
X68450529Y-92134244D01*
X68478632Y-92069047D01*
X68537522Y-92029392D01*
X68575602Y-92023500D01*
X96522302Y-92023500D01*
X96590423Y-92043502D01*
X96636916Y-92097158D01*
X96647020Y-92167432D01*
X96617526Y-92232012D01*
X96594356Y-92252834D01*
X96590989Y-92254849D01*
X96367953Y-92433535D01*
X96365009Y-92436637D01*
X96365005Y-92436641D01*
X96189002Y-92622109D01*
X96171230Y-92640837D01*
X96004462Y-92872920D01*
X95870734Y-93125488D01*
X95772521Y-93393868D01*
X95711640Y-93673094D01*
X95689217Y-93958000D01*
X95705668Y-94243312D01*
X95706493Y-94247517D01*
X95706494Y-94247525D01*
X95717648Y-94304377D01*
X95760688Y-94523752D01*
X95762075Y-94527802D01*
X95762076Y-94527807D01*
X95851871Y-94790075D01*
X95853260Y-94794131D01*
X95878966Y-94845242D01*
X95974939Y-95036062D01*
X95981669Y-95049444D01*
X96143540Y-95284968D01*
X96335878Y-95496345D01*
X96339166Y-95499094D01*
X96551831Y-95676910D01*
X96551836Y-95676914D01*
X96555123Y-95679662D01*
X96676171Y-95755596D01*
X96793579Y-95829246D01*
X96793583Y-95829248D01*
X96797219Y-95831529D01*
X97057686Y-95949134D01*
X97061805Y-95950354D01*
X97327590Y-96029084D01*
X97327595Y-96029085D01*
X97331703Y-96030302D01*
X97335937Y-96030950D01*
X97335942Y-96030951D01*
X97609959Y-96072881D01*
X97609961Y-96072881D01*
X97614201Y-96073530D01*
X97759688Y-96075816D01*
X97895662Y-96077952D01*
X97895668Y-96077952D01*
X97899953Y-96078019D01*
X98183669Y-96043685D01*
X98460101Y-95971165D01*
X98464061Y-95969525D01*
X98464066Y-95969523D01*
X98606048Y-95910712D01*
X98724133Y-95861799D01*
X98970880Y-95717612D01*
X99195775Y-95541271D01*
X99394658Y-95336041D01*
X99563847Y-95105717D01*
X99700212Y-94854563D01*
X99788576Y-94620717D01*
X99799713Y-94591244D01*
X99799714Y-94591240D01*
X99801231Y-94587226D01*
X99865032Y-94308653D01*
X99890437Y-94023998D01*
X99890898Y-93980000D01*
X99886860Y-93920767D01*
X99871752Y-93699152D01*
X99871751Y-93699146D01*
X99871460Y-93694875D01*
X99866083Y-93668908D01*
X99814375Y-93419224D01*
X99813506Y-93415027D01*
X99718109Y-93145633D01*
X99587033Y-92891678D01*
X99567863Y-92864401D01*
X99425171Y-92661372D01*
X99425170Y-92661371D01*
X99422704Y-92657862D01*
X99228164Y-92448511D01*
X99199910Y-92425385D01*
X99010329Y-92270216D01*
X99007011Y-92267500D01*
X99003351Y-92265257D01*
X98989768Y-92256933D01*
X98942136Y-92204286D01*
X98930529Y-92134244D01*
X98958632Y-92069047D01*
X99017522Y-92029392D01*
X99055602Y-92023500D01*
X100890500Y-92023500D01*
X100958621Y-92043502D01*
X101005114Y-92097158D01*
X101016500Y-92149500D01*
X101016500Y-130100500D01*
X100996498Y-130168621D01*
X100942842Y-130215114D01*
X100890500Y-130226500D01*
X99056618Y-130226500D01*
X98988497Y-130206498D01*
X98942004Y-130152842D01*
X98931900Y-130082568D01*
X98961394Y-130017988D01*
X98978871Y-130001346D01*
X99016373Y-129971941D01*
X99195775Y-129831271D01*
X99394658Y-129626041D01*
X99563847Y-129395717D01*
X99695366Y-129153489D01*
X99698162Y-129148339D01*
X99698163Y-129148337D01*
X99700212Y-129144563D01*
X99750722Y-129010894D01*
X99799713Y-128881244D01*
X99799714Y-128881240D01*
X99801231Y-128877226D01*
X99865032Y-128598653D01*
X99890437Y-128313998D01*
X99890898Y-128270000D01*
X99871460Y-127984875D01*
X99866083Y-127958908D01*
X99814375Y-127709224D01*
X99813506Y-127705027D01*
X99718109Y-127435633D01*
X99587033Y-127181678D01*
X99581142Y-127173295D01*
X99425171Y-126951372D01*
X99425170Y-126951371D01*
X99422704Y-126947862D01*
X99228164Y-126738511D01*
X99007011Y-126557500D01*
X98763338Y-126408177D01*
X98740351Y-126398086D01*
X98505590Y-126295033D01*
X98501654Y-126293305D01*
X98226801Y-126215012D01*
X97943866Y-126174744D01*
X97793949Y-126173959D01*
X97662371Y-126173270D01*
X97662365Y-126173270D01*
X97658084Y-126173248D01*
X97653840Y-126173807D01*
X97653836Y-126173807D01*
X97529652Y-126190156D01*
X97374742Y-126210550D01*
X97370602Y-126211683D01*
X97370600Y-126211683D01*
X97354140Y-126216186D01*
X97099085Y-126285962D01*
X96836212Y-126398086D01*
X96832531Y-126400289D01*
X96594671Y-126542645D01*
X96594667Y-126542648D01*
X96590989Y-126544849D01*
X96587646Y-126547527D01*
X96587642Y-126547530D01*
X96478786Y-126634741D01*
X96367953Y-126723535D01*
X96365009Y-126726637D01*
X96365005Y-126726641D01*
X96183979Y-126917402D01*
X96171230Y-126930837D01*
X96004462Y-127162920D01*
X95870734Y-127415488D01*
X95772521Y-127683868D01*
X95711640Y-127963094D01*
X95689217Y-128248000D01*
X95705668Y-128533312D01*
X95706493Y-128537517D01*
X95706494Y-128537525D01*
X95710525Y-128558069D01*
X95760688Y-128813752D01*
X95762075Y-128817802D01*
X95762076Y-128817807D01*
X95814895Y-128972077D01*
X95853260Y-129084131D01*
X95895509Y-129168134D01*
X95936373Y-129249382D01*
X95981669Y-129339444D01*
X96051395Y-129440896D01*
X96136847Y-129565229D01*
X96143540Y-129574968D01*
X96335878Y-129786345D01*
X96339166Y-129789094D01*
X96551831Y-129966910D01*
X96551836Y-129966914D01*
X96555123Y-129969662D01*
X96593545Y-129993764D01*
X96640621Y-130046906D01*
X96651493Y-130117066D01*
X96622709Y-130181965D01*
X96563406Y-130221000D01*
X96526587Y-130226500D01*
X68576618Y-130226500D01*
X68508497Y-130206498D01*
X68462004Y-130152842D01*
X68451900Y-130082568D01*
X68481394Y-130017988D01*
X68498871Y-130001346D01*
X68536373Y-129971941D01*
X68715775Y-129831271D01*
X68914658Y-129626041D01*
X69083847Y-129395717D01*
X69207414Y-129168134D01*
X72042500Y-129168134D01*
X72049255Y-129230316D01*
X72100385Y-129366705D01*
X72187739Y-129483261D01*
X72304295Y-129570615D01*
X72440684Y-129621745D01*
X72502866Y-129628500D01*
X74299134Y-129628500D01*
X74361316Y-129621745D01*
X74497705Y-129570615D01*
X74614261Y-129483261D01*
X74701615Y-129366705D01*
X74706346Y-129354086D01*
X74745598Y-129249382D01*
X74788240Y-129192618D01*
X74854802Y-129167918D01*
X74924150Y-129183126D01*
X74958817Y-129211114D01*
X74987250Y-129243938D01*
X75159126Y-129386632D01*
X75352000Y-129499338D01*
X75560692Y-129579030D01*
X75565760Y-129580061D01*
X75565763Y-129580062D01*
X75673017Y-129601883D01*
X75779597Y-129623567D01*
X75784772Y-129623757D01*
X75784774Y-129623757D01*
X75997673Y-129631564D01*
X75997677Y-129631564D01*
X76002837Y-129631753D01*
X76007957Y-129631097D01*
X76007959Y-129631097D01*
X76219288Y-129604025D01*
X76219289Y-129604025D01*
X76224416Y-129603368D01*
X76229366Y-129601883D01*
X76433429Y-129540661D01*
X76433434Y-129540659D01*
X76438384Y-129539174D01*
X76638994Y-129440896D01*
X76820860Y-129311173D01*
X76979096Y-129153489D01*
X77028935Y-129084131D01*
X77106435Y-128976277D01*
X77109453Y-128972077D01*
X77208430Y-128771811D01*
X77273370Y-128558069D01*
X77302529Y-128336590D01*
X77303081Y-128313998D01*
X77304074Y-128273365D01*
X77304074Y-128273361D01*
X77304156Y-128270000D01*
X77285852Y-128047361D01*
X77231431Y-127830702D01*
X77142354Y-127625840D01*
X77021014Y-127438277D01*
X76870670Y-127273051D01*
X76866619Y-127269852D01*
X76866615Y-127269848D01*
X76699414Y-127137800D01*
X76699410Y-127137798D01*
X76695359Y-127134598D01*
X76499789Y-127026638D01*
X76494920Y-127024914D01*
X76494916Y-127024912D01*
X76294087Y-126953795D01*
X76294083Y-126953794D01*
X76289212Y-126952069D01*
X76284119Y-126951162D01*
X76284116Y-126951161D01*
X76074373Y-126913800D01*
X76074367Y-126913799D01*
X76069284Y-126912894D01*
X75995452Y-126911992D01*
X75851081Y-126910228D01*
X75851079Y-126910228D01*
X75845911Y-126910165D01*
X75625091Y-126943955D01*
X75412756Y-127013357D01*
X75214607Y-127116507D01*
X75210474Y-127119610D01*
X75210471Y-127119612D01*
X75040100Y-127247530D01*
X75035965Y-127250635D01*
X74979537Y-127309684D01*
X74955283Y-127335064D01*
X74893759Y-127370494D01*
X74822846Y-127367037D01*
X74765060Y-127325791D01*
X74746207Y-127292243D01*
X74704767Y-127181703D01*
X74701615Y-127173295D01*
X74614261Y-127056739D01*
X74497705Y-126969385D01*
X74361316Y-126918255D01*
X74299134Y-126911500D01*
X72502866Y-126911500D01*
X72440684Y-126918255D01*
X72304295Y-126969385D01*
X72187739Y-127056739D01*
X72100385Y-127173295D01*
X72049255Y-127309684D01*
X72042500Y-127371866D01*
X72042500Y-129168134D01*
X69207414Y-129168134D01*
X69215366Y-129153489D01*
X69218162Y-129148339D01*
X69218163Y-129148337D01*
X69220212Y-129144563D01*
X69270722Y-129010894D01*
X69319713Y-128881244D01*
X69319714Y-128881240D01*
X69321231Y-128877226D01*
X69385032Y-128598653D01*
X69410437Y-128313998D01*
X69410898Y-128270000D01*
X69391460Y-127984875D01*
X69386083Y-127958908D01*
X69334375Y-127709224D01*
X69333506Y-127705027D01*
X69238109Y-127435633D01*
X69107033Y-127181678D01*
X69101142Y-127173295D01*
X68945171Y-126951372D01*
X68945170Y-126951371D01*
X68942704Y-126947862D01*
X68748164Y-126738511D01*
X68527011Y-126557500D01*
X68283338Y-126408177D01*
X68260351Y-126398086D01*
X68025590Y-126295033D01*
X68021654Y-126293305D01*
X67746801Y-126215012D01*
X67463866Y-126174744D01*
X67313949Y-126173959D01*
X67182371Y-126173270D01*
X67182365Y-126173270D01*
X67178084Y-126173248D01*
X67173840Y-126173807D01*
X67173836Y-126173807D01*
X67049652Y-126190156D01*
X66894742Y-126210550D01*
X66890602Y-126211683D01*
X66890600Y-126211683D01*
X66874140Y-126216186D01*
X66619085Y-126285962D01*
X66356212Y-126398086D01*
X66352531Y-126400289D01*
X66114671Y-126542645D01*
X66114667Y-126542648D01*
X66110989Y-126544849D01*
X66107646Y-126547527D01*
X66107642Y-126547530D01*
X65998786Y-126634741D01*
X65887953Y-126723535D01*
X65885009Y-126726637D01*
X65885005Y-126726641D01*
X65703979Y-126917402D01*
X65691230Y-126930837D01*
X65524462Y-127162920D01*
X65390734Y-127415488D01*
X65292521Y-127683868D01*
X65231640Y-127963094D01*
X65209217Y-128248000D01*
X65225668Y-128533312D01*
X65226493Y-128537517D01*
X65226494Y-128537525D01*
X65230525Y-128558069D01*
X65280688Y-128813752D01*
X65282075Y-128817802D01*
X65282076Y-128817807D01*
X65334895Y-128972077D01*
X65373260Y-129084131D01*
X65415509Y-129168134D01*
X65456373Y-129249382D01*
X65501669Y-129339444D01*
X65571395Y-129440896D01*
X65656847Y-129565229D01*
X65663540Y-129574968D01*
X65855878Y-129786345D01*
X65859166Y-129789094D01*
X66071831Y-129966910D01*
X66071836Y-129966914D01*
X66075123Y-129969662D01*
X66113545Y-129993764D01*
X66160621Y-130046906D01*
X66171493Y-130117066D01*
X66142709Y-130181965D01*
X66083406Y-130221000D01*
X66046587Y-130226500D01*
X64209500Y-130226500D01*
X64141379Y-130206498D01*
X64094886Y-130152842D01*
X64083500Y-130100500D01*
X64083500Y-120785110D01*
X65435500Y-120785110D01*
X65435580Y-120786681D01*
X65435580Y-120786698D01*
X65435586Y-120786816D01*
X65435823Y-120791486D01*
X65476853Y-120994973D01*
X65556626Y-121186615D01*
X65672104Y-121359113D01*
X65818887Y-121505896D01*
X65991385Y-121621374D01*
X66183027Y-121701147D01*
X66189071Y-121702366D01*
X66189072Y-121702366D01*
X66381926Y-121741252D01*
X66386514Y-121742177D01*
X66391178Y-121742413D01*
X66391184Y-121742414D01*
X66391302Y-121742420D01*
X66391319Y-121742420D01*
X66392890Y-121742500D01*
X67695110Y-121742500D01*
X67696681Y-121742420D01*
X67696698Y-121742420D01*
X67696816Y-121742414D01*
X67696822Y-121742413D01*
X67701486Y-121742177D01*
X67706074Y-121741252D01*
X67898928Y-121702366D01*
X67898929Y-121702366D01*
X67904973Y-121701147D01*
X68096615Y-121621374D01*
X68269113Y-121505896D01*
X68415896Y-121359113D01*
X68531374Y-121186615D01*
X68611147Y-120994973D01*
X68652177Y-120791486D01*
X68652414Y-120786816D01*
X68652420Y-120786698D01*
X68652420Y-120786681D01*
X68652500Y-120785110D01*
X68652500Y-120783460D01*
X96436000Y-120783460D01*
X96436081Y-120786648D01*
X96436086Y-120786766D01*
X96437248Y-120796021D01*
X96476116Y-120988787D01*
X96479702Y-121000514D01*
X96554701Y-121180687D01*
X96560499Y-121191501D01*
X96669061Y-121353669D01*
X96676854Y-121363156D01*
X96814844Y-121501146D01*
X96824331Y-121508939D01*
X96986499Y-121617501D01*
X96997313Y-121623299D01*
X97177486Y-121698298D01*
X97189213Y-121701884D01*
X97381979Y-121740752D01*
X97391234Y-121741914D01*
X97391352Y-121741919D01*
X97394540Y-121742000D01*
X97771885Y-121742000D01*
X97787124Y-121737525D01*
X97788329Y-121736135D01*
X97790000Y-121728452D01*
X97790000Y-121723885D01*
X98298000Y-121723885D01*
X98302475Y-121739124D01*
X98303865Y-121740329D01*
X98311548Y-121742000D01*
X98693460Y-121742000D01*
X98696648Y-121741919D01*
X98696766Y-121741914D01*
X98706021Y-121740752D01*
X98898787Y-121701884D01*
X98910514Y-121698298D01*
X99090687Y-121623299D01*
X99101501Y-121617501D01*
X99263669Y-121508939D01*
X99273156Y-121501146D01*
X99411146Y-121363156D01*
X99418939Y-121353669D01*
X99527501Y-121191501D01*
X99533299Y-121180687D01*
X99608298Y-121000514D01*
X99611884Y-120988787D01*
X99650752Y-120796021D01*
X99651914Y-120786766D01*
X99651919Y-120786648D01*
X99652000Y-120783460D01*
X99652000Y-119906115D01*
X99647525Y-119890876D01*
X99646135Y-119889671D01*
X99638452Y-119888000D01*
X98316115Y-119888000D01*
X98300876Y-119892475D01*
X98299671Y-119893865D01*
X98298000Y-119901548D01*
X98298000Y-121723885D01*
X97790000Y-121723885D01*
X97790000Y-119906115D01*
X97785525Y-119890876D01*
X97784135Y-119889671D01*
X97776452Y-119888000D01*
X96454115Y-119888000D01*
X96438876Y-119892475D01*
X96437671Y-119893865D01*
X96436000Y-119901548D01*
X96436000Y-120783460D01*
X68652500Y-120783460D01*
X68652500Y-119361885D01*
X96436000Y-119361885D01*
X96440475Y-119377124D01*
X96441865Y-119378329D01*
X96449548Y-119380000D01*
X99633885Y-119380000D01*
X99649124Y-119375525D01*
X99650329Y-119374135D01*
X99652000Y-119366452D01*
X99652000Y-118484540D01*
X99651919Y-118481352D01*
X99651914Y-118481234D01*
X99650752Y-118471979D01*
X99611884Y-118279213D01*
X99608298Y-118267486D01*
X99533299Y-118087313D01*
X99527501Y-118076499D01*
X99418939Y-117914331D01*
X99411146Y-117904844D01*
X99331758Y-117825456D01*
X99297732Y-117763144D01*
X99302797Y-117692329D01*
X99345344Y-117635493D01*
X99364832Y-117623500D01*
X99370613Y-117620631D01*
X99599598Y-117486822D01*
X99606679Y-117482009D01*
X99686655Y-117419301D01*
X99695125Y-117407442D01*
X99688608Y-117395818D01*
X98484812Y-116192022D01*
X98470868Y-116184408D01*
X98469035Y-116184539D01*
X98462420Y-116188790D01*
X97254910Y-117396300D01*
X97247296Y-117410244D01*
X97249721Y-117444155D01*
X97249422Y-117444176D01*
X97251187Y-117449327D01*
X97234239Y-117518271D01*
X97182707Y-117567107D01*
X97173734Y-117571263D01*
X96997313Y-117644701D01*
X96986499Y-117650499D01*
X96824331Y-117759061D01*
X96814844Y-117766854D01*
X96676854Y-117904844D01*
X96669061Y-117914331D01*
X96560499Y-118076499D01*
X96554701Y-118087313D01*
X96479702Y-118267486D01*
X96476116Y-118279213D01*
X96437248Y-118471979D01*
X96436086Y-118481234D01*
X96436081Y-118481352D01*
X96436000Y-118484540D01*
X96436000Y-119361885D01*
X68652500Y-119361885D01*
X68652500Y-118482890D01*
X68652417Y-118481234D01*
X68652414Y-118481184D01*
X68652413Y-118481178D01*
X68652177Y-118476514D01*
X68611147Y-118273027D01*
X68531374Y-118081385D01*
X68415896Y-117908887D01*
X68269113Y-117762104D01*
X68096615Y-117646626D01*
X67904973Y-117566853D01*
X67898929Y-117565634D01*
X67898928Y-117565634D01*
X67706074Y-117526748D01*
X67706073Y-117526748D01*
X67701486Y-117525823D01*
X67696822Y-117525587D01*
X67696816Y-117525586D01*
X67696698Y-117525580D01*
X67696681Y-117525580D01*
X67695110Y-117525500D01*
X66392890Y-117525500D01*
X66391319Y-117525580D01*
X66391302Y-117525580D01*
X66391184Y-117525586D01*
X66391178Y-117525587D01*
X66386514Y-117525823D01*
X66381927Y-117526748D01*
X66381926Y-117526748D01*
X66189072Y-117565634D01*
X66189071Y-117565634D01*
X66183027Y-117566853D01*
X65991385Y-117646626D01*
X65818887Y-117762104D01*
X65672104Y-117908887D01*
X65556626Y-118081385D01*
X65476853Y-118273027D01*
X65435823Y-118476514D01*
X65435587Y-118481178D01*
X65435586Y-118481184D01*
X65435584Y-118481234D01*
X65435500Y-118482890D01*
X65435500Y-120785110D01*
X64083500Y-120785110D01*
X64083500Y-117409654D01*
X87247618Y-117409654D01*
X87254673Y-117419627D01*
X87285679Y-117445551D01*
X87292598Y-117450579D01*
X87517272Y-117591515D01*
X87524807Y-117595556D01*
X87766520Y-117704694D01*
X87774551Y-117707680D01*
X88028832Y-117783002D01*
X88037184Y-117784869D01*
X88299340Y-117824984D01*
X88307874Y-117825700D01*
X88573045Y-117829867D01*
X88581596Y-117829418D01*
X88844883Y-117797557D01*
X88853284Y-117795955D01*
X89109824Y-117728653D01*
X89117926Y-117725926D01*
X89362949Y-117624434D01*
X89370617Y-117620628D01*
X89599598Y-117486822D01*
X89606679Y-117482009D01*
X89686655Y-117419301D01*
X89695125Y-117407442D01*
X89688608Y-117395818D01*
X88484812Y-116192022D01*
X88470868Y-116184408D01*
X88469035Y-116184539D01*
X88462420Y-116188790D01*
X87254910Y-117396300D01*
X87247618Y-117409654D01*
X64083500Y-117409654D01*
X64083500Y-114651151D01*
X65851296Y-114651151D01*
X65863480Y-114904798D01*
X65913021Y-115153857D01*
X65914600Y-115158255D01*
X65914602Y-115158262D01*
X65959022Y-115281980D01*
X65998831Y-115392858D01*
X66001048Y-115396984D01*
X66030185Y-115451210D01*
X66119025Y-115616551D01*
X66121820Y-115620294D01*
X66121822Y-115620297D01*
X66268171Y-115816282D01*
X66268176Y-115816288D01*
X66270963Y-115820020D01*
X66274272Y-115823300D01*
X66274277Y-115823306D01*
X66372859Y-115921031D01*
X66451307Y-115998797D01*
X66455069Y-116001555D01*
X66455072Y-116001558D01*
X66560764Y-116079054D01*
X66656094Y-116148953D01*
X66660229Y-116151129D01*
X66660233Y-116151131D01*
X66778289Y-116213243D01*
X66880827Y-116267191D01*
X67120568Y-116350912D01*
X67370050Y-116398278D01*
X67490532Y-116403011D01*
X67619125Y-116408064D01*
X67619130Y-116408064D01*
X67623793Y-116408247D01*
X67722774Y-116397407D01*
X67871569Y-116381112D01*
X67871575Y-116381111D01*
X67876222Y-116380602D01*
X67985680Y-116351784D01*
X68117273Y-116317138D01*
X68121793Y-116315948D01*
X68240353Y-116265011D01*
X68350807Y-116217557D01*
X68350810Y-116217555D01*
X68355110Y-116215708D01*
X68359090Y-116213245D01*
X68359094Y-116213243D01*
X68567064Y-116084547D01*
X68567066Y-116084545D01*
X68571047Y-116082082D01*
X68669428Y-115998797D01*
X68761289Y-115921031D01*
X68761291Y-115921029D01*
X68764862Y-115918006D01*
X68865540Y-115803204D01*
X86459665Y-115803204D01*
X86474932Y-116067969D01*
X86476005Y-116076470D01*
X86527065Y-116336722D01*
X86529276Y-116344974D01*
X86615184Y-116595894D01*
X86618499Y-116603779D01*
X86737664Y-116840713D01*
X86742020Y-116848079D01*
X86871347Y-117036250D01*
X86881601Y-117044594D01*
X86895342Y-117037448D01*
X88099978Y-115832812D01*
X88106356Y-115821132D01*
X88836408Y-115821132D01*
X88836539Y-115822965D01*
X88840790Y-115829580D01*
X90047730Y-117036520D01*
X90059939Y-117043187D01*
X90071439Y-117034497D01*
X90168831Y-116901913D01*
X90173418Y-116894685D01*
X90299962Y-116661621D01*
X90303530Y-116653827D01*
X90397271Y-116405750D01*
X90399748Y-116397544D01*
X90458954Y-116139038D01*
X90460294Y-116130577D01*
X90484031Y-115864616D01*
X90484277Y-115859677D01*
X90484666Y-115822485D01*
X90484523Y-115817519D01*
X90483547Y-115803204D01*
X96459665Y-115803204D01*
X96474932Y-116067969D01*
X96476005Y-116076470D01*
X96527065Y-116336722D01*
X96529276Y-116344974D01*
X96615184Y-116595894D01*
X96618499Y-116603779D01*
X96737664Y-116840713D01*
X96742020Y-116848079D01*
X96871347Y-117036250D01*
X96881601Y-117044594D01*
X96895342Y-117037448D01*
X98099978Y-115832812D01*
X98106356Y-115821132D01*
X98836408Y-115821132D01*
X98836539Y-115822965D01*
X98840790Y-115829580D01*
X100047730Y-117036520D01*
X100059939Y-117043187D01*
X100071439Y-117034497D01*
X100168831Y-116901913D01*
X100173418Y-116894685D01*
X100299962Y-116661621D01*
X100303530Y-116653827D01*
X100397271Y-116405750D01*
X100399748Y-116397544D01*
X100458954Y-116139038D01*
X100460294Y-116130577D01*
X100484031Y-115864616D01*
X100484277Y-115859677D01*
X100484666Y-115822485D01*
X100484523Y-115817519D01*
X100466362Y-115551123D01*
X100465201Y-115542649D01*
X100411419Y-115282944D01*
X100409120Y-115274709D01*
X100320588Y-115024705D01*
X100317191Y-115016854D01*
X100195550Y-114781178D01*
X100191122Y-114773866D01*
X100072031Y-114604417D01*
X100061509Y-114596037D01*
X100048121Y-114603089D01*
X98844022Y-115807188D01*
X98836408Y-115821132D01*
X98106356Y-115821132D01*
X98107592Y-115818868D01*
X98107461Y-115817035D01*
X98103210Y-115810420D01*
X96895814Y-114603024D01*
X96883804Y-114596466D01*
X96872064Y-114605434D01*
X96763935Y-114755911D01*
X96759418Y-114763196D01*
X96635325Y-114997567D01*
X96631839Y-115005395D01*
X96540700Y-115254446D01*
X96538311Y-115262670D01*
X96481812Y-115521795D01*
X96480563Y-115530250D01*
X96459754Y-115794653D01*
X96459665Y-115803204D01*
X90483547Y-115803204D01*
X90466362Y-115551123D01*
X90465201Y-115542649D01*
X90411419Y-115282944D01*
X90409120Y-115274709D01*
X90320588Y-115024705D01*
X90317191Y-115016854D01*
X90195550Y-114781178D01*
X90191122Y-114773866D01*
X90072031Y-114604417D01*
X90061509Y-114596037D01*
X90048121Y-114603089D01*
X88844022Y-115807188D01*
X88836408Y-115821132D01*
X88106356Y-115821132D01*
X88107592Y-115818868D01*
X88107461Y-115817035D01*
X88103210Y-115810420D01*
X86895814Y-114603024D01*
X86883804Y-114596466D01*
X86872064Y-114605434D01*
X86763935Y-114755911D01*
X86759418Y-114763196D01*
X86635325Y-114997567D01*
X86631839Y-115005395D01*
X86540700Y-115254446D01*
X86538311Y-115262670D01*
X86481812Y-115521795D01*
X86480563Y-115530250D01*
X86459754Y-115794653D01*
X86459665Y-115803204D01*
X68865540Y-115803204D01*
X68932295Y-115727084D01*
X69069669Y-115513512D01*
X69173967Y-115281980D01*
X69242896Y-115037575D01*
X69274943Y-114785667D01*
X69275532Y-114763196D01*
X69277208Y-114699160D01*
X69277291Y-114696000D01*
X69269894Y-114596466D01*
X69258818Y-114447411D01*
X69258817Y-114447407D01*
X69258472Y-114442759D01*
X69210895Y-114232500D01*
X87248584Y-114232500D01*
X87254980Y-114243770D01*
X88459188Y-115447978D01*
X88473132Y-115455592D01*
X88474965Y-115455461D01*
X88481580Y-115451210D01*
X89688604Y-114244186D01*
X89694985Y-114232500D01*
X97248584Y-114232500D01*
X97254980Y-114243770D01*
X98459188Y-115447978D01*
X98473132Y-115455592D01*
X98474965Y-115455461D01*
X98481580Y-115451210D01*
X99688604Y-114244186D01*
X99695795Y-114231017D01*
X99688473Y-114220780D01*
X99641233Y-114182115D01*
X99634261Y-114177160D01*
X99408122Y-114038582D01*
X99400552Y-114034624D01*
X99157704Y-113928022D01*
X99149644Y-113925120D01*
X98894592Y-113852467D01*
X98886214Y-113850685D01*
X98623656Y-113813318D01*
X98615111Y-113812691D01*
X98349908Y-113811302D01*
X98341374Y-113811839D01*
X98078433Y-113846456D01*
X98070035Y-113848149D01*
X97814238Y-113918127D01*
X97806143Y-113920946D01*
X97562199Y-114024997D01*
X97554577Y-114028881D01*
X97327013Y-114165075D01*
X97319981Y-114169962D01*
X97257053Y-114220377D01*
X97248584Y-114232500D01*
X89694985Y-114232500D01*
X89695795Y-114231017D01*
X89688473Y-114220780D01*
X89641233Y-114182115D01*
X89634261Y-114177160D01*
X89408122Y-114038582D01*
X89400552Y-114034624D01*
X89157704Y-113928022D01*
X89149644Y-113925120D01*
X88894592Y-113852467D01*
X88886214Y-113850685D01*
X88623656Y-113813318D01*
X88615111Y-113812691D01*
X88349908Y-113811302D01*
X88341374Y-113811839D01*
X88078433Y-113846456D01*
X88070035Y-113848149D01*
X87814238Y-113918127D01*
X87806143Y-113920946D01*
X87562199Y-114024997D01*
X87554577Y-114028881D01*
X87327013Y-114165075D01*
X87319981Y-114169962D01*
X87257053Y-114220377D01*
X87248584Y-114232500D01*
X69210895Y-114232500D01*
X69202428Y-114195082D01*
X69200735Y-114190728D01*
X69112084Y-113962762D01*
X69112083Y-113962760D01*
X69110391Y-113958409D01*
X69108073Y-113954353D01*
X68986702Y-113741997D01*
X68986700Y-113741995D01*
X68984383Y-113737940D01*
X68827171Y-113538517D01*
X68642209Y-113364523D01*
X68474442Y-113248139D01*
X68437393Y-113222437D01*
X68437390Y-113222435D01*
X68433561Y-113219779D01*
X68429384Y-113217719D01*
X68429377Y-113217715D01*
X68209996Y-113109528D01*
X68209992Y-113109527D01*
X68205810Y-113107464D01*
X68079148Y-113066919D01*
X68079014Y-113066876D01*
X68020234Y-113027058D01*
X67992312Y-112961783D01*
X68004113Y-112891774D01*
X68051891Y-112839259D01*
X68085349Y-112825026D01*
X68117101Y-112816667D01*
X68125926Y-112813628D01*
X68283478Y-112745938D01*
X84703995Y-112745938D01*
X84717740Y-112955649D01*
X84769471Y-113159343D01*
X84771890Y-113164590D01*
X84855038Y-113344953D01*
X84855041Y-113344958D01*
X84857457Y-113350199D01*
X84860788Y-113354912D01*
X84860789Y-113354914D01*
X84967460Y-113505848D01*
X84978751Y-113521825D01*
X85129289Y-113668474D01*
X85134085Y-113671679D01*
X85134088Y-113671681D01*
X85233252Y-113737940D01*
X85304031Y-113785233D01*
X85309339Y-113787514D01*
X85309340Y-113787514D01*
X85491822Y-113865914D01*
X85491825Y-113865915D01*
X85497125Y-113868192D01*
X85502754Y-113869466D01*
X85502755Y-113869466D01*
X85696467Y-113913299D01*
X85696473Y-113913300D01*
X85702104Y-113914574D01*
X85707875Y-113914801D01*
X85707877Y-113914801D01*
X85771433Y-113917298D01*
X85912103Y-113922825D01*
X86120088Y-113892669D01*
X86125552Y-113890814D01*
X86125557Y-113890813D01*
X86313624Y-113826973D01*
X86313629Y-113826971D01*
X86319096Y-113825115D01*
X86502460Y-113722426D01*
X86664041Y-113588041D01*
X86798426Y-113426460D01*
X86901115Y-113243096D01*
X86902971Y-113237629D01*
X86902973Y-113237624D01*
X86966813Y-113049557D01*
X86966814Y-113049552D01*
X86968669Y-113044088D01*
X86998825Y-112836103D01*
X87000399Y-112776000D01*
X86981169Y-112566721D01*
X86924123Y-112364451D01*
X86831171Y-112175963D01*
X86827715Y-112171335D01*
X86827712Y-112171330D01*
X86760986Y-112081972D01*
X86736254Y-112015423D01*
X86751429Y-111946067D01*
X86772849Y-111917489D01*
X87070933Y-111619405D01*
X87133245Y-111585379D01*
X87160028Y-111582500D01*
X91529570Y-111582500D01*
X91597691Y-111602502D01*
X91642135Y-111651886D01*
X91737233Y-111840968D01*
X91739160Y-111844799D01*
X91741586Y-111848328D01*
X91741589Y-111848334D01*
X91851031Y-112007571D01*
X91894274Y-112070490D01*
X91897161Y-112073663D01*
X91897162Y-112073664D01*
X91935665Y-112115978D01*
X92078582Y-112273043D01*
X92081877Y-112275798D01*
X92081878Y-112275799D01*
X92154508Y-112336527D01*
X92288675Y-112448707D01*
X92292316Y-112450991D01*
X92517024Y-112591951D01*
X92517028Y-112591953D01*
X92520664Y-112594234D01*
X92588544Y-112624883D01*
X92766345Y-112705164D01*
X92766349Y-112705166D01*
X92770257Y-112706930D01*
X92774377Y-112708150D01*
X92774376Y-112708150D01*
X93028723Y-112783491D01*
X93028727Y-112783492D01*
X93032836Y-112784709D01*
X93037070Y-112785357D01*
X93037075Y-112785358D01*
X93299298Y-112825483D01*
X93299300Y-112825483D01*
X93303540Y-112826132D01*
X93442912Y-112828322D01*
X93573071Y-112830367D01*
X93573077Y-112830367D01*
X93577362Y-112830434D01*
X93849235Y-112797534D01*
X94114127Y-112728041D01*
X94118087Y-112726401D01*
X94118092Y-112726399D01*
X94312770Y-112645760D01*
X94367136Y-112623241D01*
X94603582Y-112485073D01*
X94819089Y-112316094D01*
X94860809Y-112273043D01*
X95006686Y-112122509D01*
X95009669Y-112119431D01*
X95012202Y-112115983D01*
X95012206Y-112115978D01*
X95169257Y-111902178D01*
X95171795Y-111898723D01*
X95173841Y-111894955D01*
X95300418Y-111661830D01*
X95300419Y-111661828D01*
X95302468Y-111658054D01*
X95367526Y-111485883D01*
X95397751Y-111405895D01*
X95397752Y-111405891D01*
X95399269Y-111401877D01*
X95460407Y-111134933D01*
X95484751Y-110862161D01*
X95485072Y-110831592D01*
X95485167Y-110822484D01*
X95485167Y-110822483D01*
X95485193Y-110820000D01*
X95476998Y-110699786D01*
X95466859Y-110551055D01*
X95466858Y-110551049D01*
X95466567Y-110546778D01*
X95411032Y-110278612D01*
X95319617Y-110020465D01*
X95217497Y-109822612D01*
X95195978Y-109780919D01*
X95195978Y-109780918D01*
X95194013Y-109777112D01*
X95184040Y-109762921D01*
X95039008Y-109556562D01*
X95036545Y-109553057D01*
X94949381Y-109459257D01*
X94853046Y-109355588D01*
X94853043Y-109355585D01*
X94850125Y-109352445D01*
X94846810Y-109349731D01*
X94846806Y-109349728D01*
X94641523Y-109181706D01*
X94638205Y-109178990D01*
X94404704Y-109035901D01*
X94400768Y-109034173D01*
X94157873Y-108927549D01*
X94157869Y-108927548D01*
X94153945Y-108925825D01*
X93890566Y-108850800D01*
X93886324Y-108850196D01*
X93886318Y-108850195D01*
X93685834Y-108821662D01*
X93619443Y-108812213D01*
X93475589Y-108811460D01*
X93349877Y-108810802D01*
X93349871Y-108810802D01*
X93345591Y-108810780D01*
X93341347Y-108811339D01*
X93341343Y-108811339D01*
X93222302Y-108827011D01*
X93074078Y-108846525D01*
X93069938Y-108847658D01*
X93069936Y-108847658D01*
X92997008Y-108867609D01*
X92809928Y-108918788D01*
X92805980Y-108920472D01*
X92561982Y-109024546D01*
X92561978Y-109024548D01*
X92558030Y-109026232D01*
X92538125Y-109038145D01*
X92326725Y-109164664D01*
X92326721Y-109164667D01*
X92323043Y-109166868D01*
X92109318Y-109338094D01*
X91920808Y-109536742D01*
X91761002Y-109759136D01*
X91758998Y-109762921D01*
X91638523Y-109990459D01*
X91588970Y-110041302D01*
X91527168Y-110057500D01*
X86859376Y-110057500D01*
X86840426Y-110056067D01*
X86826027Y-110053876D01*
X86826021Y-110053876D01*
X86818792Y-110052776D01*
X86811500Y-110053369D01*
X86811497Y-110053369D01*
X86765817Y-110057085D01*
X86755602Y-110057500D01*
X86747475Y-110057500D01*
X86743839Y-110057924D01*
X86743837Y-110057924D01*
X86740385Y-110058327D01*
X86719076Y-110060811D01*
X86714756Y-110061238D01*
X86641574Y-110067191D01*
X86634612Y-110069447D01*
X86628624Y-110070643D01*
X86622667Y-110072051D01*
X86615393Y-110072899D01*
X86608511Y-110075397D01*
X86608507Y-110075398D01*
X86546393Y-110097945D01*
X86542289Y-110099355D01*
X86472425Y-110121987D01*
X86466162Y-110125787D01*
X86460620Y-110128325D01*
X86455144Y-110131067D01*
X86448259Y-110133566D01*
X86442135Y-110137581D01*
X86386868Y-110173815D01*
X86383200Y-110176130D01*
X86320419Y-110214227D01*
X86316214Y-110217941D01*
X86316211Y-110217943D01*
X86311995Y-110221667D01*
X86311969Y-110221638D01*
X86309038Y-110224238D01*
X86305684Y-110227042D01*
X86299565Y-110231054D01*
X86294533Y-110236366D01*
X86246012Y-110287586D01*
X86243634Y-110290028D01*
X85360472Y-111173190D01*
X85346059Y-111185577D01*
X85328436Y-111198546D01*
X85323692Y-111204129D01*
X85323693Y-111204129D01*
X85294021Y-111239055D01*
X85287091Y-111246571D01*
X85281347Y-111252315D01*
X85279073Y-111255189D01*
X85279067Y-111255196D01*
X85263628Y-111274711D01*
X85260837Y-111278115D01*
X85218055Y-111328472D01*
X85218052Y-111328476D01*
X85213316Y-111334051D01*
X85209988Y-111340568D01*
X85206611Y-111345632D01*
X85203384Y-111350856D01*
X85198840Y-111356600D01*
X85195741Y-111363231D01*
X85167768Y-111423082D01*
X85165837Y-111427033D01*
X85132457Y-111492404D01*
X85130716Y-111499519D01*
X85128579Y-111505265D01*
X85126655Y-111511048D01*
X85123556Y-111517679D01*
X85122066Y-111524843D01*
X85108608Y-111589547D01*
X85107639Y-111593829D01*
X85090196Y-111665112D01*
X85089500Y-111676330D01*
X85089461Y-111676328D01*
X85089228Y-111680229D01*
X85088839Y-111684588D01*
X85087348Y-111691756D01*
X85087546Y-111699073D01*
X85089454Y-111769577D01*
X85089500Y-111772986D01*
X85089500Y-111866561D01*
X85069498Y-111934682D01*
X85046577Y-111961293D01*
X85018981Y-111985494D01*
X84888872Y-112150537D01*
X84886181Y-112155653D01*
X84886179Y-112155655D01*
X84793710Y-112331410D01*
X84791018Y-112336527D01*
X84728696Y-112537234D01*
X84728017Y-112542969D01*
X84728017Y-112542970D01*
X84723145Y-112584135D01*
X84703995Y-112745938D01*
X68283478Y-112745938D01*
X68350584Y-112717107D01*
X68358856Y-112712800D01*
X68566777Y-112584135D01*
X68568620Y-112582796D01*
X68576038Y-112571541D01*
X68569974Y-112561184D01*
X67576812Y-111568022D01*
X67562868Y-111560408D01*
X67561035Y-111560539D01*
X67554420Y-111564790D01*
X66562044Y-112557166D01*
X66555386Y-112569359D01*
X66564099Y-112580879D01*
X66652586Y-112645760D01*
X66660505Y-112650708D01*
X66876877Y-112764547D01*
X66885451Y-112768275D01*
X67053608Y-112826998D01*
X67111326Y-112868340D01*
X67137529Y-112934324D01*
X67123900Y-113004000D01*
X67074764Y-113055247D01*
X67047324Y-113066919D01*
X66963993Y-113091208D01*
X66733380Y-113197522D01*
X66729471Y-113200085D01*
X66524928Y-113334189D01*
X66524923Y-113334193D01*
X66521015Y-113336755D01*
X66331562Y-113505848D01*
X66169183Y-113701087D01*
X66037447Y-113918182D01*
X65939246Y-114152365D01*
X65876738Y-114398490D01*
X65851296Y-114651151D01*
X64083500Y-114651151D01*
X64083500Y-111155835D01*
X65852022Y-111155835D01*
X65863754Y-111400064D01*
X65864891Y-111409324D01*
X65912593Y-111649143D01*
X65915082Y-111658118D01*
X65997708Y-111888250D01*
X66001505Y-111896778D01*
X66117234Y-112112160D01*
X66122245Y-112120027D01*
X66179173Y-112196263D01*
X66190431Y-112204712D01*
X66202850Y-112197940D01*
X67191978Y-111208812D01*
X67198356Y-111197132D01*
X67928408Y-111197132D01*
X67928539Y-111198965D01*
X67932790Y-111205580D01*
X68927732Y-112200522D01*
X68940112Y-112207282D01*
X68948453Y-112201038D01*
X69066700Y-112017202D01*
X69071147Y-112009011D01*
X69171572Y-111786076D01*
X69174767Y-111777298D01*
X69241135Y-111541973D01*
X69242993Y-111532844D01*
X69274044Y-111288770D01*
X69274525Y-111282483D01*
X69276706Y-111199160D01*
X69276555Y-111192851D01*
X69258321Y-110947486D01*
X69256944Y-110938280D01*
X69202979Y-110699786D01*
X69200255Y-110690875D01*
X69111633Y-110462983D01*
X69107619Y-110454567D01*
X68986284Y-110242276D01*
X68981074Y-110234553D01*
X68949787Y-110194865D01*
X68937863Y-110186395D01*
X68926328Y-110192882D01*
X67936022Y-111183188D01*
X67928408Y-111197132D01*
X67198356Y-111197132D01*
X67199592Y-111194868D01*
X67199461Y-111193035D01*
X67195210Y-111186420D01*
X66200828Y-110192038D01*
X66187520Y-110184771D01*
X66177481Y-110191893D01*
X66172581Y-110197784D01*
X66167168Y-110205373D01*
X66040322Y-110414409D01*
X66036084Y-110422726D01*
X65941529Y-110648214D01*
X65938572Y-110657052D01*
X65878384Y-110894042D01*
X65876763Y-110903232D01*
X65852267Y-111146510D01*
X65852022Y-111155835D01*
X64083500Y-111155835D01*
X64083500Y-108944134D01*
X65855500Y-108944134D01*
X65862255Y-109006316D01*
X65913385Y-109142705D01*
X66000739Y-109259261D01*
X66117295Y-109346615D01*
X66253684Y-109397745D01*
X66315866Y-109404500D01*
X66795914Y-109404500D01*
X66864035Y-109424502D01*
X66910528Y-109478158D01*
X66920632Y-109548432D01*
X66891138Y-109613012D01*
X66848665Y-109644926D01*
X66737869Y-109696004D01*
X66729714Y-109700524D01*
X66562468Y-109810175D01*
X66553330Y-109820917D01*
X66557903Y-109830693D01*
X67551188Y-110823978D01*
X67565132Y-110831592D01*
X67566965Y-110831461D01*
X67573580Y-110827210D01*
X68566488Y-109834302D01*
X68572872Y-109822612D01*
X68563460Y-109810502D01*
X68437144Y-109722873D01*
X68429116Y-109718145D01*
X68277763Y-109643506D01*
X68225514Y-109595438D01*
X68207547Y-109526752D01*
X68229566Y-109459257D01*
X68284581Y-109414380D01*
X68333491Y-109404500D01*
X68812134Y-109404500D01*
X68874316Y-109397745D01*
X69010705Y-109346615D01*
X69127261Y-109259261D01*
X69214615Y-109142705D01*
X69265745Y-109006316D01*
X69272500Y-108944134D01*
X69272500Y-107409654D01*
X87247618Y-107409654D01*
X87254673Y-107419627D01*
X87285679Y-107445551D01*
X87292598Y-107450579D01*
X87517272Y-107591515D01*
X87524807Y-107595556D01*
X87766520Y-107704694D01*
X87774551Y-107707680D01*
X88028832Y-107783002D01*
X88037184Y-107784869D01*
X88299340Y-107824984D01*
X88307874Y-107825700D01*
X88573045Y-107829867D01*
X88581596Y-107829418D01*
X88844883Y-107797557D01*
X88853284Y-107795955D01*
X89109824Y-107728653D01*
X89117926Y-107725926D01*
X89362949Y-107624434D01*
X89370617Y-107620628D01*
X89599598Y-107486822D01*
X89606679Y-107482009D01*
X89686655Y-107419301D01*
X89693545Y-107409654D01*
X97247618Y-107409654D01*
X97254673Y-107419627D01*
X97285679Y-107445551D01*
X97292598Y-107450579D01*
X97517272Y-107591515D01*
X97524807Y-107595556D01*
X97766520Y-107704694D01*
X97774551Y-107707680D01*
X98028832Y-107783002D01*
X98037184Y-107784869D01*
X98299340Y-107824984D01*
X98307874Y-107825700D01*
X98573045Y-107829867D01*
X98581596Y-107829418D01*
X98844883Y-107797557D01*
X98853284Y-107795955D01*
X99109824Y-107728653D01*
X99117926Y-107725926D01*
X99362949Y-107624434D01*
X99370617Y-107620628D01*
X99599598Y-107486822D01*
X99606679Y-107482009D01*
X99686655Y-107419301D01*
X99695125Y-107407442D01*
X99688608Y-107395818D01*
X98484812Y-106192022D01*
X98470868Y-106184408D01*
X98469035Y-106184539D01*
X98462420Y-106188790D01*
X97254910Y-107396300D01*
X97247618Y-107409654D01*
X89693545Y-107409654D01*
X89695125Y-107407442D01*
X89688608Y-107395818D01*
X88484812Y-106192022D01*
X88470868Y-106184408D01*
X88469035Y-106184539D01*
X88462420Y-106188790D01*
X87254910Y-107396300D01*
X87247618Y-107409654D01*
X69272500Y-107409654D01*
X69272500Y-106447866D01*
X69265745Y-106385684D01*
X69214615Y-106249295D01*
X69127261Y-106132739D01*
X69010705Y-106045385D01*
X68874316Y-105994255D01*
X68812134Y-105987500D01*
X66315866Y-105987500D01*
X66253684Y-105994255D01*
X66117295Y-106045385D01*
X66000739Y-106132739D01*
X65913385Y-106249295D01*
X65862255Y-106385684D01*
X65855500Y-106447866D01*
X65855500Y-108944134D01*
X64083500Y-108944134D01*
X64083500Y-105803204D01*
X86459665Y-105803204D01*
X86474932Y-106067969D01*
X86476005Y-106076470D01*
X86527065Y-106336722D01*
X86529276Y-106344974D01*
X86615184Y-106595894D01*
X86618499Y-106603779D01*
X86737664Y-106840713D01*
X86742020Y-106848079D01*
X86871347Y-107036250D01*
X86881601Y-107044594D01*
X86895342Y-107037448D01*
X88099978Y-105832812D01*
X88106356Y-105821132D01*
X88836408Y-105821132D01*
X88836539Y-105822965D01*
X88840790Y-105829580D01*
X90047730Y-107036520D01*
X90059939Y-107043187D01*
X90071439Y-107034497D01*
X90168831Y-106901913D01*
X90173418Y-106894685D01*
X90299962Y-106661621D01*
X90303530Y-106653827D01*
X90397271Y-106405750D01*
X90399748Y-106397544D01*
X90458954Y-106139038D01*
X90460294Y-106130577D01*
X90484031Y-105864616D01*
X90484277Y-105859677D01*
X90484666Y-105822485D01*
X90484523Y-105817519D01*
X90466362Y-105551123D01*
X90465201Y-105542649D01*
X90411419Y-105282944D01*
X90409120Y-105274709D01*
X90320588Y-105024705D01*
X90317191Y-105016854D01*
X90195550Y-104781178D01*
X90191122Y-104773866D01*
X90072031Y-104604417D01*
X90061509Y-104596037D01*
X90048121Y-104603089D01*
X88844022Y-105807188D01*
X88836408Y-105821132D01*
X88106356Y-105821132D01*
X88107592Y-105818868D01*
X88107461Y-105817035D01*
X88103210Y-105810420D01*
X86895814Y-104603024D01*
X86883804Y-104596466D01*
X86872064Y-104605434D01*
X86763935Y-104755911D01*
X86759418Y-104763196D01*
X86635325Y-104997567D01*
X86631839Y-105005395D01*
X86540700Y-105254446D01*
X86538311Y-105262670D01*
X86481812Y-105521795D01*
X86480563Y-105530250D01*
X86459754Y-105794653D01*
X86459665Y-105803204D01*
X64083500Y-105803204D01*
X64083500Y-103513110D01*
X65435500Y-103513110D01*
X65435580Y-103514681D01*
X65435580Y-103514698D01*
X65435586Y-103514816D01*
X65435823Y-103519486D01*
X65476853Y-103722973D01*
X65556626Y-103914615D01*
X65672104Y-104087113D01*
X65818887Y-104233896D01*
X65991385Y-104349374D01*
X66183027Y-104429147D01*
X66189071Y-104430366D01*
X66189072Y-104430366D01*
X66212352Y-104435060D01*
X66386514Y-104470177D01*
X66391178Y-104470413D01*
X66391184Y-104470414D01*
X66391302Y-104470420D01*
X66391319Y-104470420D01*
X66392890Y-104470500D01*
X67695110Y-104470500D01*
X67696681Y-104470420D01*
X67696698Y-104470420D01*
X67696816Y-104470414D01*
X67696822Y-104470413D01*
X67701486Y-104470177D01*
X67875648Y-104435060D01*
X67898928Y-104430366D01*
X67898929Y-104430366D01*
X67904973Y-104429147D01*
X68096615Y-104349374D01*
X68269113Y-104233896D01*
X68270509Y-104232500D01*
X87248584Y-104232500D01*
X87254980Y-104243770D01*
X88459188Y-105447978D01*
X88473132Y-105455592D01*
X88474965Y-105455461D01*
X88481580Y-105451210D01*
X89688604Y-104244186D01*
X89695795Y-104231017D01*
X89688473Y-104220780D01*
X89641233Y-104182115D01*
X89634261Y-104177160D01*
X89408122Y-104038582D01*
X89400552Y-104034624D01*
X89157704Y-103928022D01*
X89149644Y-103925120D01*
X88894592Y-103852467D01*
X88886214Y-103850685D01*
X88623656Y-103813318D01*
X88615111Y-103812691D01*
X88349908Y-103811302D01*
X88341374Y-103811839D01*
X88078433Y-103846456D01*
X88070035Y-103848149D01*
X87814238Y-103918127D01*
X87806143Y-103920946D01*
X87562199Y-104024997D01*
X87554577Y-104028881D01*
X87327013Y-104165075D01*
X87319981Y-104169962D01*
X87257053Y-104220377D01*
X87248584Y-104232500D01*
X68270509Y-104232500D01*
X68415896Y-104087113D01*
X68531374Y-103914615D01*
X68611147Y-103722973D01*
X68652177Y-103519486D01*
X68652414Y-103514816D01*
X68652420Y-103514698D01*
X68652420Y-103514681D01*
X68652500Y-103513110D01*
X68652500Y-103511460D01*
X96436000Y-103511460D01*
X96436081Y-103514648D01*
X96436086Y-103514766D01*
X96437248Y-103524021D01*
X96476116Y-103716787D01*
X96479702Y-103728514D01*
X96554701Y-103908687D01*
X96560499Y-103919501D01*
X96669061Y-104081669D01*
X96676854Y-104091156D01*
X96814844Y-104229146D01*
X96824330Y-104236939D01*
X96933608Y-104310093D01*
X96979088Y-104364609D01*
X96987875Y-104435060D01*
X96954913Y-104501529D01*
X96924144Y-104533953D01*
X96918694Y-104540542D01*
X96763936Y-104755910D01*
X96759414Y-104763204D01*
X96635325Y-104997567D01*
X96631839Y-105005395D01*
X96540700Y-105254446D01*
X96538311Y-105262670D01*
X96481812Y-105521795D01*
X96480563Y-105530250D01*
X96459754Y-105794653D01*
X96459665Y-105803204D01*
X96474932Y-106067969D01*
X96476005Y-106076470D01*
X96527065Y-106336722D01*
X96529276Y-106344974D01*
X96615184Y-106595894D01*
X96618499Y-106603779D01*
X96737664Y-106840713D01*
X96742020Y-106848079D01*
X96871347Y-107036250D01*
X96881601Y-107044594D01*
X96895342Y-107037448D01*
X98111658Y-105821132D01*
X98836408Y-105821132D01*
X98836539Y-105822965D01*
X98840790Y-105829580D01*
X100047730Y-107036520D01*
X100059939Y-107043187D01*
X100071439Y-107034497D01*
X100168831Y-106901913D01*
X100173418Y-106894685D01*
X100299962Y-106661621D01*
X100303530Y-106653827D01*
X100397271Y-106405750D01*
X100399748Y-106397544D01*
X100458954Y-106139038D01*
X100460294Y-106130577D01*
X100484031Y-105864616D01*
X100484277Y-105859677D01*
X100484666Y-105822485D01*
X100484523Y-105817519D01*
X100466362Y-105551123D01*
X100465201Y-105542649D01*
X100411419Y-105282944D01*
X100409120Y-105274709D01*
X100320588Y-105024705D01*
X100317191Y-105016854D01*
X100195550Y-104781178D01*
X100191122Y-104773866D01*
X100072031Y-104604417D01*
X100061509Y-104596037D01*
X100048121Y-104603089D01*
X98844022Y-105807188D01*
X98836408Y-105821132D01*
X98111658Y-105821132D01*
X99688604Y-104244186D01*
X99695795Y-104231017D01*
X99688473Y-104220780D01*
X99641233Y-104182115D01*
X99634261Y-104177160D01*
X99548080Y-104124348D01*
X99500449Y-104071700D01*
X99488842Y-104001659D01*
X99509210Y-103946823D01*
X99527502Y-103919499D01*
X99533299Y-103908687D01*
X99608298Y-103728514D01*
X99611884Y-103716787D01*
X99650752Y-103524021D01*
X99651914Y-103514766D01*
X99651919Y-103514648D01*
X99652000Y-103511460D01*
X99652000Y-102634115D01*
X99647525Y-102618876D01*
X99646135Y-102617671D01*
X99638452Y-102616000D01*
X96454115Y-102616000D01*
X96438876Y-102620475D01*
X96437671Y-102621865D01*
X96436000Y-102629548D01*
X96436000Y-103511460D01*
X68652500Y-103511460D01*
X68652500Y-102089885D01*
X96436000Y-102089885D01*
X96440475Y-102105124D01*
X96441865Y-102106329D01*
X96449548Y-102108000D01*
X97771885Y-102108000D01*
X97787124Y-102103525D01*
X97788329Y-102102135D01*
X97790000Y-102094452D01*
X97790000Y-102089885D01*
X98298000Y-102089885D01*
X98302475Y-102105124D01*
X98303865Y-102106329D01*
X98311548Y-102108000D01*
X99633885Y-102108000D01*
X99649124Y-102103525D01*
X99650329Y-102102135D01*
X99652000Y-102094452D01*
X99652000Y-101212540D01*
X99651919Y-101209352D01*
X99651914Y-101209234D01*
X99650752Y-101199979D01*
X99611884Y-101007213D01*
X99608298Y-100995486D01*
X99533299Y-100815313D01*
X99527501Y-100804499D01*
X99418939Y-100642331D01*
X99411146Y-100632844D01*
X99273156Y-100494854D01*
X99263669Y-100487061D01*
X99101501Y-100378499D01*
X99090687Y-100372701D01*
X98910514Y-100297702D01*
X98898787Y-100294116D01*
X98706021Y-100255248D01*
X98696766Y-100254086D01*
X98696648Y-100254081D01*
X98693460Y-100254000D01*
X98316115Y-100254000D01*
X98300876Y-100258475D01*
X98299671Y-100259865D01*
X98298000Y-100267548D01*
X98298000Y-102089885D01*
X97790000Y-102089885D01*
X97790000Y-100272115D01*
X97785525Y-100256876D01*
X97784135Y-100255671D01*
X97776452Y-100254000D01*
X97394540Y-100254000D01*
X97391352Y-100254081D01*
X97391234Y-100254086D01*
X97381979Y-100255248D01*
X97189213Y-100294116D01*
X97177486Y-100297702D01*
X96997313Y-100372701D01*
X96986499Y-100378499D01*
X96824331Y-100487061D01*
X96814844Y-100494854D01*
X96676854Y-100632844D01*
X96669061Y-100642331D01*
X96560499Y-100804499D01*
X96554701Y-100815313D01*
X96479702Y-100995486D01*
X96476116Y-101007213D01*
X96437248Y-101199979D01*
X96436086Y-101209234D01*
X96436081Y-101209352D01*
X96436000Y-101212540D01*
X96436000Y-102089885D01*
X68652500Y-102089885D01*
X68652500Y-101210890D01*
X68652417Y-101209234D01*
X68652414Y-101209184D01*
X68652413Y-101209178D01*
X68652177Y-101204514D01*
X68611147Y-101001027D01*
X68531374Y-100809385D01*
X68415896Y-100636887D01*
X68269113Y-100490104D01*
X68096615Y-100374626D01*
X67904973Y-100294853D01*
X67898929Y-100293634D01*
X67898928Y-100293634D01*
X67706074Y-100254748D01*
X67706073Y-100254748D01*
X67701486Y-100253823D01*
X67696822Y-100253587D01*
X67696816Y-100253586D01*
X67696698Y-100253580D01*
X67696681Y-100253580D01*
X67695110Y-100253500D01*
X66392890Y-100253500D01*
X66391319Y-100253580D01*
X66391302Y-100253580D01*
X66391184Y-100253586D01*
X66391178Y-100253587D01*
X66386514Y-100253823D01*
X66381927Y-100254748D01*
X66381926Y-100254748D01*
X66189072Y-100293634D01*
X66189071Y-100293634D01*
X66183027Y-100294853D01*
X65991385Y-100374626D01*
X65818887Y-100490104D01*
X65672104Y-100636887D01*
X65556626Y-100809385D01*
X65476853Y-101001027D01*
X65435823Y-101204514D01*
X65435587Y-101209178D01*
X65435586Y-101209184D01*
X65435584Y-101209234D01*
X65435500Y-101210890D01*
X65435500Y-103513110D01*
X64083500Y-103513110D01*
X64083500Y-92149500D01*
X64103502Y-92081379D01*
X64157158Y-92034886D01*
X64209500Y-92023500D01*
X66042302Y-92023500D01*
X66110423Y-92043502D01*
G37*
%TD.AperFunction*%
%TD*%
M02*
