%TF.GenerationSoftware,KiCad,Pcbnew,6.0.4-6f826c9f35~116~ubuntu18.04.1*%
%TF.CreationDate,2022-05-09T12:51:31-04:00*%
%TF.ProjectId,Instrumentation_ampl_with_batteries,496e7374-7275-46d6-956e-746174696f6e,rev?*%
%TF.SameCoordinates,Original*%
%TF.FileFunction,Soldermask,Top*%
%TF.FilePolarity,Negative*%
%FSLAX46Y46*%
G04 Gerber Fmt 4.6, Leading zero omitted, Abs format (unit mm)*
G04 Created by KiCad (PCBNEW 6.0.4-6f826c9f35~116~ubuntu18.04.1) date 2022-05-09 12:51:31*
%MOMM*%
%LPD*%
G01*
G04 APERTURE LIST*
G04 Aperture macros list*
%AMRoundRect*
0 Rectangle with rounded corners*
0 $1 Rounding radius*
0 $2 $3 $4 $5 $6 $7 $8 $9 X,Y pos of 4 corners*
0 Add a 4 corners polygon primitive as box body*
4,1,4,$2,$3,$4,$5,$6,$7,$8,$9,$2,$3,0*
0 Add four circle primitives for the rounded corners*
1,1,$1+$1,$2,$3*
1,1,$1+$1,$4,$5*
1,1,$1+$1,$6,$7*
1,1,$1+$1,$8,$9*
0 Add four rect primitives between the rounded corners*
20,1,$1+$1,$2,$3,$4,$5,0*
20,1,$1+$1,$4,$5,$6,$7,0*
20,1,$1+$1,$6,$7,$8,$9,0*
20,1,$1+$1,$8,$9,$2,$3,0*%
G04 Aperture macros list end*
%ADD10RoundRect,0.250000X-0.325000X-1.100000X0.325000X-1.100000X0.325000X1.100000X-0.325000X1.100000X0*%
%ADD11R,2.400000X2.400000*%
%ADD12C,2.400000*%
%ADD13R,1.700000X1.700000*%
%ADD14O,1.700000X1.700000*%
%ADD15C,3.000000*%
%ADD16RoundRect,0.237500X-0.300000X-0.237500X0.300000X-0.237500X0.300000X0.237500X-0.300000X0.237500X0*%
%ADD17RoundRect,0.250000X0.337500X0.475000X-0.337500X0.475000X-0.337500X-0.475000X0.337500X-0.475000X0*%
%ADD18RoundRect,0.237500X-0.237500X0.250000X-0.237500X-0.250000X0.237500X-0.250000X0.237500X0.250000X0*%
%ADD19RoundRect,0.237500X0.237500X-0.250000X0.237500X0.250000X-0.237500X0.250000X-0.237500X-0.250000X0*%
%ADD20RoundRect,0.237500X0.237500X-0.300000X0.237500X0.300000X-0.237500X0.300000X-0.237500X-0.300000X0*%
%ADD21RoundRect,0.150000X-0.150000X0.587500X-0.150000X-0.587500X0.150000X-0.587500X0.150000X0.587500X0*%
%ADD22RoundRect,0.237500X-0.237500X0.300000X-0.237500X-0.300000X0.237500X-0.300000X0.237500X0.300000X0*%
%ADD23R,2.000000X0.600000*%
%ADD24RoundRect,0.550000X-0.550000X-1.050000X0.550000X-1.050000X0.550000X1.050000X-0.550000X1.050000X0*%
%ADD25RoundRect,0.550000X0.550000X1.050000X-0.550000X1.050000X-0.550000X-1.050000X0.550000X-1.050000X0*%
G04 APERTURE END LIST*
D10*
%TO.C,C14*%
X73152000Y-124714000D03*
X76102000Y-124714000D03*
%TD*%
%TO.C,C13*%
X73709000Y-97282000D03*
X76659000Y-97282000D03*
%TD*%
%TO.C,C12*%
X71169000Y-114173000D03*
X74119000Y-114173000D03*
%TD*%
%TO.C,C11*%
X71169000Y-117475000D03*
X74119000Y-117475000D03*
%TD*%
%TO.C,C10*%
X73152000Y-121539000D03*
X76102000Y-121539000D03*
%TD*%
%TO.C,C9*%
X76610000Y-100584000D03*
X73660000Y-100584000D03*
%TD*%
%TO.C,C3*%
X71169000Y-107315000D03*
X74119000Y-107315000D03*
%TD*%
%TO.C,C2*%
X71169000Y-104013000D03*
X74119000Y-104013000D03*
%TD*%
D11*
%TO.C,J3*%
X67564000Y-107696000D03*
D12*
X67564000Y-111196000D03*
X67564000Y-114696000D03*
%TD*%
D13*
%TO.C,J1*%
X76200000Y-93726000D03*
D14*
X73660000Y-93726000D03*
%TD*%
D15*
%TO.C,J4*%
X93472000Y-110820000D03*
X98472000Y-115820000D03*
X98472000Y-105820000D03*
X88472000Y-115820000D03*
X88472000Y-105820000D03*
%TD*%
D16*
%TO.C,C4*%
X71323500Y-111887000D03*
X73048500Y-111887000D03*
%TD*%
D17*
%TO.C,C8*%
X80285500Y-106426000D03*
X78210500Y-106426000D03*
%TD*%
D16*
%TO.C,C1*%
X71170000Y-109855000D03*
X72895000Y-109855000D03*
%TD*%
D18*
%TO.C,R5*%
X85852000Y-109681000D03*
X85852000Y-111506000D03*
%TD*%
D19*
%TO.C,R1*%
X74572500Y-111783500D03*
X74572500Y-109958500D03*
%TD*%
D20*
%TO.C,C6*%
X82042000Y-107542500D03*
X82042000Y-105817500D03*
%TD*%
D21*
%TO.C,D1*%
X81788000Y-114935000D03*
X79888000Y-114935000D03*
X80838000Y-116810000D03*
%TD*%
D13*
%TO.C,J2*%
X73401000Y-128270000D03*
D14*
X75941000Y-128270000D03*
%TD*%
D19*
%TO.C,R4*%
X76234500Y-111807000D03*
X76234500Y-109982000D03*
%TD*%
D22*
%TO.C,C5*%
X83820000Y-114580500D03*
X83820000Y-116305500D03*
%TD*%
D18*
%TO.C,R3*%
X76200000Y-113411000D03*
X76200000Y-115236000D03*
%TD*%
D17*
%TO.C,C7*%
X80539500Y-119253000D03*
X78464500Y-119253000D03*
%TD*%
D23*
%TO.C,U1*%
X78301000Y-108966000D03*
X78301000Y-110236000D03*
X78301000Y-111506000D03*
X78301000Y-112776000D03*
X83751000Y-112776000D03*
X83751000Y-111506000D03*
X83751000Y-110236000D03*
X83751000Y-108966000D03*
%TD*%
D18*
%TO.C,R2*%
X76200000Y-106506000D03*
X76200000Y-108331000D03*
%TD*%
D24*
%TO.C,BT1*%
X67044000Y-102362000D03*
X98044000Y-102362000D03*
%TD*%
D25*
%TO.C,BT2*%
X67044000Y-119634000D03*
X98044000Y-119634000D03*
%TD*%
M02*
