%TF.GenerationSoftware,KiCad,Pcbnew,6.0.4-6f826c9f35~116~ubuntu18.04.1*%
%TF.CreationDate,2022-05-09T12:51:31-04:00*%
%TF.ProjectId,Instrumentation_ampl_with_batteries,496e7374-7275-46d6-956e-746174696f6e,rev?*%
%TF.SameCoordinates,Original*%
%TF.FileFunction,Copper,L1,Top*%
%TF.FilePolarity,Positive*%
%FSLAX46Y46*%
G04 Gerber Fmt 4.6, Leading zero omitted, Abs format (unit mm)*
G04 Created by KiCad (PCBNEW 6.0.4-6f826c9f35~116~ubuntu18.04.1) date 2022-05-09 12:51:31*
%MOMM*%
%LPD*%
G01*
G04 APERTURE LIST*
G04 Aperture macros list*
%AMRoundRect*
0 Rectangle with rounded corners*
0 $1 Rounding radius*
0 $2 $3 $4 $5 $6 $7 $8 $9 X,Y pos of 4 corners*
0 Add a 4 corners polygon primitive as box body*
4,1,4,$2,$3,$4,$5,$6,$7,$8,$9,$2,$3,0*
0 Add four circle primitives for the rounded corners*
1,1,$1+$1,$2,$3*
1,1,$1+$1,$4,$5*
1,1,$1+$1,$6,$7*
1,1,$1+$1,$8,$9*
0 Add four rect primitives between the rounded corners*
20,1,$1+$1,$2,$3,$4,$5,0*
20,1,$1+$1,$4,$5,$6,$7,0*
20,1,$1+$1,$6,$7,$8,$9,0*
20,1,$1+$1,$8,$9,$2,$3,0*%
G04 Aperture macros list end*
%TA.AperFunction,SMDPad,CuDef*%
%ADD10RoundRect,0.250000X-0.325000X-1.100000X0.325000X-1.100000X0.325000X1.100000X-0.325000X1.100000X0*%
%TD*%
%TA.AperFunction,ComponentPad*%
%ADD11R,2.400000X2.400000*%
%TD*%
%TA.AperFunction,ComponentPad*%
%ADD12C,2.400000*%
%TD*%
%TA.AperFunction,ComponentPad*%
%ADD13R,1.700000X1.700000*%
%TD*%
%TA.AperFunction,ComponentPad*%
%ADD14O,1.700000X1.700000*%
%TD*%
%TA.AperFunction,ComponentPad*%
%ADD15C,3.000000*%
%TD*%
%TA.AperFunction,SMDPad,CuDef*%
%ADD16RoundRect,0.237500X-0.300000X-0.237500X0.300000X-0.237500X0.300000X0.237500X-0.300000X0.237500X0*%
%TD*%
%TA.AperFunction,SMDPad,CuDef*%
%ADD17RoundRect,0.250000X0.337500X0.475000X-0.337500X0.475000X-0.337500X-0.475000X0.337500X-0.475000X0*%
%TD*%
%TA.AperFunction,SMDPad,CuDef*%
%ADD18RoundRect,0.237500X-0.237500X0.250000X-0.237500X-0.250000X0.237500X-0.250000X0.237500X0.250000X0*%
%TD*%
%TA.AperFunction,SMDPad,CuDef*%
%ADD19RoundRect,0.237500X0.237500X-0.250000X0.237500X0.250000X-0.237500X0.250000X-0.237500X-0.250000X0*%
%TD*%
%TA.AperFunction,SMDPad,CuDef*%
%ADD20RoundRect,0.237500X0.237500X-0.300000X0.237500X0.300000X-0.237500X0.300000X-0.237500X-0.300000X0*%
%TD*%
%TA.AperFunction,SMDPad,CuDef*%
%ADD21RoundRect,0.150000X-0.150000X0.587500X-0.150000X-0.587500X0.150000X-0.587500X0.150000X0.587500X0*%
%TD*%
%TA.AperFunction,SMDPad,CuDef*%
%ADD22RoundRect,0.237500X-0.237500X0.300000X-0.237500X-0.300000X0.237500X-0.300000X0.237500X0.300000X0*%
%TD*%
%TA.AperFunction,SMDPad,CuDef*%
%ADD23R,2.000000X0.600000*%
%TD*%
%TA.AperFunction,ComponentPad*%
%ADD24RoundRect,0.550000X-0.550000X-1.050000X0.550000X-1.050000X0.550000X1.050000X-0.550000X1.050000X0*%
%TD*%
%TA.AperFunction,ComponentPad*%
%ADD25RoundRect,0.550000X0.550000X1.050000X-0.550000X1.050000X-0.550000X-1.050000X0.550000X-1.050000X0*%
%TD*%
%TA.AperFunction,ViaPad*%
%ADD26C,3.175000*%
%TD*%
%TA.AperFunction,ViaPad*%
%ADD27C,1.270000*%
%TD*%
%TA.AperFunction,Conductor*%
%ADD28C,0.508000*%
%TD*%
%TA.AperFunction,Conductor*%
%ADD29C,1.270000*%
%TD*%
G04 APERTURE END LIST*
D10*
%TO.P,C14,1*%
%TO.N,Net-(J3-Pad3)*%
X73152000Y-124714000D03*
%TO.P,C14,2*%
%TO.N,Net-(R1-Pad1)*%
X76102000Y-124714000D03*
%TD*%
%TO.P,C13,1*%
%TO.N,Net-(C1-Pad1)*%
X73709000Y-97282000D03*
%TO.P,C13,2*%
%TO.N,Net-(C1-Pad2)*%
X76659000Y-97282000D03*
%TD*%
%TO.P,C12,1*%
%TO.N,Net-(J3-Pad3)*%
X71169000Y-114173000D03*
%TO.P,C12,2*%
%TO.N,Net-(R1-Pad1)*%
X74119000Y-114173000D03*
%TD*%
%TO.P,C11,1*%
%TO.N,Net-(J3-Pad3)*%
X71169000Y-117475000D03*
%TO.P,C11,2*%
%TO.N,Net-(R1-Pad1)*%
X74119000Y-117475000D03*
%TD*%
%TO.P,C10,1*%
%TO.N,Net-(J3-Pad3)*%
X73152000Y-121539000D03*
%TO.P,C10,2*%
%TO.N,Net-(R1-Pad1)*%
X76102000Y-121539000D03*
%TD*%
%TO.P,C9,2*%
%TO.N,Net-(C1-Pad2)*%
X76610000Y-100584000D03*
%TO.P,C9,1*%
%TO.N,Net-(C1-Pad1)*%
X73660000Y-100584000D03*
%TD*%
%TO.P,C3,1*%
%TO.N,Net-(C1-Pad1)*%
X71169000Y-107315000D03*
%TO.P,C3,2*%
%TO.N,Net-(C1-Pad2)*%
X74119000Y-107315000D03*
%TD*%
%TO.P,C2,1*%
%TO.N,Net-(C1-Pad1)*%
X71169000Y-104013000D03*
%TO.P,C2,2*%
%TO.N,Net-(C1-Pad2)*%
X74119000Y-104013000D03*
%TD*%
D11*
%TO.P,J3,1,Pin_1*%
%TO.N,Net-(C1-Pad1)*%
X67564000Y-107696000D03*
D12*
%TO.P,J3,2,Pin_2*%
%TO.N,GND*%
X67564000Y-111196000D03*
%TO.P,J3,3,Pin_3*%
%TO.N,Net-(J3-Pad3)*%
X67564000Y-114696000D03*
%TD*%
D13*
%TO.P,J1,1,Pin_1*%
%TO.N,+12V*%
X76200000Y-93726000D03*
D14*
%TO.P,J1,2,Pin_2*%
%TO.N,Net-(BT1-Pad1)*%
X73660000Y-93726000D03*
%TD*%
D15*
%TO.P,J4,1,In*%
%TO.N,Net-(J4-Pad1)*%
X93472000Y-110820000D03*
%TO.P,J4,2,Ext*%
%TO.N,GND*%
X98472000Y-115820000D03*
X98472000Y-105820000D03*
X88472000Y-115820000D03*
X88472000Y-105820000D03*
%TD*%
D16*
%TO.P,C4,1*%
%TO.N,Net-(J3-Pad3)*%
X71323500Y-111887000D03*
%TO.P,C4,2*%
%TO.N,Net-(R1-Pad1)*%
X73048500Y-111887000D03*
%TD*%
D17*
%TO.P,C8,1*%
%TO.N,+12V*%
X80285500Y-106426000D03*
%TO.P,C8,2*%
%TO.N,GND*%
X78210500Y-106426000D03*
%TD*%
D16*
%TO.P,C1,1*%
%TO.N,Net-(C1-Pad1)*%
X71170000Y-109855000D03*
%TO.P,C1,2*%
%TO.N,Net-(C1-Pad2)*%
X72895000Y-109855000D03*
%TD*%
D18*
%TO.P,R5,1*%
%TO.N,Net-(R5-Pad1)*%
X85852000Y-109681000D03*
%TO.P,R5,2*%
%TO.N,Net-(J4-Pad1)*%
X85852000Y-111506000D03*
%TD*%
D19*
%TO.P,R1,1*%
%TO.N,Net-(R1-Pad1)*%
X74572500Y-111783500D03*
%TO.P,R1,2*%
%TO.N,Net-(C1-Pad2)*%
X74572500Y-109958500D03*
%TD*%
D20*
%TO.P,C6,1*%
%TO.N,+12V*%
X82042000Y-107542500D03*
%TO.P,C6,2*%
%TO.N,GND*%
X82042000Y-105817500D03*
%TD*%
D21*
%TO.P,D1,1,K*%
%TO.N,-12V*%
X81788000Y-114935000D03*
%TO.P,D1,2,A*%
%TO.N,+12V*%
X79888000Y-114935000D03*
%TO.P,D1,3,K*%
%TO.N,GND*%
X80838000Y-116810000D03*
%TD*%
D13*
%TO.P,J2,1,Pin_1*%
%TO.N,Net-(BT2-Pad2)*%
X73401000Y-128270000D03*
D14*
%TO.P,J2,2,Pin_2*%
%TO.N,-12V*%
X75941000Y-128270000D03*
%TD*%
D19*
%TO.P,R4,1*%
%TO.N,Net-(R4-Pad1)*%
X76234500Y-111807000D03*
%TO.P,R4,2*%
%TO.N,Net-(R4-Pad2)*%
X76234500Y-109982000D03*
%TD*%
D22*
%TO.P,C5,1*%
%TO.N,-12V*%
X83820000Y-114580500D03*
%TO.P,C5,2*%
%TO.N,GND*%
X83820000Y-116305500D03*
%TD*%
D18*
%TO.P,R3,1*%
%TO.N,Net-(R1-Pad1)*%
X76200000Y-113411000D03*
%TO.P,R3,2*%
%TO.N,GND*%
X76200000Y-115236000D03*
%TD*%
D17*
%TO.P,C7,1*%
%TO.N,-12V*%
X80539500Y-119253000D03*
%TO.P,C7,2*%
%TO.N,GND*%
X78464500Y-119253000D03*
%TD*%
D23*
%TO.P,U1,1,-*%
%TO.N,Net-(C1-Pad2)*%
X78301000Y-108966000D03*
%TO.P,U1,2,Rg*%
%TO.N,Net-(R4-Pad2)*%
X78301000Y-110236000D03*
%TO.P,U1,3,Rg*%
%TO.N,Net-(R4-Pad1)*%
X78301000Y-111506000D03*
%TO.P,U1,4,+*%
%TO.N,Net-(R1-Pad1)*%
X78301000Y-112776000D03*
%TO.P,U1,5,Vs-*%
%TO.N,-12V*%
X83751000Y-112776000D03*
%TO.P,U1,6,Ref*%
%TO.N,GND*%
X83751000Y-111506000D03*
%TO.P,U1,7*%
%TO.N,Net-(R5-Pad1)*%
X83751000Y-110236000D03*
%TO.P,U1,8,Vs+*%
%TO.N,+12V*%
X83751000Y-108966000D03*
%TD*%
D18*
%TO.P,R2,1*%
%TO.N,GND*%
X76200000Y-106506000D03*
%TO.P,R2,2*%
%TO.N,Net-(C1-Pad2)*%
X76200000Y-108331000D03*
%TD*%
D24*
%TO.P,BT1,1,+*%
%TO.N,Net-(BT1-Pad1)*%
X67044000Y-102362000D03*
%TO.P,BT1,2,-*%
%TO.N,GND*%
X98044000Y-102362000D03*
%TD*%
D25*
%TO.P,BT2,2,-*%
%TO.N,Net-(BT2-Pad2)*%
X67044000Y-119634000D03*
%TO.P,BT2,1,+*%
%TO.N,GND*%
X98044000Y-119634000D03*
%TD*%
D26*
%TO.N,*%
X97790000Y-128270000D03*
X67310000Y-128270000D03*
X67310000Y-93980000D03*
X97790000Y-93980000D03*
D27*
%TO.N,GND*%
X76708000Y-105156000D03*
X65024000Y-111252000D03*
X82042000Y-104394000D03*
X81788000Y-111506000D03*
X77724000Y-116713000D03*
%TO.N,Net-(J4-Pad1)*%
X85852000Y-112776000D03*
%TD*%
D28*
%TO.N,+12V*%
X84836000Y-106680000D02*
X84836000Y-94996000D01*
X82042000Y-107542500D02*
X83973500Y-107542500D01*
X83973500Y-107542500D02*
X84836000Y-106680000D01*
X76454000Y-93472000D02*
X76200000Y-93726000D01*
X84836000Y-94996000D02*
X83312000Y-93472000D01*
%TO.N,Net-(BT1-Pad1)*%
X71882000Y-94234000D02*
X71882000Y-99568000D01*
X72390000Y-93726000D02*
X71882000Y-94234000D01*
%TO.N,+12V*%
X83312000Y-93472000D02*
X76454000Y-93472000D01*
%TO.N,Net-(BT1-Pad1)*%
X73660000Y-93726000D02*
X72390000Y-93726000D01*
X71882000Y-99568000D02*
X69088000Y-102362000D01*
X69088000Y-102362000D02*
X67044000Y-102362000D01*
%TO.N,-12V*%
X81280000Y-128270000D02*
X75941000Y-128270000D01*
%TO.N,Net-(C1-Pad1)*%
X71169000Y-104013000D02*
X71374000Y-103808000D01*
X71374000Y-103808000D02*
X71374000Y-102108000D01*
X71374000Y-102108000D02*
X72898000Y-100584000D01*
X72898000Y-100584000D02*
X73660000Y-100584000D01*
%TO.N,Net-(C1-Pad2)*%
X74119000Y-104013000D02*
X75311000Y-104013000D01*
X75311000Y-104013000D02*
X76610000Y-102714000D01*
X76610000Y-102714000D02*
X76610000Y-100584000D01*
%TO.N,Net-(BT2-Pad2)*%
X73401000Y-128270000D02*
X73152000Y-128270000D01*
X73152000Y-128270000D02*
X71882000Y-127000000D01*
X71882000Y-127000000D02*
X71882000Y-123444000D01*
X71882000Y-123444000D02*
X68072000Y-119634000D01*
X68072000Y-119634000D02*
X67044000Y-119634000D01*
%TO.N,Net-(J3-Pad3)*%
X71169000Y-117475000D02*
X71169000Y-120699000D01*
X71169000Y-120699000D02*
X72009000Y-121539000D01*
X72009000Y-121539000D02*
X73152000Y-121539000D01*
%TO.N,Net-(R1-Pad1)*%
X74119000Y-117475000D02*
X75057000Y-117475000D01*
X75057000Y-117475000D02*
X76102000Y-118520000D01*
X76102000Y-118520000D02*
X76102000Y-121539000D01*
%TO.N,Net-(C1-Pad2)*%
X74119000Y-104013000D02*
X74246000Y-103886000D01*
%TO.N,Net-(R1-Pad1)*%
X76102000Y-121539000D02*
X76102000Y-124714000D01*
%TO.N,Net-(J3-Pad3)*%
X73152000Y-121539000D02*
X73152000Y-124714000D01*
%TO.N,Net-(C1-Pad2)*%
X76610000Y-100584000D02*
X76610000Y-97331000D01*
X76610000Y-97331000D02*
X76659000Y-97282000D01*
%TO.N,Net-(C1-Pad1)*%
X73660000Y-100584000D02*
X73660000Y-97331000D01*
X73660000Y-97331000D02*
X73709000Y-97282000D01*
X71169000Y-107315000D02*
X67945000Y-107315000D01*
X67945000Y-107315000D02*
X67564000Y-107696000D01*
%TO.N,Net-(J3-Pad3)*%
X71169000Y-114173000D02*
X70739000Y-114173000D01*
X70739000Y-114173000D02*
X70216000Y-114696000D01*
X70216000Y-114696000D02*
X67564000Y-114696000D01*
D29*
X67564000Y-114696000D02*
X64882000Y-114696000D01*
X64882000Y-114696000D02*
X64210020Y-115367980D01*
X64210020Y-115367980D02*
X64210020Y-120650000D01*
%TO.N,Net-(C1-Pad1)*%
X67564000Y-107696000D02*
X64770000Y-107696000D01*
X64770000Y-107696000D02*
X64210020Y-107136020D01*
X64210020Y-107136020D02*
X64210020Y-101854000D01*
D28*
%TO.N,-12V*%
X81788000Y-127762000D02*
X81280000Y-128270000D01*
X81788000Y-119126000D02*
X81788000Y-127762000D01*
%TO.N,Net-(R5-Pad1)*%
X85852000Y-109681000D02*
X85645000Y-109681000D01*
X85645000Y-109681000D02*
X85090000Y-110236000D01*
X85090000Y-110236000D02*
X83751000Y-110236000D01*
%TO.N,+12V*%
X79888000Y-114935000D02*
X79888000Y-113914000D01*
X81026000Y-108966000D02*
X82296000Y-108966000D01*
X79888000Y-113914000D02*
X80264000Y-113538000D01*
X80264000Y-109728000D02*
X81026000Y-108966000D01*
X80264000Y-113538000D02*
X80264000Y-109728000D01*
X82296000Y-108966000D02*
X83751000Y-108966000D01*
X82042000Y-107542500D02*
X80618500Y-107542500D01*
X80618500Y-107542500D02*
X80285500Y-107209500D01*
X80285500Y-107209500D02*
X80285500Y-106426000D01*
X82042000Y-108712000D02*
X82296000Y-108966000D01*
X82042000Y-107542500D02*
X82042000Y-108712000D01*
%TO.N,-12V*%
X81788000Y-114935000D02*
X81788000Y-119126000D01*
X81788000Y-119126000D02*
X81534000Y-119380000D01*
X81534000Y-119380000D02*
X80666500Y-119380000D01*
X80666500Y-119380000D02*
X80539500Y-119253000D01*
%TO.N,Net-(J4-Pad1)*%
X85852000Y-111506000D02*
X85852000Y-112776000D01*
%TO.N,Net-(R1-Pad1)*%
X74119000Y-114173000D02*
X74119000Y-117475000D01*
%TO.N,Net-(J3-Pad3)*%
X71169000Y-114173000D02*
X71169000Y-117475000D01*
%TO.N,Net-(C1-Pad1)*%
X71169000Y-107315000D02*
X71169000Y-104013000D01*
%TO.N,Net-(C1-Pad2)*%
X74119000Y-107315000D02*
X74119000Y-104013000D01*
X74572500Y-109958500D02*
X74572500Y-107768500D01*
X74572500Y-107768500D02*
X74119000Y-107315000D01*
X76200000Y-108331000D02*
X75135000Y-108331000D01*
X75135000Y-108331000D02*
X74119000Y-107315000D01*
X78301000Y-108966000D02*
X76835000Y-108966000D01*
X76835000Y-108966000D02*
X76200000Y-108331000D01*
%TO.N,Net-(R1-Pad1)*%
X76835000Y-112776000D02*
X76200000Y-113411000D01*
X74572500Y-111783500D02*
X74572500Y-113719500D01*
X74572500Y-113719500D02*
X74119000Y-114173000D01*
X76200000Y-113411000D02*
X74881000Y-113411000D01*
X74881000Y-113411000D02*
X74119000Y-114173000D01*
%TO.N,-12V*%
X81788000Y-114935000D02*
X82296000Y-114427000D01*
X83820000Y-112845000D02*
X83751000Y-112776000D01*
X83820000Y-114580500D02*
X83820000Y-112845000D01*
X82296000Y-114427000D02*
X83666500Y-114427000D01*
X83666500Y-114427000D02*
X83820000Y-114580500D01*
%TO.N,Net-(C1-Pad1)*%
X71323500Y-107823000D02*
X71323500Y-109701500D01*
X71323500Y-109701500D02*
X71170000Y-109855000D01*
%TO.N,Net-(C1-Pad2)*%
X74572500Y-109958500D02*
X72998500Y-109958500D01*
X72998500Y-109958500D02*
X72895000Y-109855000D01*
%TO.N,Net-(J3-Pad3)*%
X71273500Y-113665000D02*
X71273500Y-111937000D01*
X71273500Y-111937000D02*
X71323500Y-111887000D01*
%TO.N,Net-(R1-Pad1)*%
X74676000Y-111887000D02*
X74572500Y-111783500D01*
X78301000Y-112776000D02*
X76835000Y-112776000D01*
X74168000Y-111887000D02*
X73048500Y-111887000D01*
X74572500Y-111783500D02*
X74271500Y-111783500D01*
X74271500Y-111783500D02*
X74168000Y-111887000D01*
%TO.N,Net-(R4-Pad1)*%
X78301000Y-111506000D02*
X76535500Y-111506000D01*
X76535500Y-111506000D02*
X76234500Y-111807000D01*
%TO.N,Net-(R4-Pad2)*%
X78301000Y-110236000D02*
X76488500Y-110236000D01*
X76488500Y-110236000D02*
X76234500Y-109982000D01*
%TD*%
%TA.AperFunction,Conductor*%
%TO.N,GND*%
G36*
X66110423Y-92043502D02*
G01*
X66156916Y-92097158D01*
X66167020Y-92167432D01*
X66137526Y-92232012D01*
X66114356Y-92252834D01*
X66110989Y-92254849D01*
X65887953Y-92433535D01*
X65885009Y-92436637D01*
X65885005Y-92436641D01*
X65709002Y-92622109D01*
X65691230Y-92640837D01*
X65524462Y-92872920D01*
X65390734Y-93125488D01*
X65292521Y-93393868D01*
X65231640Y-93673094D01*
X65209217Y-93958000D01*
X65225668Y-94243312D01*
X65226493Y-94247517D01*
X65226494Y-94247525D01*
X65237648Y-94304377D01*
X65280688Y-94523752D01*
X65282075Y-94527802D01*
X65282076Y-94527807D01*
X65371871Y-94790075D01*
X65373260Y-94794131D01*
X65398966Y-94845242D01*
X65499141Y-95044417D01*
X65501669Y-95049444D01*
X65663540Y-95284968D01*
X65666421Y-95288134D01*
X65848405Y-95488132D01*
X65855878Y-95496345D01*
X65859166Y-95499094D01*
X66071831Y-95676910D01*
X66071836Y-95676914D01*
X66075123Y-95679662D01*
X66196171Y-95755596D01*
X66313579Y-95829246D01*
X66313583Y-95829248D01*
X66317219Y-95831529D01*
X66577686Y-95949134D01*
X66581805Y-95950354D01*
X66847590Y-96029084D01*
X66847595Y-96029085D01*
X66851703Y-96030302D01*
X66855937Y-96030950D01*
X66855942Y-96030951D01*
X67129959Y-96072881D01*
X67129961Y-96072881D01*
X67134201Y-96073530D01*
X67279688Y-96075816D01*
X67415662Y-96077952D01*
X67415668Y-96077952D01*
X67419953Y-96078019D01*
X67703669Y-96043685D01*
X67980101Y-95971165D01*
X67984061Y-95969525D01*
X67984066Y-95969523D01*
X68236400Y-95865002D01*
X68244133Y-95861799D01*
X68261204Y-95851824D01*
X68487182Y-95719773D01*
X68487183Y-95719773D01*
X68490880Y-95717612D01*
X68560958Y-95662664D01*
X68712403Y-95543915D01*
X68715775Y-95541271D01*
X68914658Y-95336041D01*
X69083847Y-95105717D01*
X69220212Y-94854563D01*
X69304844Y-94630592D01*
X69319713Y-94591244D01*
X69319714Y-94591240D01*
X69321231Y-94587226D01*
X69352920Y-94448861D01*
X69384074Y-94312837D01*
X69384075Y-94312833D01*
X69385032Y-94308653D01*
X69386485Y-94292379D01*
X69410217Y-94026463D01*
X69410437Y-94023998D01*
X69410898Y-93980000D01*
X69405515Y-93901033D01*
X69391752Y-93699152D01*
X69391751Y-93699146D01*
X69391460Y-93694875D01*
X69386083Y-93668908D01*
X69334375Y-93419224D01*
X69333506Y-93415027D01*
X69238109Y-93145633D01*
X69152051Y-92978899D01*
X69108998Y-92895485D01*
X69108998Y-92895484D01*
X69107033Y-92891678D01*
X69101376Y-92883628D01*
X68945171Y-92661372D01*
X68945170Y-92661371D01*
X68942704Y-92657862D01*
X68748164Y-92448511D01*
X68719910Y-92425385D01*
X68530329Y-92270216D01*
X68527011Y-92267500D01*
X68523351Y-92265257D01*
X68509768Y-92256933D01*
X68462136Y-92204286D01*
X68450529Y-92134244D01*
X68478632Y-92069047D01*
X68537522Y-92029392D01*
X68575602Y-92023500D01*
X96522302Y-92023500D01*
X96590423Y-92043502D01*
X96636916Y-92097158D01*
X96647020Y-92167432D01*
X96617526Y-92232012D01*
X96594356Y-92252834D01*
X96590989Y-92254849D01*
X96367953Y-92433535D01*
X96365009Y-92436637D01*
X96365005Y-92436641D01*
X96189002Y-92622109D01*
X96171230Y-92640837D01*
X96004462Y-92872920D01*
X95870734Y-93125488D01*
X95772521Y-93393868D01*
X95711640Y-93673094D01*
X95689217Y-93958000D01*
X95705668Y-94243312D01*
X95706493Y-94247517D01*
X95706494Y-94247525D01*
X95717648Y-94304377D01*
X95760688Y-94523752D01*
X95762075Y-94527802D01*
X95762076Y-94527807D01*
X95851871Y-94790075D01*
X95853260Y-94794131D01*
X95878966Y-94845242D01*
X95979141Y-95044417D01*
X95981669Y-95049444D01*
X96143540Y-95284968D01*
X96146421Y-95288134D01*
X96328405Y-95488132D01*
X96335878Y-95496345D01*
X96339166Y-95499094D01*
X96551831Y-95676910D01*
X96551836Y-95676914D01*
X96555123Y-95679662D01*
X96676171Y-95755596D01*
X96793579Y-95829246D01*
X96793583Y-95829248D01*
X96797219Y-95831529D01*
X97057686Y-95949134D01*
X97061805Y-95950354D01*
X97327590Y-96029084D01*
X97327595Y-96029085D01*
X97331703Y-96030302D01*
X97335937Y-96030950D01*
X97335942Y-96030951D01*
X97609959Y-96072881D01*
X97609961Y-96072881D01*
X97614201Y-96073530D01*
X97759688Y-96075816D01*
X97895662Y-96077952D01*
X97895668Y-96077952D01*
X97899953Y-96078019D01*
X98183669Y-96043685D01*
X98460101Y-95971165D01*
X98464061Y-95969525D01*
X98464066Y-95969523D01*
X98716400Y-95865002D01*
X98724133Y-95861799D01*
X98741204Y-95851824D01*
X98967182Y-95719773D01*
X98967183Y-95719773D01*
X98970880Y-95717612D01*
X99040958Y-95662664D01*
X99192403Y-95543915D01*
X99195775Y-95541271D01*
X99394658Y-95336041D01*
X99563847Y-95105717D01*
X99700212Y-94854563D01*
X99784844Y-94630592D01*
X99799713Y-94591244D01*
X99799714Y-94591240D01*
X99801231Y-94587226D01*
X99832920Y-94448861D01*
X99864074Y-94312837D01*
X99864075Y-94312833D01*
X99865032Y-94308653D01*
X99866485Y-94292379D01*
X99890217Y-94026463D01*
X99890437Y-94023998D01*
X99890898Y-93980000D01*
X99885515Y-93901033D01*
X99871752Y-93699152D01*
X99871751Y-93699146D01*
X99871460Y-93694875D01*
X99866083Y-93668908D01*
X99814375Y-93419224D01*
X99813506Y-93415027D01*
X99718109Y-93145633D01*
X99632051Y-92978899D01*
X99588998Y-92895485D01*
X99588998Y-92895484D01*
X99587033Y-92891678D01*
X99581376Y-92883628D01*
X99425171Y-92661372D01*
X99425170Y-92661371D01*
X99422704Y-92657862D01*
X99228164Y-92448511D01*
X99199910Y-92425385D01*
X99010329Y-92270216D01*
X99007011Y-92267500D01*
X99003351Y-92265257D01*
X98989768Y-92256933D01*
X98942136Y-92204286D01*
X98930529Y-92134244D01*
X98958632Y-92069047D01*
X99017522Y-92029392D01*
X99055602Y-92023500D01*
X100890500Y-92023500D01*
X100958621Y-92043502D01*
X101005114Y-92097158D01*
X101016500Y-92149500D01*
X101016500Y-130100500D01*
X100996498Y-130168621D01*
X100942842Y-130215114D01*
X100890500Y-130226500D01*
X99056618Y-130226500D01*
X98988497Y-130206498D01*
X98942004Y-130152842D01*
X98931900Y-130082568D01*
X98961394Y-130017988D01*
X98978871Y-130001346D01*
X99016373Y-129971941D01*
X99195775Y-129831271D01*
X99394658Y-129626041D01*
X99563847Y-129395717D01*
X99695366Y-129153489D01*
X99698162Y-129148339D01*
X99698163Y-129148337D01*
X99700212Y-129144563D01*
X99758381Y-128990625D01*
X99799713Y-128881244D01*
X99799714Y-128881240D01*
X99801231Y-128877226D01*
X99865032Y-128598653D01*
X99890437Y-128313998D01*
X99890898Y-128270000D01*
X99890729Y-128267520D01*
X99871752Y-127989152D01*
X99871751Y-127989146D01*
X99871460Y-127984875D01*
X99866083Y-127958908D01*
X99823326Y-127752444D01*
X99813506Y-127705027D01*
X99723062Y-127449621D01*
X99719540Y-127439674D01*
X99718109Y-127435633D01*
X99587033Y-127181678D01*
X99581142Y-127173295D01*
X99425171Y-126951372D01*
X99425170Y-126951371D01*
X99422704Y-126947862D01*
X99228164Y-126738511D01*
X99212003Y-126725283D01*
X99056043Y-126597632D01*
X99007011Y-126557500D01*
X98763338Y-126408177D01*
X98740351Y-126398086D01*
X98505590Y-126295033D01*
X98501654Y-126293305D01*
X98226801Y-126215012D01*
X97943866Y-126174744D01*
X97793949Y-126173959D01*
X97662371Y-126173270D01*
X97662365Y-126173270D01*
X97658084Y-126173248D01*
X97653840Y-126173807D01*
X97653836Y-126173807D01*
X97529652Y-126190156D01*
X97374742Y-126210550D01*
X97370602Y-126211683D01*
X97370600Y-126211683D01*
X97354140Y-126216186D01*
X97099085Y-126285962D01*
X96836212Y-126398086D01*
X96832531Y-126400289D01*
X96594671Y-126542645D01*
X96594667Y-126542648D01*
X96590989Y-126544849D01*
X96587646Y-126547527D01*
X96587642Y-126547530D01*
X96556884Y-126572172D01*
X96367953Y-126723535D01*
X96365009Y-126726637D01*
X96365005Y-126726641D01*
X96183979Y-126917402D01*
X96171230Y-126930837D01*
X96004462Y-127162920D01*
X95870734Y-127415488D01*
X95772521Y-127683868D01*
X95711640Y-127963094D01*
X95689217Y-128248000D01*
X95705668Y-128533312D01*
X95706493Y-128537517D01*
X95706494Y-128537525D01*
X95717648Y-128594377D01*
X95760688Y-128813752D01*
X95762075Y-128817802D01*
X95762076Y-128817807D01*
X95836073Y-129033933D01*
X95853260Y-129084131D01*
X95895509Y-129168134D01*
X95936373Y-129249382D01*
X95981669Y-129339444D01*
X96051395Y-129440896D01*
X96136847Y-129565229D01*
X96143540Y-129574968D01*
X96335878Y-129786345D01*
X96339166Y-129789094D01*
X96551831Y-129966910D01*
X96551836Y-129966914D01*
X96555123Y-129969662D01*
X96593545Y-129993764D01*
X96640621Y-130046906D01*
X96651493Y-130117066D01*
X96622709Y-130181965D01*
X96563406Y-130221000D01*
X96526587Y-130226500D01*
X68576618Y-130226500D01*
X68508497Y-130206498D01*
X68462004Y-130152842D01*
X68451900Y-130082568D01*
X68481394Y-130017988D01*
X68498871Y-130001346D01*
X68536373Y-129971941D01*
X68715775Y-129831271D01*
X68914658Y-129626041D01*
X69083847Y-129395717D01*
X69215366Y-129153489D01*
X69218162Y-129148339D01*
X69218163Y-129148337D01*
X69220212Y-129144563D01*
X69278381Y-128990625D01*
X69319713Y-128881244D01*
X69319714Y-128881240D01*
X69321231Y-128877226D01*
X69385032Y-128598653D01*
X69410437Y-128313998D01*
X69410898Y-128270000D01*
X69410729Y-128267520D01*
X69391752Y-127989152D01*
X69391751Y-127989146D01*
X69391460Y-127984875D01*
X69386083Y-127958908D01*
X69343326Y-127752444D01*
X69333506Y-127705027D01*
X69243062Y-127449621D01*
X69239540Y-127439674D01*
X69238109Y-127435633D01*
X69107033Y-127181678D01*
X69101142Y-127173295D01*
X68945171Y-126951372D01*
X68945170Y-126951371D01*
X68942704Y-126947862D01*
X68748164Y-126738511D01*
X68732003Y-126725283D01*
X68576043Y-126597632D01*
X68527011Y-126557500D01*
X68283338Y-126408177D01*
X68260351Y-126398086D01*
X68025590Y-126295033D01*
X68021654Y-126293305D01*
X67746801Y-126215012D01*
X67463866Y-126174744D01*
X67313949Y-126173959D01*
X67182371Y-126173270D01*
X67182365Y-126173270D01*
X67178084Y-126173248D01*
X67173840Y-126173807D01*
X67173836Y-126173807D01*
X67049652Y-126190156D01*
X66894742Y-126210550D01*
X66890602Y-126211683D01*
X66890600Y-126211683D01*
X66874140Y-126216186D01*
X66619085Y-126285962D01*
X66356212Y-126398086D01*
X66352531Y-126400289D01*
X66114671Y-126542645D01*
X66114667Y-126542648D01*
X66110989Y-126544849D01*
X66107646Y-126547527D01*
X66107642Y-126547530D01*
X66076884Y-126572172D01*
X65887953Y-126723535D01*
X65885009Y-126726637D01*
X65885005Y-126726641D01*
X65703979Y-126917402D01*
X65691230Y-126930837D01*
X65524462Y-127162920D01*
X65390734Y-127415488D01*
X65292521Y-127683868D01*
X65231640Y-127963094D01*
X65209217Y-128248000D01*
X65225668Y-128533312D01*
X65226493Y-128537517D01*
X65226494Y-128537525D01*
X65237648Y-128594377D01*
X65280688Y-128813752D01*
X65282075Y-128817802D01*
X65282076Y-128817807D01*
X65356073Y-129033933D01*
X65373260Y-129084131D01*
X65415509Y-129168134D01*
X65456373Y-129249382D01*
X65501669Y-129339444D01*
X65571395Y-129440896D01*
X65656847Y-129565229D01*
X65663540Y-129574968D01*
X65855878Y-129786345D01*
X65859166Y-129789094D01*
X66071831Y-129966910D01*
X66071836Y-129966914D01*
X66075123Y-129969662D01*
X66113545Y-129993764D01*
X66160621Y-130046906D01*
X66171493Y-130117066D01*
X66142709Y-130181965D01*
X66083406Y-130221000D01*
X66046587Y-130226500D01*
X64209500Y-130226500D01*
X64141379Y-130206498D01*
X64094886Y-130152842D01*
X64083500Y-130100500D01*
X64083500Y-121919683D01*
X64103502Y-121851562D01*
X64157158Y-121805069D01*
X64211149Y-121793694D01*
X64300122Y-121794859D01*
X64305819Y-121793880D01*
X64305820Y-121793880D01*
X64501551Y-121760247D01*
X64501552Y-121760247D01*
X64507248Y-121759268D01*
X64704419Y-121686528D01*
X64810697Y-121623299D01*
X64880067Y-121582028D01*
X64880068Y-121582027D01*
X64885032Y-121579074D01*
X65043039Y-121440506D01*
X65173148Y-121275463D01*
X65186077Y-121250890D01*
X65268310Y-121094590D01*
X65268311Y-121094588D01*
X65271002Y-121089473D01*
X65272716Y-121083954D01*
X65274926Y-121078618D01*
X65276005Y-121079065D01*
X65311985Y-121024940D01*
X65377015Y-120996451D01*
X65447124Y-121007642D01*
X65500053Y-121054960D01*
X65509331Y-121072997D01*
X65556626Y-121186615D01*
X65672104Y-121359113D01*
X65818887Y-121505896D01*
X65991385Y-121621374D01*
X66183027Y-121701147D01*
X66189071Y-121702366D01*
X66189072Y-121702366D01*
X66381926Y-121741252D01*
X66386514Y-121742177D01*
X66391178Y-121742413D01*
X66391184Y-121742414D01*
X66391302Y-121742420D01*
X66391319Y-121742420D01*
X66392890Y-121742500D01*
X67695110Y-121742500D01*
X67696681Y-121742420D01*
X67696698Y-121742420D01*
X67696816Y-121742414D01*
X67696822Y-121742413D01*
X67701486Y-121742177D01*
X67706074Y-121741252D01*
X67898928Y-121702366D01*
X67898929Y-121702366D01*
X67904973Y-121701147D01*
X68096615Y-121621374D01*
X68269113Y-121505896D01*
X68415896Y-121359113D01*
X68419321Y-121353997D01*
X68419325Y-121353992D01*
X68452019Y-121305155D01*
X68506536Y-121259676D01*
X68576987Y-121250890D01*
X68645817Y-121286155D01*
X71082595Y-123722933D01*
X71116621Y-123785245D01*
X71119500Y-123812028D01*
X71119500Y-126932624D01*
X71118067Y-126951574D01*
X71115876Y-126965973D01*
X71115876Y-126965979D01*
X71114776Y-126973208D01*
X71115369Y-126980500D01*
X71115369Y-126980503D01*
X71119085Y-127026183D01*
X71119500Y-127036398D01*
X71119500Y-127044525D01*
X71122811Y-127072924D01*
X71123238Y-127077244D01*
X71129191Y-127150426D01*
X71131447Y-127157388D01*
X71132643Y-127163376D01*
X71134051Y-127169333D01*
X71134899Y-127176607D01*
X71137397Y-127183489D01*
X71137398Y-127183493D01*
X71159945Y-127245607D01*
X71161355Y-127249711D01*
X71183987Y-127319575D01*
X71187787Y-127325838D01*
X71190325Y-127331380D01*
X71193067Y-127336856D01*
X71195566Y-127343741D01*
X71199581Y-127349865D01*
X71235815Y-127405132D01*
X71238130Y-127408800D01*
X71276227Y-127471581D01*
X71279941Y-127475786D01*
X71279943Y-127475789D01*
X71283667Y-127480005D01*
X71283638Y-127480031D01*
X71286238Y-127482962D01*
X71289042Y-127486316D01*
X71293054Y-127492435D01*
X71298366Y-127497467D01*
X71349586Y-127545988D01*
X71352028Y-127548366D01*
X72005595Y-128201933D01*
X72039621Y-128264245D01*
X72042500Y-128291028D01*
X72042500Y-129168134D01*
X72049255Y-129230316D01*
X72100385Y-129366705D01*
X72187739Y-129483261D01*
X72304295Y-129570615D01*
X72440684Y-129621745D01*
X72502866Y-129628500D01*
X74299134Y-129628500D01*
X74361316Y-129621745D01*
X74497705Y-129570615D01*
X74614261Y-129483261D01*
X74701615Y-129366705D01*
X74706346Y-129354086D01*
X74745598Y-129249382D01*
X74788240Y-129192618D01*
X74854802Y-129167918D01*
X74924150Y-129183126D01*
X74958817Y-129211114D01*
X74987250Y-129243938D01*
X75159126Y-129386632D01*
X75352000Y-129499338D01*
X75560692Y-129579030D01*
X75565760Y-129580061D01*
X75565763Y-129580062D01*
X75673017Y-129601883D01*
X75779597Y-129623567D01*
X75784772Y-129623757D01*
X75784774Y-129623757D01*
X75997673Y-129631564D01*
X75997677Y-129631564D01*
X76002837Y-129631753D01*
X76007957Y-129631097D01*
X76007959Y-129631097D01*
X76219288Y-129604025D01*
X76219289Y-129604025D01*
X76224416Y-129603368D01*
X76229366Y-129601883D01*
X76433429Y-129540661D01*
X76433434Y-129540659D01*
X76438384Y-129539174D01*
X76638994Y-129440896D01*
X76820860Y-129311173D01*
X76979096Y-129153489D01*
X77028329Y-129084974D01*
X77084324Y-129041326D01*
X77130652Y-129032500D01*
X81212624Y-129032500D01*
X81231574Y-129033933D01*
X81245973Y-129036124D01*
X81245979Y-129036124D01*
X81253208Y-129037224D01*
X81260500Y-129036631D01*
X81260503Y-129036631D01*
X81306183Y-129032915D01*
X81316398Y-129032500D01*
X81324525Y-129032500D01*
X81328161Y-129032076D01*
X81328163Y-129032076D01*
X81331615Y-129031673D01*
X81352924Y-129029189D01*
X81357244Y-129028762D01*
X81430426Y-129022809D01*
X81437388Y-129020553D01*
X81443376Y-129019357D01*
X81449333Y-129017949D01*
X81456607Y-129017101D01*
X81463489Y-129014603D01*
X81463493Y-129014602D01*
X81525607Y-128992055D01*
X81529711Y-128990645D01*
X81599575Y-128968013D01*
X81605838Y-128964213D01*
X81611380Y-128961675D01*
X81616856Y-128958933D01*
X81623741Y-128956434D01*
X81629865Y-128952419D01*
X81685132Y-128916185D01*
X81688800Y-128913870D01*
X81751581Y-128875773D01*
X81755786Y-128872059D01*
X81755789Y-128872057D01*
X81760005Y-128868333D01*
X81760031Y-128868362D01*
X81762962Y-128865762D01*
X81766316Y-128862958D01*
X81772435Y-128858946D01*
X81825989Y-128802413D01*
X81828366Y-128799972D01*
X82279528Y-128348810D01*
X82293941Y-128336423D01*
X82305665Y-128327795D01*
X82311564Y-128323454D01*
X82345979Y-128282945D01*
X82352909Y-128275429D01*
X82358653Y-128269685D01*
X82360924Y-128266815D01*
X82360929Y-128266809D01*
X82376397Y-128247259D01*
X82379185Y-128243859D01*
X82421943Y-128193530D01*
X82421945Y-128193528D01*
X82426684Y-128187949D01*
X82430014Y-128181428D01*
X82433405Y-128176343D01*
X82436616Y-128171144D01*
X82441160Y-128165401D01*
X82472235Y-128098911D01*
X82474167Y-128094959D01*
X82504213Y-128036117D01*
X82507543Y-128029596D01*
X82509284Y-128022483D01*
X82511412Y-128016760D01*
X82513344Y-128010951D01*
X82516443Y-128004321D01*
X82531390Y-127932462D01*
X82532360Y-127928177D01*
X82548469Y-127862343D01*
X82549804Y-127856888D01*
X82550500Y-127845670D01*
X82550538Y-127845672D01*
X82550773Y-127841757D01*
X82551161Y-127837406D01*
X82552651Y-127830244D01*
X82550546Y-127752444D01*
X82550500Y-127749036D01*
X82550500Y-120783460D01*
X96436000Y-120783460D01*
X96436081Y-120786648D01*
X96436086Y-120786766D01*
X96437248Y-120796021D01*
X96476116Y-120988787D01*
X96479702Y-121000514D01*
X96554701Y-121180687D01*
X96560499Y-121191501D01*
X96669061Y-121353669D01*
X96676854Y-121363156D01*
X96814844Y-121501146D01*
X96824331Y-121508939D01*
X96986499Y-121617501D01*
X96997313Y-121623299D01*
X97177486Y-121698298D01*
X97189213Y-121701884D01*
X97381979Y-121740752D01*
X97391234Y-121741914D01*
X97391352Y-121741919D01*
X97394540Y-121742000D01*
X97771885Y-121742000D01*
X97787124Y-121737525D01*
X97788329Y-121736135D01*
X97790000Y-121728452D01*
X97790000Y-121723885D01*
X98298000Y-121723885D01*
X98302475Y-121739124D01*
X98303865Y-121740329D01*
X98311548Y-121742000D01*
X98693460Y-121742000D01*
X98696648Y-121741919D01*
X98696766Y-121741914D01*
X98706021Y-121740752D01*
X98898787Y-121701884D01*
X98910514Y-121698298D01*
X99090687Y-121623299D01*
X99101501Y-121617501D01*
X99263669Y-121508939D01*
X99273156Y-121501146D01*
X99411146Y-121363156D01*
X99418939Y-121353669D01*
X99527501Y-121191501D01*
X99533299Y-121180687D01*
X99608298Y-121000514D01*
X99611884Y-120988787D01*
X99650752Y-120796021D01*
X99651914Y-120786766D01*
X99651919Y-120786648D01*
X99652000Y-120783460D01*
X99652000Y-119906115D01*
X99647525Y-119890876D01*
X99646135Y-119889671D01*
X99638452Y-119888000D01*
X98316115Y-119888000D01*
X98300876Y-119892475D01*
X98299671Y-119893865D01*
X98298000Y-119901548D01*
X98298000Y-121723885D01*
X97790000Y-121723885D01*
X97790000Y-119906115D01*
X97785525Y-119890876D01*
X97784135Y-119889671D01*
X97776452Y-119888000D01*
X96454115Y-119888000D01*
X96438876Y-119892475D01*
X96437671Y-119893865D01*
X96436000Y-119901548D01*
X96436000Y-120783460D01*
X82550500Y-120783460D01*
X82550500Y-119361885D01*
X96436000Y-119361885D01*
X96440475Y-119377124D01*
X96441865Y-119378329D01*
X96449548Y-119380000D01*
X99633885Y-119380000D01*
X99649124Y-119375525D01*
X99650329Y-119374135D01*
X99652000Y-119366452D01*
X99652000Y-118484540D01*
X99651919Y-118481352D01*
X99651914Y-118481234D01*
X99650752Y-118471979D01*
X99611884Y-118279213D01*
X99608298Y-118267486D01*
X99533299Y-118087313D01*
X99527501Y-118076499D01*
X99418939Y-117914331D01*
X99411146Y-117904844D01*
X99331758Y-117825456D01*
X99297732Y-117763144D01*
X99302797Y-117692329D01*
X99345344Y-117635493D01*
X99364832Y-117623500D01*
X99370613Y-117620631D01*
X99599598Y-117486822D01*
X99606679Y-117482009D01*
X99686655Y-117419301D01*
X99695125Y-117407442D01*
X99688608Y-117395818D01*
X98484812Y-116192022D01*
X98470868Y-116184408D01*
X98469035Y-116184539D01*
X98462420Y-116188790D01*
X97254910Y-117396300D01*
X97247296Y-117410244D01*
X97249721Y-117444155D01*
X97249422Y-117444176D01*
X97251187Y-117449327D01*
X97234239Y-117518271D01*
X97182707Y-117567107D01*
X97173734Y-117571263D01*
X96997313Y-117644701D01*
X96986499Y-117650499D01*
X96824331Y-117759061D01*
X96814844Y-117766854D01*
X96676854Y-117904844D01*
X96669061Y-117914331D01*
X96560499Y-118076499D01*
X96554701Y-118087313D01*
X96479702Y-118267486D01*
X96476116Y-118279213D01*
X96437248Y-118471979D01*
X96436086Y-118481234D01*
X96436081Y-118481352D01*
X96436000Y-118484540D01*
X96436000Y-119361885D01*
X82550500Y-119361885D01*
X82550500Y-119214435D01*
X82550999Y-119203236D01*
X82551162Y-119201406D01*
X82552652Y-119194244D01*
X82550546Y-119116423D01*
X82550500Y-119113014D01*
X82550500Y-117409654D01*
X87247618Y-117409654D01*
X87254673Y-117419627D01*
X87285679Y-117445551D01*
X87292598Y-117450579D01*
X87517272Y-117591515D01*
X87524807Y-117595556D01*
X87766520Y-117704694D01*
X87774551Y-117707680D01*
X88028832Y-117783002D01*
X88037184Y-117784869D01*
X88299340Y-117824984D01*
X88307874Y-117825700D01*
X88573045Y-117829867D01*
X88581596Y-117829418D01*
X88844883Y-117797557D01*
X88853284Y-117795955D01*
X89109824Y-117728653D01*
X89117926Y-117725926D01*
X89362949Y-117624434D01*
X89370617Y-117620628D01*
X89599598Y-117486822D01*
X89606679Y-117482009D01*
X89686655Y-117419301D01*
X89695125Y-117407442D01*
X89688608Y-117395818D01*
X88484812Y-116192022D01*
X88470868Y-116184408D01*
X88469035Y-116184539D01*
X88462420Y-116188790D01*
X87254910Y-117396300D01*
X87247618Y-117409654D01*
X82550500Y-117409654D01*
X82550500Y-116651766D01*
X82837000Y-116651766D01*
X82837337Y-116658282D01*
X82847075Y-116752132D01*
X82849968Y-116765528D01*
X82900488Y-116916953D01*
X82906653Y-116930115D01*
X82990426Y-117065492D01*
X82999460Y-117076890D01*
X83112129Y-117189363D01*
X83123540Y-117198375D01*
X83259063Y-117281912D01*
X83272241Y-117288056D01*
X83423766Y-117338315D01*
X83437132Y-117341181D01*
X83529770Y-117350672D01*
X83536185Y-117351000D01*
X83547885Y-117351000D01*
X83563124Y-117346525D01*
X83564329Y-117345135D01*
X83566000Y-117337452D01*
X83566000Y-117332885D01*
X84074000Y-117332885D01*
X84078475Y-117348124D01*
X84079865Y-117349329D01*
X84087548Y-117351000D01*
X84103766Y-117351000D01*
X84110282Y-117350663D01*
X84204132Y-117340925D01*
X84217528Y-117338032D01*
X84368953Y-117287512D01*
X84382115Y-117281347D01*
X84517492Y-117197574D01*
X84528890Y-117188540D01*
X84641363Y-117075871D01*
X84650375Y-117064460D01*
X84733912Y-116928937D01*
X84740056Y-116915759D01*
X84790315Y-116764234D01*
X84793181Y-116750868D01*
X84802672Y-116658230D01*
X84803000Y-116651815D01*
X84803000Y-116577615D01*
X84798525Y-116562376D01*
X84797135Y-116561171D01*
X84789452Y-116559500D01*
X84092115Y-116559500D01*
X84076876Y-116563975D01*
X84075671Y-116565365D01*
X84074000Y-116573048D01*
X84074000Y-117332885D01*
X83566000Y-117332885D01*
X83566000Y-116577615D01*
X83561525Y-116562376D01*
X83560135Y-116561171D01*
X83552452Y-116559500D01*
X82855115Y-116559500D01*
X82839876Y-116563975D01*
X82838671Y-116565365D01*
X82837000Y-116573048D01*
X82837000Y-116651766D01*
X82550500Y-116651766D01*
X82550500Y-115792485D01*
X82555503Y-115757332D01*
X82558707Y-115746303D01*
X82593562Y-115626331D01*
X82594378Y-115615974D01*
X82596307Y-115591458D01*
X82596307Y-115591450D01*
X82596500Y-115589002D01*
X82596500Y-115315500D01*
X82616502Y-115247379D01*
X82670158Y-115200886D01*
X82722500Y-115189500D01*
X82826199Y-115189500D01*
X82894320Y-115209502D01*
X82933340Y-115249193D01*
X82993884Y-115347031D01*
X82999065Y-115352203D01*
X83001139Y-115354273D01*
X83002105Y-115356038D01*
X83003613Y-115357941D01*
X83003287Y-115358199D01*
X83035219Y-115416554D01*
X83030218Y-115487375D01*
X83001292Y-115532470D01*
X82998636Y-115535131D01*
X82989625Y-115546540D01*
X82906088Y-115682063D01*
X82899944Y-115695241D01*
X82849685Y-115846766D01*
X82846819Y-115860132D01*
X82837328Y-115952770D01*
X82837000Y-115959185D01*
X82837000Y-116033385D01*
X82841475Y-116048624D01*
X82842865Y-116049829D01*
X82850548Y-116051500D01*
X84784885Y-116051500D01*
X84800124Y-116047025D01*
X84801329Y-116045635D01*
X84803000Y-116037952D01*
X84803000Y-115959234D01*
X84802663Y-115952718D01*
X84792925Y-115858868D01*
X84790032Y-115845472D01*
X84775930Y-115803204D01*
X86459665Y-115803204D01*
X86474932Y-116067969D01*
X86476005Y-116076470D01*
X86527065Y-116336722D01*
X86529276Y-116344974D01*
X86615184Y-116595894D01*
X86618499Y-116603779D01*
X86737664Y-116840713D01*
X86742020Y-116848079D01*
X86871347Y-117036250D01*
X86881601Y-117044594D01*
X86895342Y-117037448D01*
X88099978Y-115832812D01*
X88106356Y-115821132D01*
X88836408Y-115821132D01*
X88836539Y-115822965D01*
X88840790Y-115829580D01*
X90047730Y-117036520D01*
X90059939Y-117043187D01*
X90071439Y-117034497D01*
X90168831Y-116901913D01*
X90173418Y-116894685D01*
X90299962Y-116661621D01*
X90303530Y-116653827D01*
X90397271Y-116405750D01*
X90399748Y-116397544D01*
X90458954Y-116139038D01*
X90460294Y-116130577D01*
X90484031Y-115864616D01*
X90484277Y-115859677D01*
X90484666Y-115822485D01*
X90484523Y-115817519D01*
X90483547Y-115803204D01*
X96459665Y-115803204D01*
X96474932Y-116067969D01*
X96476005Y-116076470D01*
X96527065Y-116336722D01*
X96529276Y-116344974D01*
X96615184Y-116595894D01*
X96618499Y-116603779D01*
X96737664Y-116840713D01*
X96742020Y-116848079D01*
X96871347Y-117036250D01*
X96881601Y-117044594D01*
X96895342Y-117037448D01*
X98099978Y-115832812D01*
X98106356Y-115821132D01*
X98836408Y-115821132D01*
X98836539Y-115822965D01*
X98840790Y-115829580D01*
X100047730Y-117036520D01*
X100059939Y-117043187D01*
X100071439Y-117034497D01*
X100168831Y-116901913D01*
X100173418Y-116894685D01*
X100299962Y-116661621D01*
X100303530Y-116653827D01*
X100397271Y-116405750D01*
X100399748Y-116397544D01*
X100458954Y-116139038D01*
X100460294Y-116130577D01*
X100484031Y-115864616D01*
X100484277Y-115859677D01*
X100484666Y-115822485D01*
X100484523Y-115817519D01*
X100466362Y-115551123D01*
X100465201Y-115542649D01*
X100411419Y-115282944D01*
X100409120Y-115274709D01*
X100320588Y-115024705D01*
X100317191Y-115016854D01*
X100195550Y-114781178D01*
X100191122Y-114773866D01*
X100072031Y-114604417D01*
X100061509Y-114596037D01*
X100048121Y-114603089D01*
X98844022Y-115807188D01*
X98836408Y-115821132D01*
X98106356Y-115821132D01*
X98107592Y-115818868D01*
X98107461Y-115817035D01*
X98103210Y-115810420D01*
X96895814Y-114603024D01*
X96883804Y-114596466D01*
X96872064Y-114605434D01*
X96763935Y-114755911D01*
X96759418Y-114763196D01*
X96635325Y-114997567D01*
X96631839Y-115005395D01*
X96540700Y-115254446D01*
X96538311Y-115262670D01*
X96481812Y-115521795D01*
X96480563Y-115530250D01*
X96459754Y-115794653D01*
X96459665Y-115803204D01*
X90483547Y-115803204D01*
X90466362Y-115551123D01*
X90465201Y-115542649D01*
X90411419Y-115282944D01*
X90409120Y-115274709D01*
X90320588Y-115024705D01*
X90317191Y-115016854D01*
X90195550Y-114781178D01*
X90191122Y-114773866D01*
X90072031Y-114604417D01*
X90061509Y-114596037D01*
X90048121Y-114603089D01*
X88844022Y-115807188D01*
X88836408Y-115821132D01*
X88106356Y-115821132D01*
X88107592Y-115818868D01*
X88107461Y-115817035D01*
X88103210Y-115810420D01*
X86895814Y-114603024D01*
X86883804Y-114596466D01*
X86872064Y-114605434D01*
X86763935Y-114755911D01*
X86759418Y-114763196D01*
X86635325Y-114997567D01*
X86631839Y-115005395D01*
X86540700Y-115254446D01*
X86538311Y-115262670D01*
X86481812Y-115521795D01*
X86480563Y-115530250D01*
X86459754Y-115794653D01*
X86459665Y-115803204D01*
X84775930Y-115803204D01*
X84739512Y-115694047D01*
X84733347Y-115680885D01*
X84649574Y-115545508D01*
X84640536Y-115534106D01*
X84638861Y-115532433D01*
X84638081Y-115531007D01*
X84635993Y-115528373D01*
X84636444Y-115528016D01*
X84604781Y-115470151D01*
X84609784Y-115399331D01*
X84638701Y-115354246D01*
X84641756Y-115351185D01*
X84646929Y-115346003D01*
X84650770Y-115339772D01*
X84734369Y-115204150D01*
X84734370Y-115204148D01*
X84738209Y-115197920D01*
X84792974Y-115032809D01*
X84793805Y-115024705D01*
X84803172Y-114933271D01*
X84803500Y-114930072D01*
X84803500Y-114232500D01*
X87248584Y-114232500D01*
X87254980Y-114243770D01*
X88459188Y-115447978D01*
X88473132Y-115455592D01*
X88474965Y-115455461D01*
X88481580Y-115451210D01*
X89688604Y-114244186D01*
X89694985Y-114232500D01*
X97248584Y-114232500D01*
X97254980Y-114243770D01*
X98459188Y-115447978D01*
X98473132Y-115455592D01*
X98474965Y-115455461D01*
X98481580Y-115451210D01*
X99688604Y-114244186D01*
X99695795Y-114231017D01*
X99688473Y-114220780D01*
X99641233Y-114182115D01*
X99634261Y-114177160D01*
X99408122Y-114038582D01*
X99400552Y-114034624D01*
X99157704Y-113928022D01*
X99149644Y-113925120D01*
X98894592Y-113852467D01*
X98886214Y-113850685D01*
X98623656Y-113813318D01*
X98615111Y-113812691D01*
X98349908Y-113811302D01*
X98341374Y-113811839D01*
X98078433Y-113846456D01*
X98070035Y-113848149D01*
X97814238Y-113918127D01*
X97806143Y-113920946D01*
X97562199Y-114024997D01*
X97554577Y-114028881D01*
X97327013Y-114165075D01*
X97319981Y-114169962D01*
X97257053Y-114220377D01*
X97248584Y-114232500D01*
X89694985Y-114232500D01*
X89695795Y-114231017D01*
X89688473Y-114220780D01*
X89641233Y-114182115D01*
X89634261Y-114177160D01*
X89408122Y-114038582D01*
X89400552Y-114034624D01*
X89157704Y-113928022D01*
X89149644Y-113925120D01*
X88894592Y-113852467D01*
X88886214Y-113850685D01*
X88623656Y-113813318D01*
X88615111Y-113812691D01*
X88349908Y-113811302D01*
X88341374Y-113811839D01*
X88078433Y-113846456D01*
X88070035Y-113848149D01*
X87814238Y-113918127D01*
X87806143Y-113920946D01*
X87562199Y-114024997D01*
X87554577Y-114028881D01*
X87327013Y-114165075D01*
X87319981Y-114169962D01*
X87257053Y-114220377D01*
X87248584Y-114232500D01*
X84803500Y-114232500D01*
X84803500Y-114230928D01*
X84802405Y-114220377D01*
X84793419Y-114133765D01*
X84793418Y-114133761D01*
X84792707Y-114126907D01*
X84790494Y-114120272D01*
X84739972Y-113968841D01*
X84737654Y-113961893D01*
X84646116Y-113813969D01*
X84631795Y-113799673D01*
X84597716Y-113737391D01*
X84602719Y-113666571D01*
X84645216Y-113609698D01*
X84711714Y-113584829D01*
X84720813Y-113584500D01*
X84799134Y-113584500D01*
X84802531Y-113584131D01*
X84853466Y-113578598D01*
X84853468Y-113578598D01*
X84861316Y-113577745D01*
X84868709Y-113574973D01*
X84868711Y-113574973D01*
X84912695Y-113558484D01*
X84983502Y-113553301D01*
X85044846Y-113586213D01*
X85125150Y-113664443D01*
X85125157Y-113664448D01*
X85129289Y-113668474D01*
X85134085Y-113671679D01*
X85134088Y-113671681D01*
X85262114Y-113757225D01*
X85304031Y-113785233D01*
X85309339Y-113787514D01*
X85309340Y-113787514D01*
X85491822Y-113865914D01*
X85491825Y-113865915D01*
X85497125Y-113868192D01*
X85502754Y-113869466D01*
X85502755Y-113869466D01*
X85696467Y-113913299D01*
X85696473Y-113913300D01*
X85702104Y-113914574D01*
X85707875Y-113914801D01*
X85707877Y-113914801D01*
X85771433Y-113917298D01*
X85912103Y-113922825D01*
X86120088Y-113892669D01*
X86125552Y-113890814D01*
X86125557Y-113890813D01*
X86313624Y-113826973D01*
X86313629Y-113826971D01*
X86319096Y-113825115D01*
X86502460Y-113722426D01*
X86664041Y-113588041D01*
X86798426Y-113426460D01*
X86901115Y-113243096D01*
X86902971Y-113237629D01*
X86902973Y-113237624D01*
X86966813Y-113049557D01*
X86966814Y-113049552D01*
X86968669Y-113044088D01*
X86998825Y-112836103D01*
X87000399Y-112776000D01*
X86981169Y-112566721D01*
X86924123Y-112364451D01*
X86831171Y-112175963D01*
X86827718Y-112171339D01*
X86827715Y-112171334D01*
X86804737Y-112140564D01*
X86780005Y-112074014D01*
X86786101Y-112025507D01*
X86824974Y-111908309D01*
X86826156Y-111896778D01*
X86835172Y-111808771D01*
X86835500Y-111805572D01*
X86835500Y-111206428D01*
X86834726Y-111198965D01*
X86825419Y-111109265D01*
X86825418Y-111109261D01*
X86824707Y-111102407D01*
X86813425Y-111068589D01*
X86771972Y-110944341D01*
X86769654Y-110937393D01*
X86683963Y-110798918D01*
X91458917Y-110798918D01*
X91474682Y-111072320D01*
X91475507Y-111076525D01*
X91475508Y-111076533D01*
X91505917Y-111231526D01*
X91527405Y-111341053D01*
X91528792Y-111345103D01*
X91528793Y-111345108D01*
X91605114Y-111568022D01*
X91616112Y-111600144D01*
X91618039Y-111603975D01*
X91709626Y-111786076D01*
X91739160Y-111844799D01*
X91741586Y-111848328D01*
X91741589Y-111848334D01*
X91828133Y-111974255D01*
X91894274Y-112070490D01*
X91897161Y-112073663D01*
X91897162Y-112073664D01*
X92013063Y-112201038D01*
X92078582Y-112273043D01*
X92288675Y-112448707D01*
X92292316Y-112450991D01*
X92517024Y-112591951D01*
X92517028Y-112591953D01*
X92520664Y-112594234D01*
X92588544Y-112624883D01*
X92766345Y-112705164D01*
X92766349Y-112705166D01*
X92770257Y-112706930D01*
X92804614Y-112717107D01*
X93028723Y-112783491D01*
X93028727Y-112783492D01*
X93032836Y-112784709D01*
X93037070Y-112785357D01*
X93037075Y-112785358D01*
X93299298Y-112825483D01*
X93299300Y-112825483D01*
X93303540Y-112826132D01*
X93442912Y-112828322D01*
X93573071Y-112830367D01*
X93573077Y-112830367D01*
X93577362Y-112830434D01*
X93849235Y-112797534D01*
X94114127Y-112728041D01*
X94118087Y-112726401D01*
X94118092Y-112726399D01*
X94300825Y-112650708D01*
X94367136Y-112623241D01*
X94603582Y-112485073D01*
X94819089Y-112316094D01*
X94860809Y-112273043D01*
X95006686Y-112122509D01*
X95009669Y-112119431D01*
X95012202Y-112115983D01*
X95012206Y-112115978D01*
X95169257Y-111902178D01*
X95171795Y-111898723D01*
X95173841Y-111894955D01*
X95300418Y-111661830D01*
X95300419Y-111661828D01*
X95302468Y-111658054D01*
X95399269Y-111401877D01*
X95455620Y-111155835D01*
X95459449Y-111139117D01*
X95459450Y-111139113D01*
X95460407Y-111134933D01*
X95463196Y-111103691D01*
X95484531Y-110864627D01*
X95484531Y-110864625D01*
X95484751Y-110862161D01*
X95485072Y-110831592D01*
X95485167Y-110822484D01*
X95485167Y-110822483D01*
X95485193Y-110820000D01*
X95483756Y-110798918D01*
X95466859Y-110551055D01*
X95466858Y-110551049D01*
X95466567Y-110546778D01*
X95411032Y-110278612D01*
X95319617Y-110020465D01*
X95217497Y-109822612D01*
X95195978Y-109780919D01*
X95195978Y-109780918D01*
X95194013Y-109777112D01*
X95185786Y-109765405D01*
X95039008Y-109556562D01*
X95036545Y-109553057D01*
X94948831Y-109458665D01*
X94853046Y-109355588D01*
X94853043Y-109355585D01*
X94850125Y-109352445D01*
X94846810Y-109349731D01*
X94846806Y-109349728D01*
X94641523Y-109181706D01*
X94638205Y-109178990D01*
X94404704Y-109035901D01*
X94388719Y-109028884D01*
X94157873Y-108927549D01*
X94157869Y-108927548D01*
X94153945Y-108925825D01*
X93890566Y-108850800D01*
X93886324Y-108850196D01*
X93886318Y-108850195D01*
X93651925Y-108816836D01*
X93619443Y-108812213D01*
X93475589Y-108811460D01*
X93349877Y-108810802D01*
X93349871Y-108810802D01*
X93345591Y-108810780D01*
X93341347Y-108811339D01*
X93341343Y-108811339D01*
X93272587Y-108820391D01*
X93074078Y-108846525D01*
X93069938Y-108847658D01*
X93069936Y-108847658D01*
X93026642Y-108859502D01*
X92809928Y-108918788D01*
X92805980Y-108920472D01*
X92561982Y-109024546D01*
X92561978Y-109024548D01*
X92558030Y-109026232D01*
X92445633Y-109093500D01*
X92326725Y-109164664D01*
X92326721Y-109164667D01*
X92323043Y-109166868D01*
X92109318Y-109338094D01*
X91920808Y-109536742D01*
X91761002Y-109759136D01*
X91632857Y-110001161D01*
X91631385Y-110005184D01*
X91631383Y-110005188D01*
X91543224Y-110246093D01*
X91538743Y-110258337D01*
X91480404Y-110525907D01*
X91480068Y-110530177D01*
X91460269Y-110781746D01*
X91458917Y-110798918D01*
X86683963Y-110798918D01*
X86678116Y-110789469D01*
X86670699Y-110782065D01*
X86571214Y-110682753D01*
X86537135Y-110620470D01*
X86542138Y-110549650D01*
X86571059Y-110504563D01*
X86673754Y-110401688D01*
X86673758Y-110401683D01*
X86678929Y-110396503D01*
X86749011Y-110282809D01*
X86766369Y-110254650D01*
X86766370Y-110254648D01*
X86770209Y-110248420D01*
X86824974Y-110083309D01*
X86835500Y-109980572D01*
X86835500Y-109381428D01*
X86830726Y-109335417D01*
X86825419Y-109284265D01*
X86825418Y-109284261D01*
X86824707Y-109277407D01*
X86769654Y-109112393D01*
X86678116Y-108964469D01*
X86662570Y-108948950D01*
X86560184Y-108846742D01*
X86560179Y-108846738D01*
X86555003Y-108841571D01*
X86548772Y-108837730D01*
X86413150Y-108754131D01*
X86413148Y-108754130D01*
X86406920Y-108750291D01*
X86241809Y-108695526D01*
X86234973Y-108694826D01*
X86234970Y-108694825D01*
X86183474Y-108689549D01*
X86139072Y-108685000D01*
X85564928Y-108685000D01*
X85561682Y-108685337D01*
X85561678Y-108685337D01*
X85467765Y-108695081D01*
X85467761Y-108695082D01*
X85460907Y-108695793D01*
X85454374Y-108697973D01*
X85454363Y-108697975D01*
X85422974Y-108708448D01*
X85352024Y-108711034D01*
X85290940Y-108674850D01*
X85259115Y-108611386D01*
X85257834Y-108602532D01*
X85254994Y-108576389D01*
X85252745Y-108555684D01*
X85201615Y-108419295D01*
X85114261Y-108302739D01*
X84997705Y-108215385D01*
X84861316Y-108164255D01*
X84799134Y-108157500D01*
X84741028Y-108157500D01*
X84672907Y-108137498D01*
X84626414Y-108083842D01*
X84616310Y-108013568D01*
X84645804Y-107948988D01*
X84651933Y-107942405D01*
X85184684Y-107409654D01*
X87247618Y-107409654D01*
X87254673Y-107419627D01*
X87285679Y-107445551D01*
X87292598Y-107450579D01*
X87517272Y-107591515D01*
X87524807Y-107595556D01*
X87766520Y-107704694D01*
X87774551Y-107707680D01*
X88028832Y-107783002D01*
X88037184Y-107784869D01*
X88299340Y-107824984D01*
X88307874Y-107825700D01*
X88573045Y-107829867D01*
X88581596Y-107829418D01*
X88844883Y-107797557D01*
X88853284Y-107795955D01*
X89109824Y-107728653D01*
X89117926Y-107725926D01*
X89362949Y-107624434D01*
X89370617Y-107620628D01*
X89599598Y-107486822D01*
X89606679Y-107482009D01*
X89686655Y-107419301D01*
X89693545Y-107409654D01*
X97247618Y-107409654D01*
X97254673Y-107419627D01*
X97285679Y-107445551D01*
X97292598Y-107450579D01*
X97517272Y-107591515D01*
X97524807Y-107595556D01*
X97766520Y-107704694D01*
X97774551Y-107707680D01*
X98028832Y-107783002D01*
X98037184Y-107784869D01*
X98299340Y-107824984D01*
X98307874Y-107825700D01*
X98573045Y-107829867D01*
X98581596Y-107829418D01*
X98844883Y-107797557D01*
X98853284Y-107795955D01*
X99109824Y-107728653D01*
X99117926Y-107725926D01*
X99362949Y-107624434D01*
X99370617Y-107620628D01*
X99599598Y-107486822D01*
X99606679Y-107482009D01*
X99686655Y-107419301D01*
X99695125Y-107407442D01*
X99688608Y-107395818D01*
X98484812Y-106192022D01*
X98470868Y-106184408D01*
X98469035Y-106184539D01*
X98462420Y-106188790D01*
X97254910Y-107396300D01*
X97247618Y-107409654D01*
X89693545Y-107409654D01*
X89695125Y-107407442D01*
X89688608Y-107395818D01*
X88484812Y-106192022D01*
X88470868Y-106184408D01*
X88469035Y-106184539D01*
X88462420Y-106188790D01*
X87254910Y-107396300D01*
X87247618Y-107409654D01*
X85184684Y-107409654D01*
X85327528Y-107266810D01*
X85341941Y-107254423D01*
X85353665Y-107245795D01*
X85359564Y-107241454D01*
X85393979Y-107200945D01*
X85400909Y-107193429D01*
X85406653Y-107187685D01*
X85408927Y-107184811D01*
X85408933Y-107184804D01*
X85424372Y-107165289D01*
X85427163Y-107161885D01*
X85469945Y-107111528D01*
X85469948Y-107111524D01*
X85474684Y-107105949D01*
X85478012Y-107099432D01*
X85481389Y-107094368D01*
X85484616Y-107089144D01*
X85489160Y-107083400D01*
X85520232Y-107016918D01*
X85522163Y-107012967D01*
X85552213Y-106954117D01*
X85555543Y-106947596D01*
X85557284Y-106940481D01*
X85559421Y-106934735D01*
X85561345Y-106928952D01*
X85564444Y-106922321D01*
X85579394Y-106850443D01*
X85580363Y-106846162D01*
X85581697Y-106840713D01*
X85597804Y-106774888D01*
X85598500Y-106763670D01*
X85598539Y-106763672D01*
X85598772Y-106759771D01*
X85599161Y-106755412D01*
X85600652Y-106748244D01*
X85598546Y-106670423D01*
X85598500Y-106667014D01*
X85598500Y-105803204D01*
X86459665Y-105803204D01*
X86474932Y-106067969D01*
X86476005Y-106076470D01*
X86527065Y-106336722D01*
X86529276Y-106344974D01*
X86615184Y-106595894D01*
X86618499Y-106603779D01*
X86737664Y-106840713D01*
X86742020Y-106848079D01*
X86871347Y-107036250D01*
X86881601Y-107044594D01*
X86895342Y-107037448D01*
X88099978Y-105832812D01*
X88106356Y-105821132D01*
X88836408Y-105821132D01*
X88836539Y-105822965D01*
X88840790Y-105829580D01*
X90047730Y-107036520D01*
X90059939Y-107043187D01*
X90071439Y-107034497D01*
X90168831Y-106901913D01*
X90173418Y-106894685D01*
X90299962Y-106661621D01*
X90303530Y-106653827D01*
X90397271Y-106405750D01*
X90399748Y-106397544D01*
X90458954Y-106139038D01*
X90460294Y-106130577D01*
X90484031Y-105864616D01*
X90484277Y-105859677D01*
X90484666Y-105822485D01*
X90484523Y-105817519D01*
X90466362Y-105551123D01*
X90465201Y-105542649D01*
X90411419Y-105282944D01*
X90409120Y-105274709D01*
X90320588Y-105024705D01*
X90317191Y-105016854D01*
X90195550Y-104781178D01*
X90191122Y-104773866D01*
X90072031Y-104604417D01*
X90061509Y-104596037D01*
X90048121Y-104603089D01*
X88844022Y-105807188D01*
X88836408Y-105821132D01*
X88106356Y-105821132D01*
X88107592Y-105818868D01*
X88107461Y-105817035D01*
X88103210Y-105810420D01*
X86895814Y-104603024D01*
X86883804Y-104596466D01*
X86872064Y-104605434D01*
X86763935Y-104755911D01*
X86759418Y-104763196D01*
X86635325Y-104997567D01*
X86631839Y-105005395D01*
X86540700Y-105254446D01*
X86538311Y-105262670D01*
X86481812Y-105521795D01*
X86480563Y-105530250D01*
X86459754Y-105794653D01*
X86459665Y-105803204D01*
X85598500Y-105803204D01*
X85598500Y-104232500D01*
X87248584Y-104232500D01*
X87254980Y-104243770D01*
X88459188Y-105447978D01*
X88473132Y-105455592D01*
X88474965Y-105455461D01*
X88481580Y-105451210D01*
X89688604Y-104244186D01*
X89695795Y-104231017D01*
X89688473Y-104220780D01*
X89641233Y-104182115D01*
X89634261Y-104177160D01*
X89408122Y-104038582D01*
X89400552Y-104034624D01*
X89157704Y-103928022D01*
X89149644Y-103925120D01*
X88894592Y-103852467D01*
X88886214Y-103850685D01*
X88623656Y-103813318D01*
X88615111Y-103812691D01*
X88349908Y-103811302D01*
X88341374Y-103811839D01*
X88078433Y-103846456D01*
X88070035Y-103848149D01*
X87814238Y-103918127D01*
X87806143Y-103920946D01*
X87562199Y-104024997D01*
X87554577Y-104028881D01*
X87327013Y-104165075D01*
X87319981Y-104169962D01*
X87257053Y-104220377D01*
X87248584Y-104232500D01*
X85598500Y-104232500D01*
X85598500Y-103511460D01*
X96436000Y-103511460D01*
X96436081Y-103514648D01*
X96436086Y-103514766D01*
X96437248Y-103524021D01*
X96476116Y-103716787D01*
X96479702Y-103728514D01*
X96554701Y-103908687D01*
X96560499Y-103919501D01*
X96669061Y-104081669D01*
X96676854Y-104091156D01*
X96814844Y-104229146D01*
X96824330Y-104236939D01*
X96933608Y-104310093D01*
X96979088Y-104364609D01*
X96987875Y-104435060D01*
X96954913Y-104501529D01*
X96924144Y-104533953D01*
X96918694Y-104540542D01*
X96763936Y-104755910D01*
X96759414Y-104763204D01*
X96635325Y-104997567D01*
X96631839Y-105005395D01*
X96540700Y-105254446D01*
X96538311Y-105262670D01*
X96481812Y-105521795D01*
X96480563Y-105530250D01*
X96459754Y-105794653D01*
X96459665Y-105803204D01*
X96474932Y-106067969D01*
X96476005Y-106076470D01*
X96527065Y-106336722D01*
X96529276Y-106344974D01*
X96615184Y-106595894D01*
X96618499Y-106603779D01*
X96737664Y-106840713D01*
X96742020Y-106848079D01*
X96871347Y-107036250D01*
X96881601Y-107044594D01*
X96895342Y-107037448D01*
X98111658Y-105821132D01*
X98836408Y-105821132D01*
X98836539Y-105822965D01*
X98840790Y-105829580D01*
X100047730Y-107036520D01*
X100059939Y-107043187D01*
X100071439Y-107034497D01*
X100168831Y-106901913D01*
X100173418Y-106894685D01*
X100299962Y-106661621D01*
X100303530Y-106653827D01*
X100397271Y-106405750D01*
X100399748Y-106397544D01*
X100458954Y-106139038D01*
X100460294Y-106130577D01*
X100484031Y-105864616D01*
X100484277Y-105859677D01*
X100484666Y-105822485D01*
X100484523Y-105817519D01*
X100466362Y-105551123D01*
X100465201Y-105542649D01*
X100411419Y-105282944D01*
X100409120Y-105274709D01*
X100320588Y-105024705D01*
X100317191Y-105016854D01*
X100195550Y-104781178D01*
X100191122Y-104773866D01*
X100072031Y-104604417D01*
X100061509Y-104596037D01*
X100048121Y-104603089D01*
X98844022Y-105807188D01*
X98836408Y-105821132D01*
X98111658Y-105821132D01*
X99688604Y-104244186D01*
X99695795Y-104231017D01*
X99688473Y-104220780D01*
X99641233Y-104182115D01*
X99634261Y-104177160D01*
X99548080Y-104124348D01*
X99500449Y-104071700D01*
X99488842Y-104001659D01*
X99509210Y-103946823D01*
X99527502Y-103919499D01*
X99533299Y-103908687D01*
X99608298Y-103728514D01*
X99611884Y-103716787D01*
X99650752Y-103524021D01*
X99651914Y-103514766D01*
X99651919Y-103514648D01*
X99652000Y-103511460D01*
X99652000Y-102634115D01*
X99647525Y-102618876D01*
X99646135Y-102617671D01*
X99638452Y-102616000D01*
X96454115Y-102616000D01*
X96438876Y-102620475D01*
X96437671Y-102621865D01*
X96436000Y-102629548D01*
X96436000Y-103511460D01*
X85598500Y-103511460D01*
X85598500Y-102089885D01*
X96436000Y-102089885D01*
X96440475Y-102105124D01*
X96441865Y-102106329D01*
X96449548Y-102108000D01*
X97771885Y-102108000D01*
X97787124Y-102103525D01*
X97788329Y-102102135D01*
X97790000Y-102094452D01*
X97790000Y-102089885D01*
X98298000Y-102089885D01*
X98302475Y-102105124D01*
X98303865Y-102106329D01*
X98311548Y-102108000D01*
X99633885Y-102108000D01*
X99649124Y-102103525D01*
X99650329Y-102102135D01*
X99652000Y-102094452D01*
X99652000Y-101212540D01*
X99651919Y-101209352D01*
X99651914Y-101209234D01*
X99650752Y-101199979D01*
X99611884Y-101007213D01*
X99608298Y-100995486D01*
X99533299Y-100815313D01*
X99527501Y-100804499D01*
X99418939Y-100642331D01*
X99411146Y-100632844D01*
X99273156Y-100494854D01*
X99263669Y-100487061D01*
X99101501Y-100378499D01*
X99090687Y-100372701D01*
X98910514Y-100297702D01*
X98898787Y-100294116D01*
X98706021Y-100255248D01*
X98696766Y-100254086D01*
X98696648Y-100254081D01*
X98693460Y-100254000D01*
X98316115Y-100254000D01*
X98300876Y-100258475D01*
X98299671Y-100259865D01*
X98298000Y-100267548D01*
X98298000Y-102089885D01*
X97790000Y-102089885D01*
X97790000Y-100272115D01*
X97785525Y-100256876D01*
X97784135Y-100255671D01*
X97776452Y-100254000D01*
X97394540Y-100254000D01*
X97391352Y-100254081D01*
X97391234Y-100254086D01*
X97381979Y-100255248D01*
X97189213Y-100294116D01*
X97177486Y-100297702D01*
X96997313Y-100372701D01*
X96986499Y-100378499D01*
X96824331Y-100487061D01*
X96814844Y-100494854D01*
X96676854Y-100632844D01*
X96669061Y-100642331D01*
X96560499Y-100804499D01*
X96554701Y-100815313D01*
X96479702Y-100995486D01*
X96476116Y-101007213D01*
X96437248Y-101199979D01*
X96436086Y-101209234D01*
X96436081Y-101209352D01*
X96436000Y-101212540D01*
X96436000Y-102089885D01*
X85598500Y-102089885D01*
X85598500Y-95063368D01*
X85599933Y-95044417D01*
X85602123Y-95030024D01*
X85602123Y-95030022D01*
X85603223Y-95022792D01*
X85600792Y-94992895D01*
X85598915Y-94969825D01*
X85598500Y-94959611D01*
X85598500Y-94951475D01*
X85595190Y-94923084D01*
X85594757Y-94918709D01*
X85589403Y-94852872D01*
X85589402Y-94852869D01*
X85588809Y-94845573D01*
X85586554Y-94838611D01*
X85585354Y-94832607D01*
X85583948Y-94826660D01*
X85583101Y-94819393D01*
X85558053Y-94750387D01*
X85556625Y-94746227D01*
X85536268Y-94683387D01*
X85536266Y-94683382D01*
X85534012Y-94676425D01*
X85530218Y-94670173D01*
X85527666Y-94664598D01*
X85524930Y-94659135D01*
X85522434Y-94652259D01*
X85482181Y-94590863D01*
X85479834Y-94587144D01*
X85441772Y-94524419D01*
X85434332Y-94515994D01*
X85434360Y-94515969D01*
X85431766Y-94513044D01*
X85428961Y-94509690D01*
X85424946Y-94503565D01*
X85368413Y-94450011D01*
X85365972Y-94447634D01*
X83898810Y-92980472D01*
X83886423Y-92966059D01*
X83881874Y-92959877D01*
X83873454Y-92948436D01*
X83832945Y-92914021D01*
X83825429Y-92907091D01*
X83819685Y-92901347D01*
X83816811Y-92899073D01*
X83816804Y-92899067D01*
X83797289Y-92883628D01*
X83793885Y-92880837D01*
X83743528Y-92838055D01*
X83743524Y-92838052D01*
X83737949Y-92833316D01*
X83731432Y-92829988D01*
X83726368Y-92826611D01*
X83721144Y-92823384D01*
X83715400Y-92818840D01*
X83685084Y-92804671D01*
X83648918Y-92787768D01*
X83644967Y-92785837D01*
X83586117Y-92755787D01*
X83579596Y-92752457D01*
X83572481Y-92750716D01*
X83566735Y-92748579D01*
X83560952Y-92746655D01*
X83554321Y-92743556D01*
X83482443Y-92728606D01*
X83478171Y-92727639D01*
X83406888Y-92710196D01*
X83401289Y-92709849D01*
X83401285Y-92709848D01*
X83395670Y-92709500D01*
X83395672Y-92709461D01*
X83391771Y-92709228D01*
X83387412Y-92708839D01*
X83380244Y-92707348D01*
X83372927Y-92707546D01*
X83302423Y-92709454D01*
X83299014Y-92709500D01*
X77617740Y-92709500D01*
X77549619Y-92689498D01*
X77507220Y-92644009D01*
X77503766Y-92637700D01*
X77500615Y-92629295D01*
X77495230Y-92622109D01*
X77418642Y-92519919D01*
X77413261Y-92512739D01*
X77296705Y-92425385D01*
X77160316Y-92374255D01*
X77098134Y-92367500D01*
X75301866Y-92367500D01*
X75239684Y-92374255D01*
X75103295Y-92425385D01*
X74986739Y-92512739D01*
X74899385Y-92629295D01*
X74893537Y-92644894D01*
X74854919Y-92747907D01*
X74812277Y-92804671D01*
X74745716Y-92829371D01*
X74676367Y-92814163D01*
X74643743Y-92788476D01*
X74593151Y-92732875D01*
X74593142Y-92732866D01*
X74589670Y-92729051D01*
X74585619Y-92725852D01*
X74585615Y-92725848D01*
X74418414Y-92593800D01*
X74418410Y-92593798D01*
X74414359Y-92590598D01*
X74218789Y-92482638D01*
X74213920Y-92480914D01*
X74213916Y-92480912D01*
X74013087Y-92409795D01*
X74013083Y-92409794D01*
X74008212Y-92408069D01*
X74003119Y-92407162D01*
X74003116Y-92407161D01*
X73793373Y-92369800D01*
X73793367Y-92369799D01*
X73788284Y-92368894D01*
X73714452Y-92367992D01*
X73570081Y-92366228D01*
X73570079Y-92366228D01*
X73564911Y-92366165D01*
X73344091Y-92399955D01*
X73131756Y-92469357D01*
X72933607Y-92572507D01*
X72929474Y-92575610D01*
X72929471Y-92575612D01*
X72777789Y-92689498D01*
X72754965Y-92706635D01*
X72600629Y-92868138D01*
X72597715Y-92872410D01*
X72573092Y-92908505D01*
X72518180Y-92953507D01*
X72469004Y-92963500D01*
X72457368Y-92963500D01*
X72438420Y-92962067D01*
X72431033Y-92960943D01*
X72424024Y-92959877D01*
X72424022Y-92959877D01*
X72416792Y-92958777D01*
X72409500Y-92959370D01*
X72409497Y-92959370D01*
X72363825Y-92963085D01*
X72353611Y-92963500D01*
X72345475Y-92963500D01*
X72341840Y-92963924D01*
X72341837Y-92963924D01*
X72323835Y-92966023D01*
X72317084Y-92966810D01*
X72312713Y-92967243D01*
X72301701Y-92968138D01*
X72246872Y-92972597D01*
X72246869Y-92972598D01*
X72239573Y-92973191D01*
X72232611Y-92975446D01*
X72226607Y-92976646D01*
X72220660Y-92978052D01*
X72213393Y-92978899D01*
X72144388Y-93003947D01*
X72140227Y-93005375D01*
X72077387Y-93025732D01*
X72077382Y-93025734D01*
X72070425Y-93027988D01*
X72064173Y-93031782D01*
X72058598Y-93034334D01*
X72053135Y-93037070D01*
X72046259Y-93039566D01*
X72040140Y-93043578D01*
X71984863Y-93079819D01*
X71981159Y-93082156D01*
X71918419Y-93120228D01*
X71909994Y-93127668D01*
X71909969Y-93127640D01*
X71907044Y-93130234D01*
X71903690Y-93133039D01*
X71897565Y-93137054D01*
X71892530Y-93142369D01*
X71892529Y-93142370D01*
X71844012Y-93193586D01*
X71841634Y-93196028D01*
X71390472Y-93647190D01*
X71376059Y-93659577D01*
X71358436Y-93672546D01*
X71353692Y-93678129D01*
X71353693Y-93678129D01*
X71324021Y-93713055D01*
X71317091Y-93720571D01*
X71311347Y-93726315D01*
X71309073Y-93729189D01*
X71309067Y-93729196D01*
X71293628Y-93748711D01*
X71290837Y-93752115D01*
X71248055Y-93802472D01*
X71248052Y-93802476D01*
X71243316Y-93808051D01*
X71239988Y-93814568D01*
X71236611Y-93819632D01*
X71233384Y-93824856D01*
X71228840Y-93830600D01*
X71225741Y-93837231D01*
X71197768Y-93897082D01*
X71195837Y-93901033D01*
X71162457Y-93966404D01*
X71160716Y-93973519D01*
X71158579Y-93979265D01*
X71156655Y-93985048D01*
X71153556Y-93991679D01*
X71147349Y-94021524D01*
X71138608Y-94063547D01*
X71137639Y-94067829D01*
X71120196Y-94139112D01*
X71119500Y-94150330D01*
X71119461Y-94150328D01*
X71119228Y-94154229D01*
X71118839Y-94158588D01*
X71117348Y-94165756D01*
X71117546Y-94173073D01*
X71119454Y-94243577D01*
X71119500Y-94246986D01*
X71119500Y-99199972D01*
X71099498Y-99268093D01*
X71082595Y-99289067D01*
X68867595Y-101504067D01*
X68805283Y-101538093D01*
X68734468Y-101533028D01*
X68677632Y-101490481D01*
X68652821Y-101423961D01*
X68652500Y-101414972D01*
X68652500Y-101210890D01*
X68652417Y-101209234D01*
X68652414Y-101209184D01*
X68652413Y-101209178D01*
X68652177Y-101204514D01*
X68611147Y-101001027D01*
X68531374Y-100809385D01*
X68415896Y-100636887D01*
X68269113Y-100490104D01*
X68096615Y-100374626D01*
X67904973Y-100294853D01*
X67898929Y-100293634D01*
X67898928Y-100293634D01*
X67706074Y-100254748D01*
X67706073Y-100254748D01*
X67701486Y-100253823D01*
X67696822Y-100253587D01*
X67696816Y-100253586D01*
X67696698Y-100253580D01*
X67696681Y-100253580D01*
X67695110Y-100253500D01*
X66392890Y-100253500D01*
X66391319Y-100253580D01*
X66391302Y-100253580D01*
X66391184Y-100253586D01*
X66391178Y-100253587D01*
X66386514Y-100253823D01*
X66381927Y-100254748D01*
X66381926Y-100254748D01*
X66189072Y-100293634D01*
X66189071Y-100293634D01*
X66183027Y-100294853D01*
X65991385Y-100374626D01*
X65818887Y-100490104D01*
X65672104Y-100636887D01*
X65556626Y-100809385D01*
X65476853Y-101001027D01*
X65435823Y-101204514D01*
X65435587Y-101209178D01*
X65435586Y-101209184D01*
X65435584Y-101209234D01*
X65435500Y-101210890D01*
X65435500Y-101213044D01*
X65435485Y-101213096D01*
X65435460Y-101214071D01*
X65435200Y-101214064D01*
X65415498Y-101281165D01*
X65361842Y-101327658D01*
X65291568Y-101337762D01*
X65226988Y-101308268D01*
X65196494Y-101268772D01*
X65191746Y-101259144D01*
X65189191Y-101253963D01*
X65158636Y-101213044D01*
X65066900Y-101090195D01*
X65066899Y-101090194D01*
X65063447Y-101085571D01*
X64971988Y-101001027D01*
X64913361Y-100946833D01*
X64913358Y-100946831D01*
X64909121Y-100942914D01*
X64731382Y-100830769D01*
X64536183Y-100752892D01*
X64530526Y-100751767D01*
X64530520Y-100751765D01*
X64335727Y-100713019D01*
X64335725Y-100713019D01*
X64330060Y-100711892D01*
X64324285Y-100711816D01*
X64324281Y-100711816D01*
X64207851Y-100710292D01*
X64139997Y-100689400D01*
X64094211Y-100635140D01*
X64083500Y-100584303D01*
X64083500Y-92149500D01*
X64103502Y-92081379D01*
X64157158Y-92034886D01*
X64209500Y-92023500D01*
X66042302Y-92023500D01*
X66110423Y-92043502D01*
G37*
%TD.AperFunction*%
%TA.AperFunction,Conductor*%
G36*
X79090906Y-113604502D02*
G01*
X79137399Y-113658158D01*
X79147503Y-113728432D01*
X79146144Y-113736160D01*
X79144607Y-113743549D01*
X79143639Y-113747829D01*
X79126196Y-113819112D01*
X79125849Y-113824711D01*
X79125848Y-113824715D01*
X79125708Y-113826973D01*
X79125500Y-113830330D01*
X79125461Y-113830328D01*
X79125228Y-113834229D01*
X79124839Y-113838588D01*
X79123348Y-113845756D01*
X79125217Y-113914801D01*
X79125454Y-113923577D01*
X79125500Y-113926986D01*
X79125500Y-114077515D01*
X79120497Y-114112667D01*
X79082438Y-114243669D01*
X79081934Y-114250074D01*
X79081933Y-114250079D01*
X79079695Y-114278521D01*
X79079500Y-114280998D01*
X79079500Y-115589002D01*
X79079693Y-115591450D01*
X79079693Y-115591458D01*
X79081623Y-115615974D01*
X79082438Y-115626331D01*
X79107753Y-115713466D01*
X79117177Y-115745903D01*
X79128855Y-115786101D01*
X79135567Y-115797451D01*
X79209509Y-115922480D01*
X79209511Y-115922483D01*
X79213547Y-115929307D01*
X79331193Y-116046953D01*
X79338017Y-116050989D01*
X79338020Y-116050991D01*
X79445589Y-116114607D01*
X79474399Y-116131645D01*
X79482010Y-116133856D01*
X79482012Y-116133857D01*
X79499846Y-116139038D01*
X79634169Y-116178062D01*
X79640574Y-116178566D01*
X79640579Y-116178567D01*
X79669042Y-116180807D01*
X79669050Y-116180807D01*
X79671498Y-116181000D01*
X79904000Y-116181000D01*
X79972121Y-116201002D01*
X80018614Y-116254658D01*
X80030000Y-116307000D01*
X80030000Y-116537885D01*
X80034475Y-116553124D01*
X80035865Y-116554329D01*
X80043548Y-116556000D01*
X80565885Y-116556000D01*
X80581124Y-116551525D01*
X80582329Y-116550135D01*
X80584000Y-116542452D01*
X80584000Y-115927342D01*
X80601547Y-115863203D01*
X80625344Y-115822965D01*
X80647145Y-115786101D01*
X80658824Y-115745903D01*
X80668247Y-115713466D01*
X80693562Y-115626331D01*
X80694378Y-115615974D01*
X80696307Y-115591458D01*
X80696307Y-115591450D01*
X80696500Y-115589002D01*
X80696500Y-114280998D01*
X80696307Y-114278542D01*
X80696306Y-114278521D01*
X80693969Y-114248836D01*
X80708563Y-114179356D01*
X80730485Y-114149853D01*
X80755528Y-114124810D01*
X80769941Y-114112423D01*
X80787564Y-114099454D01*
X80789104Y-114101547D01*
X80841682Y-114075171D01*
X80912278Y-114082698D01*
X80967598Y-114127198D01*
X80990078Y-114194541D01*
X80985160Y-114234298D01*
X80984233Y-114237489D01*
X80984232Y-114237493D01*
X80982438Y-114243669D01*
X80981934Y-114250074D01*
X80981933Y-114250079D01*
X80979695Y-114278521D01*
X80979500Y-114280998D01*
X80979500Y-115589002D01*
X80979693Y-115591450D01*
X80979693Y-115591458D01*
X80981623Y-115615974D01*
X80982438Y-115626331D01*
X81017293Y-115746303D01*
X81020497Y-115757332D01*
X81025500Y-115792485D01*
X81025500Y-116938000D01*
X81005498Y-117006121D01*
X80951842Y-117052614D01*
X80899500Y-117064000D01*
X80048116Y-117064000D01*
X80032877Y-117068475D01*
X80031672Y-117069865D01*
X80030001Y-117077548D01*
X80030001Y-117461484D01*
X80030195Y-117466420D01*
X80032430Y-117494836D01*
X80034730Y-117507431D01*
X80077107Y-117653290D01*
X80083352Y-117667721D01*
X80159911Y-117797178D01*
X80169551Y-117809604D01*
X80170916Y-117810969D01*
X80171644Y-117812302D01*
X80174407Y-117815864D01*
X80173832Y-117816310D01*
X80204942Y-117873281D01*
X80199877Y-117944096D01*
X80157330Y-118000932D01*
X80094824Y-118025391D01*
X80090255Y-118025865D01*
X80052693Y-118029762D01*
X80052690Y-118029763D01*
X80045834Y-118030474D01*
X80039298Y-118032655D01*
X80039296Y-118032655D01*
X80004668Y-118044208D01*
X79878054Y-118086450D01*
X79727652Y-118179522D01*
X79602695Y-118304697D01*
X79599898Y-118309235D01*
X79542647Y-118349824D01*
X79471724Y-118353054D01*
X79410313Y-118317428D01*
X79402938Y-118308932D01*
X79394902Y-118298793D01*
X79280171Y-118184261D01*
X79268760Y-118175249D01*
X79130757Y-118090184D01*
X79117576Y-118084037D01*
X78963290Y-118032862D01*
X78949914Y-118029995D01*
X78855562Y-118020328D01*
X78849145Y-118020000D01*
X78736615Y-118020000D01*
X78721376Y-118024475D01*
X78720171Y-118025865D01*
X78718500Y-118033548D01*
X78718500Y-120467884D01*
X78722975Y-120483123D01*
X78724365Y-120484328D01*
X78732048Y-120485999D01*
X78849095Y-120485999D01*
X78855614Y-120485662D01*
X78951206Y-120475743D01*
X78964600Y-120472851D01*
X79118784Y-120421412D01*
X79131962Y-120415239D01*
X79269807Y-120329937D01*
X79281208Y-120320901D01*
X79395738Y-120206172D01*
X79402794Y-120197238D01*
X79460712Y-120156177D01*
X79531635Y-120152947D01*
X79593046Y-120188574D01*
X79599846Y-120196407D01*
X79603522Y-120202348D01*
X79728697Y-120327305D01*
X79734927Y-120331145D01*
X79734928Y-120331146D01*
X79872288Y-120415816D01*
X79879262Y-120420115D01*
X79959005Y-120446564D01*
X80040611Y-120473632D01*
X80040613Y-120473632D01*
X80047139Y-120475797D01*
X80053975Y-120476497D01*
X80053978Y-120476498D01*
X80097031Y-120480909D01*
X80151600Y-120486500D01*
X80899500Y-120486500D01*
X80967621Y-120506502D01*
X81014114Y-120560158D01*
X81025500Y-120612500D01*
X81025500Y-127381500D01*
X81005498Y-127449621D01*
X80951842Y-127496114D01*
X80899500Y-127507500D01*
X77134351Y-127507500D01*
X77066230Y-127487498D01*
X77028558Y-127449939D01*
X77021014Y-127438277D01*
X76870670Y-127273051D01*
X76866619Y-127269852D01*
X76866615Y-127269848D01*
X76699414Y-127137800D01*
X76699410Y-127137798D01*
X76695359Y-127134598D01*
X76499789Y-127026638D01*
X76494920Y-127024914D01*
X76494916Y-127024912D01*
X76294087Y-126953795D01*
X76294083Y-126953794D01*
X76289212Y-126952069D01*
X76284119Y-126951162D01*
X76284116Y-126951161D01*
X76074373Y-126913800D01*
X76074367Y-126913799D01*
X76069284Y-126912894D01*
X75995452Y-126911992D01*
X75851081Y-126910228D01*
X75851079Y-126910228D01*
X75845911Y-126910165D01*
X75625091Y-126943955D01*
X75412756Y-127013357D01*
X75214607Y-127116507D01*
X75210474Y-127119610D01*
X75210471Y-127119612D01*
X75040100Y-127247530D01*
X75035965Y-127250635D01*
X74958804Y-127331380D01*
X74955283Y-127335064D01*
X74893759Y-127370494D01*
X74822846Y-127367037D01*
X74765060Y-127325791D01*
X74746207Y-127292243D01*
X74704767Y-127181703D01*
X74701615Y-127173295D01*
X74614261Y-127056739D01*
X74497705Y-126969385D01*
X74361316Y-126918255D01*
X74299134Y-126911500D01*
X72924028Y-126911500D01*
X72855907Y-126891498D01*
X72834933Y-126874595D01*
X72747933Y-126787595D01*
X72713907Y-126725283D01*
X72718972Y-126654468D01*
X72761519Y-126597632D01*
X72828039Y-126572821D01*
X72837028Y-126572500D01*
X73527400Y-126572500D01*
X73530646Y-126572163D01*
X73530650Y-126572163D01*
X73626308Y-126562238D01*
X73626312Y-126562237D01*
X73633166Y-126561526D01*
X73639702Y-126559345D01*
X73639704Y-126559345D01*
X73771806Y-126515272D01*
X73800946Y-126505550D01*
X73951348Y-126412478D01*
X74076305Y-126287303D01*
X74080146Y-126281072D01*
X74165275Y-126142968D01*
X74165276Y-126142966D01*
X74169115Y-126136738D01*
X74224797Y-125968861D01*
X74225498Y-125962022D01*
X74226941Y-125955290D01*
X74229057Y-125955744D01*
X74251997Y-125899550D01*
X74310107Y-125858761D01*
X74373000Y-125855228D01*
X74373000Y-125857000D01*
X74904129Y-125857000D01*
X74972250Y-125877002D01*
X75018743Y-125930658D01*
X75025912Y-125956874D01*
X75027308Y-125956573D01*
X75028763Y-125963309D01*
X75029474Y-125970166D01*
X75085450Y-126137946D01*
X75178522Y-126288348D01*
X75303697Y-126413305D01*
X75309927Y-126417145D01*
X75309928Y-126417146D01*
X75447090Y-126501694D01*
X75454262Y-126506115D01*
X75534005Y-126532564D01*
X75615611Y-126559632D01*
X75615613Y-126559632D01*
X75622139Y-126561797D01*
X75628975Y-126562497D01*
X75628978Y-126562498D01*
X75672031Y-126566909D01*
X75726600Y-126572500D01*
X76477400Y-126572500D01*
X76480646Y-126572163D01*
X76480650Y-126572163D01*
X76576308Y-126562238D01*
X76576312Y-126562237D01*
X76583166Y-126561526D01*
X76589702Y-126559345D01*
X76589704Y-126559345D01*
X76721806Y-126515272D01*
X76750946Y-126505550D01*
X76901348Y-126412478D01*
X77026305Y-126287303D01*
X77030146Y-126281072D01*
X77115275Y-126142968D01*
X77115276Y-126142966D01*
X77119115Y-126136738D01*
X77174797Y-125968861D01*
X77176188Y-125955290D01*
X77179909Y-125918969D01*
X77185500Y-125864400D01*
X77185500Y-123563600D01*
X77174526Y-123457834D01*
X77118550Y-123290054D01*
X77058397Y-123192848D01*
X77039559Y-123124396D01*
X77058281Y-123060429D01*
X77115275Y-122967968D01*
X77115276Y-122967966D01*
X77119115Y-122961738D01*
X77174797Y-122793861D01*
X77185500Y-122689400D01*
X77185500Y-120388600D01*
X77179498Y-120330751D01*
X77175238Y-120289692D01*
X77175237Y-120289688D01*
X77174526Y-120282834D01*
X77148950Y-120206172D01*
X77120868Y-120122002D01*
X77118550Y-120115054D01*
X77025478Y-119964652D01*
X76901482Y-119840872D01*
X76867403Y-119778590D01*
X76867026Y-119775095D01*
X77369001Y-119775095D01*
X77369338Y-119781614D01*
X77379257Y-119877206D01*
X77382149Y-119890600D01*
X77433588Y-120044784D01*
X77439761Y-120057962D01*
X77525063Y-120195807D01*
X77534099Y-120207208D01*
X77648829Y-120321739D01*
X77660240Y-120330751D01*
X77798243Y-120415816D01*
X77811424Y-120421963D01*
X77965710Y-120473138D01*
X77979086Y-120476005D01*
X78073438Y-120485672D01*
X78079854Y-120486000D01*
X78192385Y-120486000D01*
X78207624Y-120481525D01*
X78208829Y-120480135D01*
X78210500Y-120472452D01*
X78210500Y-119525115D01*
X78206025Y-119509876D01*
X78204635Y-119508671D01*
X78196952Y-119507000D01*
X77387116Y-119507000D01*
X77371877Y-119511475D01*
X77370672Y-119512865D01*
X77369001Y-119520548D01*
X77369001Y-119775095D01*
X76867026Y-119775095D01*
X76864500Y-119751699D01*
X76864500Y-118980885D01*
X77369000Y-118980885D01*
X77373475Y-118996124D01*
X77374865Y-118997329D01*
X77382548Y-118999000D01*
X78192385Y-118999000D01*
X78207624Y-118994525D01*
X78208829Y-118993135D01*
X78210500Y-118985452D01*
X78210500Y-118038116D01*
X78206025Y-118022877D01*
X78204635Y-118021672D01*
X78196952Y-118020001D01*
X78079905Y-118020001D01*
X78073386Y-118020338D01*
X77977794Y-118030257D01*
X77964400Y-118033149D01*
X77810216Y-118084588D01*
X77797038Y-118090761D01*
X77659193Y-118176063D01*
X77647792Y-118185099D01*
X77533261Y-118299829D01*
X77524249Y-118311240D01*
X77439184Y-118449243D01*
X77433037Y-118462424D01*
X77381862Y-118616710D01*
X77378995Y-118630086D01*
X77369328Y-118724438D01*
X77369000Y-118730855D01*
X77369000Y-118980885D01*
X76864500Y-118980885D01*
X76864500Y-118587368D01*
X76865933Y-118568417D01*
X76868123Y-118554024D01*
X76868123Y-118554022D01*
X76869223Y-118546792D01*
X76864915Y-118493825D01*
X76864500Y-118483611D01*
X76864500Y-118475475D01*
X76861186Y-118447056D01*
X76860757Y-118442711D01*
X76855403Y-118376874D01*
X76855403Y-118376872D01*
X76854809Y-118369574D01*
X76852552Y-118362607D01*
X76851353Y-118356607D01*
X76849949Y-118350667D01*
X76849101Y-118343393D01*
X76846603Y-118336511D01*
X76846602Y-118336507D01*
X76824055Y-118274393D01*
X76822645Y-118270289D01*
X76800013Y-118200425D01*
X76796213Y-118194162D01*
X76793675Y-118188620D01*
X76790933Y-118183144D01*
X76788434Y-118176259D01*
X76748185Y-118114868D01*
X76745870Y-118111200D01*
X76707773Y-118048419D01*
X76704057Y-118044212D01*
X76704054Y-118044208D01*
X76700332Y-118039995D01*
X76700362Y-118039969D01*
X76697764Y-118037041D01*
X76694960Y-118033687D01*
X76690946Y-118027565D01*
X76634395Y-117973994D01*
X76631954Y-117971617D01*
X75643810Y-116983472D01*
X75631423Y-116969059D01*
X75622795Y-116957335D01*
X75618454Y-116951436D01*
X75577945Y-116917021D01*
X75570429Y-116910091D01*
X75564685Y-116904347D01*
X75561811Y-116902073D01*
X75561804Y-116902067D01*
X75542289Y-116886628D01*
X75538885Y-116883837D01*
X75488528Y-116841055D01*
X75488524Y-116841052D01*
X75482949Y-116836316D01*
X75476432Y-116832988D01*
X75471368Y-116829611D01*
X75466144Y-116826384D01*
X75460400Y-116821840D01*
X75434109Y-116809552D01*
X75393918Y-116790768D01*
X75389967Y-116788837D01*
X75344319Y-116765528D01*
X75324596Y-116755457D01*
X75317481Y-116753716D01*
X75311743Y-116751582D01*
X75305954Y-116749656D01*
X75299321Y-116746556D01*
X75292156Y-116745066D01*
X75288727Y-116743925D01*
X75230403Y-116703442D01*
X75203224Y-116637854D01*
X75202500Y-116624367D01*
X75202500Y-116324600D01*
X75201726Y-116317138D01*
X75192238Y-116225692D01*
X75192237Y-116225688D01*
X75191526Y-116218834D01*
X75181503Y-116188790D01*
X75137868Y-116058002D01*
X75135550Y-116051054D01*
X75042478Y-115900652D01*
X75041710Y-115899885D01*
X75016036Y-115836451D01*
X75029208Y-115766687D01*
X75040447Y-115749166D01*
X75043305Y-115746303D01*
X75047148Y-115740069D01*
X75051686Y-115734323D01*
X75053732Y-115735939D01*
X75097437Y-115696609D01*
X75167509Y-115685189D01*
X75232632Y-115713466D01*
X75271444Y-115770346D01*
X75280487Y-115797451D01*
X75286653Y-115810615D01*
X75370426Y-115945992D01*
X75379460Y-115957390D01*
X75492129Y-116069863D01*
X75503540Y-116078875D01*
X75639063Y-116162412D01*
X75652241Y-116168556D01*
X75803766Y-116218815D01*
X75817132Y-116221681D01*
X75909770Y-116231172D01*
X75916185Y-116231500D01*
X75927885Y-116231500D01*
X75943124Y-116227025D01*
X75944329Y-116225635D01*
X75946000Y-116217952D01*
X75946000Y-116213385D01*
X76454000Y-116213385D01*
X76458475Y-116228624D01*
X76459865Y-116229829D01*
X76467548Y-116231500D01*
X76483766Y-116231500D01*
X76490282Y-116231163D01*
X76584132Y-116221425D01*
X76597528Y-116218532D01*
X76748953Y-116168012D01*
X76762115Y-116161847D01*
X76897492Y-116078074D01*
X76908890Y-116069040D01*
X77021363Y-115956371D01*
X77030375Y-115944960D01*
X77113912Y-115809437D01*
X77120056Y-115796259D01*
X77170315Y-115644734D01*
X77173181Y-115631368D01*
X77182672Y-115538730D01*
X77183000Y-115532315D01*
X77183000Y-115508115D01*
X77178525Y-115492876D01*
X77177135Y-115491671D01*
X77169452Y-115490000D01*
X76472115Y-115490000D01*
X76456876Y-115494475D01*
X76455671Y-115495865D01*
X76454000Y-115503548D01*
X76454000Y-116213385D01*
X75946000Y-116213385D01*
X75946000Y-115108000D01*
X75966002Y-115039879D01*
X76019658Y-114993386D01*
X76072000Y-114982000D01*
X77164885Y-114982000D01*
X77180124Y-114977525D01*
X77181329Y-114976135D01*
X77183000Y-114968452D01*
X77183000Y-114939734D01*
X77182663Y-114933218D01*
X77172925Y-114839368D01*
X77170032Y-114825972D01*
X77119512Y-114674547D01*
X77113347Y-114661385D01*
X77029574Y-114526008D01*
X77020540Y-114514610D01*
X76918860Y-114413107D01*
X76884781Y-114350824D01*
X76889784Y-114280004D01*
X76918705Y-114234916D01*
X76919022Y-114234599D01*
X77026929Y-114126503D01*
X77058571Y-114075171D01*
X77114369Y-113984650D01*
X77114370Y-113984648D01*
X77118209Y-113978420D01*
X77172974Y-113813309D01*
X77173765Y-113805596D01*
X77183172Y-113713771D01*
X77183500Y-113710572D01*
X77183500Y-113707353D01*
X77183664Y-113704144D01*
X77185341Y-113704230D01*
X77203502Y-113642379D01*
X77257158Y-113595886D01*
X77309500Y-113584500D01*
X79022785Y-113584500D01*
X79090906Y-113604502D01*
G37*
%TD.AperFunction*%
%TA.AperFunction,Conductor*%
G36*
X70027621Y-108097502D02*
G01*
X70074114Y-108151158D01*
X70085500Y-108203500D01*
X70085500Y-108465400D01*
X70085837Y-108468646D01*
X70085837Y-108468650D01*
X70095683Y-108563540D01*
X70096474Y-108571166D01*
X70098655Y-108577702D01*
X70098655Y-108577704D01*
X70131066Y-108674850D01*
X70152450Y-108738946D01*
X70245522Y-108889348D01*
X70250704Y-108894521D01*
X70305228Y-108948950D01*
X70339307Y-109011232D01*
X70334304Y-109082053D01*
X70305384Y-109127139D01*
X70285747Y-109146811D01*
X70285743Y-109146816D01*
X70280571Y-109151997D01*
X70276731Y-109158227D01*
X70276730Y-109158228D01*
X70199040Y-109284265D01*
X70189291Y-109300080D01*
X70134526Y-109465191D01*
X70124000Y-109567928D01*
X70124000Y-110142072D01*
X70124337Y-110145318D01*
X70124337Y-110145322D01*
X70133596Y-110234553D01*
X70134793Y-110246093D01*
X70136974Y-110252629D01*
X70136974Y-110252631D01*
X70137648Y-110254650D01*
X70189846Y-110411107D01*
X70281384Y-110559031D01*
X70286566Y-110564204D01*
X70399316Y-110676758D01*
X70399321Y-110676762D01*
X70404497Y-110681929D01*
X70410727Y-110685769D01*
X70410728Y-110685770D01*
X70500331Y-110741002D01*
X70552580Y-110773209D01*
X70602210Y-110789670D01*
X70660568Y-110830101D01*
X70687805Y-110895665D01*
X70675271Y-110965547D01*
X70628845Y-111016406D01*
X70556969Y-111060884D01*
X70551796Y-111066066D01*
X70439242Y-111178816D01*
X70439238Y-111178821D01*
X70434071Y-111183997D01*
X70430231Y-111190227D01*
X70430230Y-111190228D01*
X70346750Y-111325658D01*
X70342791Y-111332080D01*
X70288026Y-111497191D01*
X70277500Y-111599928D01*
X70277500Y-112174072D01*
X70277837Y-112177318D01*
X70277837Y-112177322D01*
X70283230Y-112229295D01*
X70288293Y-112278093D01*
X70290474Y-112284629D01*
X70290474Y-112284631D01*
X70333163Y-112412585D01*
X70335747Y-112483534D01*
X70302812Y-112541479D01*
X70244695Y-112599697D01*
X70240855Y-112605927D01*
X70240854Y-112605928D01*
X70202716Y-112667800D01*
X70151885Y-112750262D01*
X70096203Y-112918139D01*
X70095503Y-112924975D01*
X70095502Y-112924978D01*
X70093537Y-112944158D01*
X70085500Y-113022600D01*
X70085500Y-113695972D01*
X70065498Y-113764093D01*
X70048595Y-113785067D01*
X69937067Y-113896595D01*
X69874755Y-113930621D01*
X69847972Y-113933500D01*
X69169267Y-113933500D01*
X69101146Y-113913498D01*
X69059874Y-113870023D01*
X69046005Y-113845756D01*
X69027106Y-113812691D01*
X68986702Y-113741997D01*
X68986700Y-113741995D01*
X68984383Y-113737940D01*
X68827171Y-113538517D01*
X68642209Y-113364523D01*
X68592287Y-113329891D01*
X68437393Y-113222437D01*
X68437390Y-113222435D01*
X68433561Y-113219779D01*
X68429384Y-113217719D01*
X68429377Y-113217715D01*
X68209996Y-113109528D01*
X68209992Y-113109527D01*
X68205810Y-113107464D01*
X68079148Y-113066919D01*
X68079014Y-113066876D01*
X68020234Y-113027058D01*
X67992312Y-112961783D01*
X68004113Y-112891774D01*
X68051891Y-112839259D01*
X68085349Y-112825026D01*
X68117101Y-112816667D01*
X68125926Y-112813628D01*
X68350584Y-112717107D01*
X68358856Y-112712800D01*
X68566777Y-112584135D01*
X68568620Y-112582796D01*
X68576038Y-112571541D01*
X68569974Y-112561184D01*
X67576812Y-111568022D01*
X67562868Y-111560408D01*
X67561035Y-111560539D01*
X67554420Y-111564790D01*
X66562044Y-112557166D01*
X66555386Y-112569359D01*
X66564099Y-112580879D01*
X66652586Y-112645760D01*
X66660505Y-112650708D01*
X66876877Y-112764547D01*
X66885451Y-112768275D01*
X67053608Y-112826998D01*
X67111326Y-112868340D01*
X67137529Y-112934324D01*
X67123900Y-113004000D01*
X67074764Y-113055247D01*
X67047324Y-113066919D01*
X66963993Y-113091208D01*
X66733380Y-113197522D01*
X66729471Y-113200085D01*
X66524928Y-113334189D01*
X66524923Y-113334193D01*
X66521015Y-113336755D01*
X66426289Y-113421301D01*
X66406167Y-113439261D01*
X66331562Y-113505848D01*
X66328569Y-113509446D01*
X66325325Y-113512806D01*
X66323958Y-113511486D01*
X66271638Y-113546644D01*
X66233673Y-113552500D01*
X64924795Y-113552500D01*
X64916554Y-113552230D01*
X64900633Y-113551187D01*
X64851939Y-113547995D01*
X64807108Y-113553301D01*
X64764092Y-113558392D01*
X64760813Y-113558736D01*
X64678477Y-113566302D01*
X64678476Y-113566302D01*
X64672721Y-113566831D01*
X64667162Y-113568399D01*
X64663588Y-113569061D01*
X64652585Y-113571250D01*
X64648972Y-113572018D01*
X64643235Y-113572697D01*
X64558724Y-113598938D01*
X64555627Y-113599854D01*
X64470451Y-113623877D01*
X64465263Y-113626435D01*
X64461812Y-113627760D01*
X64451434Y-113631901D01*
X64448047Y-113633304D01*
X64442527Y-113635018D01*
X64437413Y-113637709D01*
X64437412Y-113637709D01*
X64364255Y-113676198D01*
X64361318Y-113677695D01*
X64287147Y-113714272D01*
X64287143Y-113714275D01*
X64281963Y-113716829D01*
X64277331Y-113720288D01*
X64275337Y-113721510D01*
X64206803Y-113740049D01*
X64139126Y-113718594D01*
X64093792Y-113663955D01*
X64083500Y-113614078D01*
X64083500Y-111155835D01*
X65852022Y-111155835D01*
X65863754Y-111400064D01*
X65864891Y-111409324D01*
X65912593Y-111649143D01*
X65915082Y-111658118D01*
X65997708Y-111888250D01*
X66001505Y-111896778D01*
X66117234Y-112112160D01*
X66122245Y-112120027D01*
X66179173Y-112196263D01*
X66190431Y-112204712D01*
X66202850Y-112197940D01*
X67191978Y-111208812D01*
X67198356Y-111197132D01*
X67928408Y-111197132D01*
X67928539Y-111198965D01*
X67932790Y-111205580D01*
X68927732Y-112200522D01*
X68940112Y-112207282D01*
X68948453Y-112201038D01*
X69066700Y-112017202D01*
X69071147Y-112009011D01*
X69171572Y-111786076D01*
X69174767Y-111777298D01*
X69241135Y-111541973D01*
X69242993Y-111532844D01*
X69274044Y-111288770D01*
X69274525Y-111282483D01*
X69276706Y-111199160D01*
X69276555Y-111192851D01*
X69258321Y-110947486D01*
X69256944Y-110938280D01*
X69202979Y-110699786D01*
X69200255Y-110690875D01*
X69111633Y-110462983D01*
X69107619Y-110454567D01*
X68986284Y-110242276D01*
X68981074Y-110234553D01*
X68949787Y-110194865D01*
X68937863Y-110186395D01*
X68926328Y-110192882D01*
X67936022Y-111183188D01*
X67928408Y-111197132D01*
X67198356Y-111197132D01*
X67199592Y-111194868D01*
X67199461Y-111193035D01*
X67195210Y-111186420D01*
X66200828Y-110192038D01*
X66187520Y-110184771D01*
X66177481Y-110191893D01*
X66172581Y-110197784D01*
X66167168Y-110205373D01*
X66040322Y-110414409D01*
X66036084Y-110422726D01*
X65941529Y-110648214D01*
X65938572Y-110657052D01*
X65878384Y-110894042D01*
X65876763Y-110903232D01*
X65852267Y-111146510D01*
X65852022Y-111155835D01*
X64083500Y-111155835D01*
X64083500Y-108837219D01*
X64103502Y-108769098D01*
X64157158Y-108722605D01*
X64227432Y-108712501D01*
X64271065Y-108727284D01*
X64302903Y-108745114D01*
X64308380Y-108746973D01*
X64311767Y-108748481D01*
X64322028Y-108752889D01*
X64325414Y-108754292D01*
X64330527Y-108756982D01*
X64336038Y-108758693D01*
X64336040Y-108758694D01*
X64415040Y-108783224D01*
X64418178Y-108784244D01*
X64490992Y-108808961D01*
X64501912Y-108812668D01*
X64507627Y-108813497D01*
X64511248Y-108814366D01*
X64522163Y-108816836D01*
X64525721Y-108817592D01*
X64531234Y-108819304D01*
X64619134Y-108829708D01*
X64622346Y-108830131D01*
X64681775Y-108838748D01*
X64704185Y-108841997D01*
X64704187Y-108841997D01*
X64709897Y-108842825D01*
X64792054Y-108839597D01*
X64797001Y-108839500D01*
X65731080Y-108839500D01*
X65799201Y-108859502D01*
X65845694Y-108913158D01*
X65856343Y-108951893D01*
X65861401Y-108998460D01*
X65861402Y-108998464D01*
X65862255Y-109006316D01*
X65913385Y-109142705D01*
X66000739Y-109259261D01*
X66117295Y-109346615D01*
X66253684Y-109397745D01*
X66315866Y-109404500D01*
X66795914Y-109404500D01*
X66864035Y-109424502D01*
X66910528Y-109478158D01*
X66920632Y-109548432D01*
X66891138Y-109613012D01*
X66848665Y-109644926D01*
X66737869Y-109696004D01*
X66729714Y-109700524D01*
X66562468Y-109810175D01*
X66553330Y-109820917D01*
X66557903Y-109830693D01*
X67551188Y-110823978D01*
X67565132Y-110831592D01*
X67566965Y-110831461D01*
X67573580Y-110827210D01*
X68566488Y-109834302D01*
X68572872Y-109822612D01*
X68563460Y-109810502D01*
X68437144Y-109722873D01*
X68429116Y-109718145D01*
X68277763Y-109643506D01*
X68225514Y-109595438D01*
X68207547Y-109526752D01*
X68229566Y-109459257D01*
X68284581Y-109414380D01*
X68333491Y-109404500D01*
X68812134Y-109404500D01*
X68874316Y-109397745D01*
X69010705Y-109346615D01*
X69127261Y-109259261D01*
X69214615Y-109142705D01*
X69265745Y-109006316D01*
X69272500Y-108944134D01*
X69272500Y-108203500D01*
X69292502Y-108135379D01*
X69346158Y-108088886D01*
X69398500Y-108077500D01*
X69959500Y-108077500D01*
X70027621Y-108097502D01*
G37*
%TD.AperFunction*%
%TA.AperFunction,Conductor*%
G36*
X82187504Y-109748502D02*
G01*
X82233997Y-109802158D01*
X82244646Y-109868105D01*
X82242869Y-109884462D01*
X82242868Y-109884476D01*
X82242500Y-109887866D01*
X82242500Y-110584134D01*
X82249255Y-110646316D01*
X82300385Y-110782705D01*
X82305768Y-110789888D01*
X82305770Y-110789891D01*
X82310239Y-110795853D01*
X82335086Y-110862359D01*
X82320033Y-110931742D01*
X82310239Y-110946981D01*
X82306214Y-110952352D01*
X82297676Y-110967946D01*
X82252522Y-111088394D01*
X82248895Y-111103649D01*
X82243369Y-111154514D01*
X82243000Y-111161328D01*
X82243000Y-111233885D01*
X82247475Y-111249124D01*
X82248865Y-111250329D01*
X82256548Y-111252000D01*
X83879000Y-111252000D01*
X83947121Y-111272002D01*
X83993614Y-111325658D01*
X84005000Y-111378000D01*
X84005000Y-111634000D01*
X83984998Y-111702121D01*
X83931342Y-111748614D01*
X83879000Y-111760000D01*
X82261116Y-111760000D01*
X82245877Y-111764475D01*
X82244672Y-111765865D01*
X82243001Y-111773548D01*
X82243001Y-111850669D01*
X82243371Y-111857490D01*
X82248895Y-111908352D01*
X82252521Y-111923604D01*
X82297676Y-112044054D01*
X82306214Y-112059648D01*
X82310239Y-112065019D01*
X82335086Y-112131526D01*
X82320032Y-112200908D01*
X82310239Y-112216147D01*
X82305770Y-112222109D01*
X82305768Y-112222112D01*
X82300385Y-112229295D01*
X82249255Y-112365684D01*
X82242500Y-112427866D01*
X82242500Y-113124134D01*
X82249255Y-113186316D01*
X82300385Y-113322705D01*
X82387739Y-113439261D01*
X82394919Y-113444642D01*
X82395848Y-113445571D01*
X82429874Y-113507883D01*
X82424809Y-113578698D01*
X82382262Y-113635534D01*
X82316968Y-113660251D01*
X82275715Y-113663606D01*
X82269825Y-113664085D01*
X82259611Y-113664500D01*
X82251475Y-113664500D01*
X82247840Y-113664924D01*
X82247837Y-113664924D01*
X82233713Y-113666571D01*
X82223084Y-113667810D01*
X82218713Y-113668243D01*
X82215868Y-113668474D01*
X82152872Y-113673597D01*
X82152869Y-113673598D01*
X82145573Y-113674191D01*
X82138609Y-113676447D01*
X82132614Y-113677645D01*
X82126665Y-113679051D01*
X82119393Y-113679899D01*
X82102212Y-113686135D01*
X82041889Y-113691199D01*
X82041831Y-113691938D01*
X82032442Y-113691199D01*
X82006958Y-113689193D01*
X82006950Y-113689193D01*
X82004502Y-113689000D01*
X81571498Y-113689000D01*
X81569050Y-113689193D01*
X81569042Y-113689193D01*
X81540579Y-113691433D01*
X81540574Y-113691434D01*
X81534169Y-113691938D01*
X81470030Y-113710572D01*
X81382012Y-113736143D01*
X81382010Y-113736144D01*
X81374399Y-113738355D01*
X81361979Y-113745700D01*
X81238020Y-113819009D01*
X81238017Y-113819011D01*
X81231193Y-113823047D01*
X81216909Y-113837331D01*
X81154597Y-113871357D01*
X81083782Y-113866292D01*
X81026946Y-113823745D01*
X81002135Y-113757225D01*
X81004454Y-113722577D01*
X81004486Y-113722426D01*
X81007397Y-113708430D01*
X81008363Y-113704162D01*
X81008368Y-113704144D01*
X81025804Y-113632888D01*
X81026500Y-113621670D01*
X81026539Y-113621672D01*
X81026772Y-113617771D01*
X81027161Y-113613412D01*
X81028652Y-113606244D01*
X81028073Y-113584829D01*
X81026546Y-113528423D01*
X81026500Y-113525014D01*
X81026500Y-110096028D01*
X81046502Y-110027907D01*
X81063405Y-110006933D01*
X81304933Y-109765405D01*
X81367245Y-109731379D01*
X81394028Y-109728500D01*
X82119383Y-109728500D01*
X82187504Y-109748502D01*
G37*
%TD.AperFunction*%
%TA.AperFunction,Conductor*%
G36*
X83012093Y-94254502D02*
G01*
X83033067Y-94271405D01*
X84036595Y-95274933D01*
X84070621Y-95337245D01*
X84073500Y-95364028D01*
X84073500Y-106311972D01*
X84053498Y-106380093D01*
X84036595Y-106401068D01*
X83694566Y-106743096D01*
X83632254Y-106777121D01*
X83605471Y-106780000D01*
X82971693Y-106780000D01*
X82903572Y-106759998D01*
X82857079Y-106706342D01*
X82846975Y-106636068D01*
X82869612Y-106583355D01*
X82868534Y-106582691D01*
X82955912Y-106440937D01*
X82962056Y-106427759D01*
X83012315Y-106276234D01*
X83015181Y-106262868D01*
X83024672Y-106170230D01*
X83025000Y-106163815D01*
X83025000Y-106089615D01*
X83020525Y-106074376D01*
X83019135Y-106073171D01*
X83011452Y-106071500D01*
X81914000Y-106071500D01*
X81845879Y-106051498D01*
X81799386Y-105997842D01*
X81788000Y-105945500D01*
X81788000Y-105545385D01*
X82296000Y-105545385D01*
X82300475Y-105560624D01*
X82301865Y-105561829D01*
X82309548Y-105563500D01*
X83006885Y-105563500D01*
X83022124Y-105559025D01*
X83023329Y-105557635D01*
X83025000Y-105549952D01*
X83025000Y-105471234D01*
X83024663Y-105464718D01*
X83014925Y-105370868D01*
X83012032Y-105357472D01*
X82961512Y-105206047D01*
X82955347Y-105192885D01*
X82871574Y-105057508D01*
X82862540Y-105046110D01*
X82749871Y-104933637D01*
X82738460Y-104924625D01*
X82602937Y-104841088D01*
X82589759Y-104834944D01*
X82438234Y-104784685D01*
X82424868Y-104781819D01*
X82332230Y-104772328D01*
X82325815Y-104772000D01*
X82314115Y-104772000D01*
X82298876Y-104776475D01*
X82297671Y-104777865D01*
X82296000Y-104785548D01*
X82296000Y-105545385D01*
X81788000Y-105545385D01*
X81788000Y-104790115D01*
X81783525Y-104774876D01*
X81782135Y-104773671D01*
X81774452Y-104772000D01*
X81758234Y-104772000D01*
X81751718Y-104772337D01*
X81657868Y-104782075D01*
X81644472Y-104784968D01*
X81493047Y-104835488D01*
X81479885Y-104841653D01*
X81344508Y-104925426D01*
X81333110Y-104934460D01*
X81220637Y-105047129D01*
X81211625Y-105058540D01*
X81128087Y-105194064D01*
X81123582Y-105203726D01*
X81076665Y-105257010D01*
X81008388Y-105276471D01*
X80956140Y-105264671D01*
X80951970Y-105262726D01*
X80945738Y-105258885D01*
X80938790Y-105256581D01*
X80938787Y-105256579D01*
X80784389Y-105205368D01*
X80784387Y-105205368D01*
X80777861Y-105203203D01*
X80771025Y-105202503D01*
X80771022Y-105202502D01*
X80727969Y-105198091D01*
X80673400Y-105192500D01*
X79897600Y-105192500D01*
X79894354Y-105192837D01*
X79894350Y-105192837D01*
X79798692Y-105202762D01*
X79798688Y-105202763D01*
X79791834Y-105203474D01*
X79785298Y-105205655D01*
X79785296Y-105205655D01*
X79768928Y-105211116D01*
X79624054Y-105259450D01*
X79473652Y-105352522D01*
X79348695Y-105477697D01*
X79345898Y-105482235D01*
X79288647Y-105522824D01*
X79217724Y-105526054D01*
X79156313Y-105490428D01*
X79148938Y-105481932D01*
X79140902Y-105471793D01*
X79026171Y-105357261D01*
X79014760Y-105348249D01*
X78876757Y-105263184D01*
X78863576Y-105257037D01*
X78709290Y-105205862D01*
X78695914Y-105202995D01*
X78601562Y-105193328D01*
X78595145Y-105193000D01*
X78482615Y-105193000D01*
X78467376Y-105197475D01*
X78466171Y-105198865D01*
X78464500Y-105206548D01*
X78464500Y-107640884D01*
X78468975Y-107656123D01*
X78470365Y-107657328D01*
X78478048Y-107658999D01*
X78595095Y-107658999D01*
X78601614Y-107658662D01*
X78697206Y-107648743D01*
X78710600Y-107645851D01*
X78864784Y-107594412D01*
X78877962Y-107588239D01*
X79015807Y-107502937D01*
X79027208Y-107493901D01*
X79141738Y-107379172D01*
X79148794Y-107370238D01*
X79206712Y-107329177D01*
X79277635Y-107325947D01*
X79339046Y-107361574D01*
X79345846Y-107369407D01*
X79349522Y-107375348D01*
X79354704Y-107380521D01*
X79375064Y-107400846D01*
X79474697Y-107500305D01*
X79480925Y-107504144D01*
X79480930Y-107504148D01*
X79601148Y-107578252D01*
X79642748Y-107620143D01*
X79679727Y-107681081D01*
X79683441Y-107685286D01*
X79683443Y-107685289D01*
X79687167Y-107689505D01*
X79687138Y-107689531D01*
X79689738Y-107692462D01*
X79692542Y-107695816D01*
X79696554Y-107701935D01*
X79701866Y-107706967D01*
X79753086Y-107755488D01*
X79755528Y-107757866D01*
X80031690Y-108034028D01*
X80044077Y-108048441D01*
X80057046Y-108066064D01*
X80062629Y-108070807D01*
X80097555Y-108100479D01*
X80105071Y-108107409D01*
X80110815Y-108113153D01*
X80113689Y-108115427D01*
X80113696Y-108115433D01*
X80133211Y-108130872D01*
X80136615Y-108133663D01*
X80186972Y-108176445D01*
X80186976Y-108176448D01*
X80192551Y-108181184D01*
X80199068Y-108184512D01*
X80204132Y-108187889D01*
X80209356Y-108191116D01*
X80215100Y-108195660D01*
X80221731Y-108198759D01*
X80281582Y-108226732D01*
X80285533Y-108228663D01*
X80350904Y-108262043D01*
X80358017Y-108263784D01*
X80363756Y-108265918D01*
X80369546Y-108267844D01*
X80376179Y-108270944D01*
X80383293Y-108272424D01*
X80441598Y-108312891D01*
X80468779Y-108378479D01*
X80456185Y-108448349D01*
X80432598Y-108481064D01*
X80024595Y-108889067D01*
X79962283Y-108923093D01*
X79891468Y-108918028D01*
X79834632Y-108875481D01*
X79809821Y-108808961D01*
X79809500Y-108799972D01*
X79809500Y-108617866D01*
X79802745Y-108555684D01*
X79751615Y-108419295D01*
X79664261Y-108302739D01*
X79547705Y-108215385D01*
X79411316Y-108164255D01*
X79349134Y-108157500D01*
X77309500Y-108157500D01*
X77241379Y-108137498D01*
X77194886Y-108083842D01*
X77184887Y-108037877D01*
X77183668Y-108037940D01*
X77183500Y-108034692D01*
X77183500Y-108031428D01*
X77181647Y-108013568D01*
X77173419Y-107934265D01*
X77173418Y-107934261D01*
X77172707Y-107927407D01*
X77117654Y-107762393D01*
X77026116Y-107614469D01*
X76918859Y-107507399D01*
X76884780Y-107445118D01*
X76889783Y-107374298D01*
X76918704Y-107329209D01*
X77008582Y-107239174D01*
X77070864Y-107205095D01*
X77141684Y-107210098D01*
X77198557Y-107252595D01*
X77204899Y-107261888D01*
X77271066Y-107368810D01*
X77280099Y-107380208D01*
X77394829Y-107494739D01*
X77406240Y-107503751D01*
X77544243Y-107588816D01*
X77557424Y-107594963D01*
X77711710Y-107646138D01*
X77725086Y-107649005D01*
X77819438Y-107658672D01*
X77825854Y-107659000D01*
X77938385Y-107659000D01*
X77953624Y-107654525D01*
X77954829Y-107653135D01*
X77956500Y-107645452D01*
X77956500Y-106698115D01*
X77952025Y-106682876D01*
X77950635Y-106681671D01*
X77942952Y-106680000D01*
X77241115Y-106680000D01*
X77225876Y-106684475D01*
X77203611Y-106710170D01*
X77203303Y-106709903D01*
X77196096Y-106723101D01*
X77133782Y-106757122D01*
X77107006Y-106760000D01*
X76072000Y-106760000D01*
X76003879Y-106739998D01*
X75957386Y-106686342D01*
X75946000Y-106634000D01*
X75946000Y-106233885D01*
X76454000Y-106233885D01*
X76458475Y-106249124D01*
X76459865Y-106250329D01*
X76467548Y-106252000D01*
X77056885Y-106252000D01*
X77072124Y-106247525D01*
X77094389Y-106221830D01*
X77094697Y-106222097D01*
X77101904Y-106208899D01*
X77164218Y-106174878D01*
X77190994Y-106172000D01*
X77938385Y-106172000D01*
X77953624Y-106167525D01*
X77954829Y-106166135D01*
X77956500Y-106158452D01*
X77956500Y-105211116D01*
X77952025Y-105195877D01*
X77950635Y-105194672D01*
X77942952Y-105193001D01*
X77825905Y-105193001D01*
X77819386Y-105193338D01*
X77723794Y-105203257D01*
X77710400Y-105206149D01*
X77556216Y-105257588D01*
X77543038Y-105263761D01*
X77405193Y-105349063D01*
X77393792Y-105358099D01*
X77279261Y-105472829D01*
X77270249Y-105484240D01*
X77185184Y-105622243D01*
X77179037Y-105635424D01*
X77166664Y-105672727D01*
X77126233Y-105731087D01*
X77060668Y-105758323D01*
X76990787Y-105745789D01*
X76958053Y-105722232D01*
X76907871Y-105672137D01*
X76896460Y-105663125D01*
X76760937Y-105579588D01*
X76747759Y-105573444D01*
X76596234Y-105523185D01*
X76582868Y-105520319D01*
X76490230Y-105510828D01*
X76483815Y-105510500D01*
X76472115Y-105510500D01*
X76456876Y-105514975D01*
X76455671Y-105516365D01*
X76454000Y-105524048D01*
X76454000Y-106233885D01*
X75946000Y-106233885D01*
X75946000Y-105528615D01*
X75941525Y-105513376D01*
X75940135Y-105512171D01*
X75932452Y-105510500D01*
X75916234Y-105510500D01*
X75909718Y-105510837D01*
X75815868Y-105520575D01*
X75802472Y-105523468D01*
X75681876Y-105563702D01*
X75610926Y-105566286D01*
X75549843Y-105530102D01*
X75518018Y-105466638D01*
X75516000Y-105444178D01*
X75516000Y-104839758D01*
X75536002Y-104771637D01*
X75589658Y-104725144D01*
X75603170Y-104719891D01*
X75623606Y-104713271D01*
X75623609Y-104713270D01*
X75630575Y-104711013D01*
X75636837Y-104707213D01*
X75642380Y-104704675D01*
X75647856Y-104701933D01*
X75654741Y-104699434D01*
X75716132Y-104659185D01*
X75719800Y-104656870D01*
X75782581Y-104618773D01*
X75786786Y-104615059D01*
X75786789Y-104615057D01*
X75791005Y-104611333D01*
X75791031Y-104611362D01*
X75793962Y-104608762D01*
X75797316Y-104605958D01*
X75803435Y-104601946D01*
X75856989Y-104545413D01*
X75859366Y-104542972D01*
X77101528Y-103300810D01*
X77115941Y-103288423D01*
X77127665Y-103279795D01*
X77133564Y-103275454D01*
X77167979Y-103234945D01*
X77174909Y-103227429D01*
X77180653Y-103221685D01*
X77182927Y-103218811D01*
X77182933Y-103218804D01*
X77198372Y-103199289D01*
X77201163Y-103195885D01*
X77243945Y-103145528D01*
X77243948Y-103145524D01*
X77248684Y-103139949D01*
X77252011Y-103133434D01*
X77255392Y-103128364D01*
X77258617Y-103123142D01*
X77263160Y-103117400D01*
X77294246Y-103050888D01*
X77296152Y-103046988D01*
X77315966Y-103008185D01*
X77329543Y-102981596D01*
X77331284Y-102974479D01*
X77333411Y-102968761D01*
X77335342Y-102962955D01*
X77338443Y-102956321D01*
X77353391Y-102884461D01*
X77354359Y-102880181D01*
X77359444Y-102859402D01*
X77371804Y-102808888D01*
X77372500Y-102797670D01*
X77372539Y-102797672D01*
X77372772Y-102793771D01*
X77373161Y-102789412D01*
X77374652Y-102782244D01*
X77372546Y-102704424D01*
X77372500Y-102701015D01*
X77372500Y-102371513D01*
X77392502Y-102303392D01*
X77410350Y-102283478D01*
X77409348Y-102282478D01*
X77529134Y-102162483D01*
X77534305Y-102157303D01*
X77566469Y-102105124D01*
X77623275Y-102012968D01*
X77623276Y-102012966D01*
X77627115Y-102006738D01*
X77682797Y-101838861D01*
X77693500Y-101734400D01*
X77693500Y-99433600D01*
X77682526Y-99327834D01*
X77626550Y-99160054D01*
X77546040Y-99029952D01*
X77527202Y-98961500D01*
X77548363Y-98893731D01*
X77564010Y-98874632D01*
X77578133Y-98860484D01*
X77583305Y-98855303D01*
X77626651Y-98784983D01*
X77672275Y-98710968D01*
X77672276Y-98710966D01*
X77676115Y-98704738D01*
X77731797Y-98536861D01*
X77742500Y-98432400D01*
X77742500Y-96131600D01*
X77736475Y-96073530D01*
X77732238Y-96032692D01*
X77732237Y-96032688D01*
X77731526Y-96025834D01*
X77675550Y-95858054D01*
X77582478Y-95707652D01*
X77457303Y-95582695D01*
X77395453Y-95544570D01*
X77312968Y-95493725D01*
X77312966Y-95493724D01*
X77306738Y-95489885D01*
X77146254Y-95436655D01*
X77145389Y-95436368D01*
X77145387Y-95436368D01*
X77138861Y-95434203D01*
X77132025Y-95433503D01*
X77132022Y-95433502D01*
X77088969Y-95429091D01*
X77034400Y-95423500D01*
X76283600Y-95423500D01*
X76280354Y-95423837D01*
X76280350Y-95423837D01*
X76184692Y-95433762D01*
X76184688Y-95433763D01*
X76177834Y-95434474D01*
X76171298Y-95436655D01*
X76171296Y-95436655D01*
X76039194Y-95480728D01*
X76010054Y-95490450D01*
X75859652Y-95583522D01*
X75734695Y-95708697D01*
X75730855Y-95714927D01*
X75730854Y-95714928D01*
X75727868Y-95719773D01*
X75641885Y-95859262D01*
X75586203Y-96027139D01*
X75585503Y-96033975D01*
X75585502Y-96033978D01*
X75584455Y-96044201D01*
X75575500Y-96131600D01*
X75575500Y-98432400D01*
X75586474Y-98538166D01*
X75588655Y-98544702D01*
X75588655Y-98544704D01*
X75620490Y-98640124D01*
X75623074Y-98711073D01*
X75586891Y-98772157D01*
X75523426Y-98803982D01*
X75500966Y-98806000D01*
X74881000Y-98806000D01*
X74881000Y-98805427D01*
X74838509Y-98805426D01*
X74875207Y-98860236D01*
X74881000Y-98898001D01*
X74881000Y-99047382D01*
X74860998Y-99115503D01*
X74807342Y-99161996D01*
X74737068Y-99172100D01*
X74672488Y-99142606D01*
X74647856Y-99113685D01*
X74596040Y-99029952D01*
X74577202Y-98961500D01*
X74598363Y-98893731D01*
X74614010Y-98874632D01*
X74628133Y-98860484D01*
X74633305Y-98855303D01*
X74647740Y-98831885D01*
X74700512Y-98784392D01*
X74770584Y-98772968D01*
X74798257Y-98784983D01*
X74770340Y-98767040D01*
X74740849Y-98702459D01*
X74745974Y-98644864D01*
X74779632Y-98543388D01*
X74781797Y-98536861D01*
X74792500Y-98432400D01*
X74792500Y-96131600D01*
X74786475Y-96073530D01*
X74782238Y-96032692D01*
X74782237Y-96032688D01*
X74781526Y-96025834D01*
X74725550Y-95858054D01*
X74632478Y-95707652D01*
X74507303Y-95582695D01*
X74445453Y-95544570D01*
X74362968Y-95493725D01*
X74362966Y-95493724D01*
X74356738Y-95489885D01*
X74196254Y-95436655D01*
X74195389Y-95436368D01*
X74195387Y-95436368D01*
X74188861Y-95434203D01*
X74182025Y-95433503D01*
X74182022Y-95433502D01*
X74138969Y-95429091D01*
X74084400Y-95423500D01*
X73333600Y-95423500D01*
X73330354Y-95423837D01*
X73330350Y-95423837D01*
X73234692Y-95433762D01*
X73234688Y-95433763D01*
X73227834Y-95434474D01*
X73221298Y-95436655D01*
X73221296Y-95436655D01*
X73089194Y-95480728D01*
X73060054Y-95490450D01*
X72909652Y-95583522D01*
X72904479Y-95588704D01*
X72859673Y-95633588D01*
X72797390Y-95667667D01*
X72726570Y-95662664D01*
X72669698Y-95620167D01*
X72644829Y-95553668D01*
X72644500Y-95544570D01*
X72644500Y-94917043D01*
X72664502Y-94848922D01*
X72718158Y-94802429D01*
X72788432Y-94792325D01*
X72850985Y-94820099D01*
X72878126Y-94842632D01*
X73071000Y-94955338D01*
X73075825Y-94957180D01*
X73075826Y-94957181D01*
X73148612Y-94984975D01*
X73279692Y-95035030D01*
X73284760Y-95036061D01*
X73284763Y-95036062D01*
X73392017Y-95057883D01*
X73498597Y-95079567D01*
X73503772Y-95079757D01*
X73503774Y-95079757D01*
X73716673Y-95087564D01*
X73716677Y-95087564D01*
X73721837Y-95087753D01*
X73726957Y-95087097D01*
X73726959Y-95087097D01*
X73938288Y-95060025D01*
X73938289Y-95060025D01*
X73943416Y-95059368D01*
X73948366Y-95057883D01*
X74152429Y-94996661D01*
X74152434Y-94996659D01*
X74157384Y-94995174D01*
X74357994Y-94896896D01*
X74539860Y-94767173D01*
X74648091Y-94659319D01*
X74710462Y-94625404D01*
X74781268Y-94630592D01*
X74838030Y-94673238D01*
X74855012Y-94704341D01*
X74877201Y-94763529D01*
X74899385Y-94822705D01*
X74986739Y-94939261D01*
X75103295Y-95026615D01*
X75239684Y-95077745D01*
X75301866Y-95084500D01*
X77098134Y-95084500D01*
X77160316Y-95077745D01*
X77296705Y-95026615D01*
X77413261Y-94939261D01*
X77500615Y-94822705D01*
X77551745Y-94686316D01*
X77558500Y-94624134D01*
X77558500Y-94360500D01*
X77578502Y-94292379D01*
X77632158Y-94245886D01*
X77684500Y-94234500D01*
X82943972Y-94234500D01*
X83012093Y-94254502D01*
G37*
%TD.AperFunction*%
%TD*%
M02*
