%TF.GenerationSoftware,KiCad,Pcbnew,6.0.4-6f826c9f35~116~ubuntu18.04.1*%
%TF.CreationDate,2022-05-09T12:51:31-04:00*%
%TF.ProjectId,Instrumentation_ampl_with_batteries,496e7374-7275-46d6-956e-746174696f6e,rev?*%
%TF.SameCoordinates,Original*%
%TF.FileFunction,Legend,Bot*%
%TF.FilePolarity,Positive*%
%FSLAX46Y46*%
G04 Gerber Fmt 4.6, Leading zero omitted, Abs format (unit mm)*
G04 Created by KiCad (PCBNEW 6.0.4-6f826c9f35~116~ubuntu18.04.1) date 2022-05-09 12:51:31*
%MOMM*%
%LPD*%
G01*
G04 APERTURE LIST*
%ADD10C,0.150000*%
%ADD11C,0.400000*%
%ADD12C,0.120000*%
G04 APERTURE END LIST*
D10*
%TO.C,BT1*%
X65652696Y-109290263D02*
X65795553Y-109242644D01*
X65843172Y-109195025D01*
X65890791Y-109099787D01*
X65890791Y-108956930D01*
X65843172Y-108861692D01*
X65795553Y-108814073D01*
X65700315Y-108766454D01*
X65319363Y-108766454D01*
X65319363Y-109766454D01*
X65652696Y-109766454D01*
X65747934Y-109718835D01*
X65795553Y-109671215D01*
X65843172Y-109575977D01*
X65843172Y-109480739D01*
X65795553Y-109385501D01*
X65747934Y-109337882D01*
X65652696Y-109290263D01*
X65319363Y-109290263D01*
X66176506Y-109766454D02*
X66747934Y-109766454D01*
X66462220Y-108766454D02*
X66462220Y-109766454D01*
X67605077Y-108766454D02*
X67033649Y-108766454D01*
X67319363Y-108766454D02*
X67319363Y-109766454D01*
X67224125Y-109623596D01*
X67128887Y-109528358D01*
X67033649Y-109480739D01*
D11*
X61616410Y-102335818D02*
X63902125Y-102335818D01*
X62759268Y-101192961D02*
X62759268Y-103478675D01*
X101035994Y-102353105D02*
X103321709Y-102353105D01*
D10*
%TO.C,BT2*%
X99435303Y-112705736D02*
X99292446Y-112753355D01*
X99244827Y-112800974D01*
X99197208Y-112896212D01*
X99197208Y-113039069D01*
X99244827Y-113134307D01*
X99292446Y-113181926D01*
X99387684Y-113229545D01*
X99768636Y-113229545D01*
X99768636Y-112229545D01*
X99435303Y-112229545D01*
X99340065Y-112277165D01*
X99292446Y-112324784D01*
X99244827Y-112420022D01*
X99244827Y-112515260D01*
X99292446Y-112610498D01*
X99340065Y-112658117D01*
X99435303Y-112705736D01*
X99768636Y-112705736D01*
X98911493Y-112229545D02*
X98340065Y-112229545D01*
X98625779Y-113229545D02*
X98625779Y-112229545D01*
X98054350Y-112324784D02*
X98006731Y-112277165D01*
X97911493Y-112229545D01*
X97673398Y-112229545D01*
X97578160Y-112277165D01*
X97530541Y-112324784D01*
X97482922Y-112420022D01*
X97482922Y-112515260D01*
X97530541Y-112658117D01*
X98101969Y-113229545D01*
X97482922Y-113229545D01*
D11*
X103471589Y-119660181D02*
X101185874Y-119660181D01*
X102328732Y-120803038D02*
X102328732Y-118517324D01*
X64052005Y-119642894D02*
X61766290Y-119642894D01*
D12*
%TO.C,BT1*%
X100544000Y-96362000D02*
X64544000Y-96362000D01*
X64544000Y-96362000D02*
X64544000Y-96362000D01*
X64544000Y-96362000D02*
X100544000Y-96362000D01*
X100544000Y-96362000D02*
X100544000Y-96362000D01*
X100544000Y-108362000D02*
X100544000Y-108362000D01*
X100544000Y-108362000D02*
X100544000Y-96362000D01*
X100544000Y-96362000D02*
X100544000Y-96362000D01*
X100544000Y-96362000D02*
X100544000Y-108362000D01*
X64544000Y-108362000D02*
X64544000Y-108362000D01*
X64544000Y-108362000D02*
X64544000Y-96362000D01*
X64544000Y-96362000D02*
X64544000Y-96362000D01*
X64544000Y-96362000D02*
X64544000Y-108362000D01*
X64544000Y-108362000D02*
X100544000Y-108362000D01*
X100544000Y-108362000D02*
X100544000Y-108362000D01*
X100544000Y-108362000D02*
X64544000Y-108362000D01*
X64544000Y-108362000D02*
X64544000Y-108362000D01*
%TO.C,BT2*%
X64544000Y-125634000D02*
X100544000Y-125634000D01*
X100544000Y-125634000D02*
X100544000Y-125634000D01*
X100544000Y-125634000D02*
X64544000Y-125634000D01*
X64544000Y-125634000D02*
X64544000Y-125634000D01*
X100544000Y-113634000D02*
X64544000Y-113634000D01*
X64544000Y-113634000D02*
X64544000Y-113634000D01*
X64544000Y-113634000D02*
X100544000Y-113634000D01*
X100544000Y-113634000D02*
X100544000Y-113634000D01*
X100544000Y-113634000D02*
X100544000Y-113634000D01*
X100544000Y-113634000D02*
X100544000Y-125634000D01*
X100544000Y-125634000D02*
X100544000Y-125634000D01*
X100544000Y-125634000D02*
X100544000Y-113634000D01*
X64544000Y-113634000D02*
X64544000Y-113634000D01*
X64544000Y-113634000D02*
X64544000Y-125634000D01*
X64544000Y-125634000D02*
X64544000Y-125634000D01*
X64544000Y-125634000D02*
X64544000Y-113634000D01*
%TD*%
M02*
